because-we-organize.ufo
<glyph name="exclam" format="1">
  <advance width="185"/>
  <unicode hex="0021"/>
  <outline>
    <contour>
      <point x="41" y="651" type="line"/>
      <point x="37" y="611"/>
      <point x="35" y="551"/>
      <point x="35" y="508" type="curve" smooth="yes"/>
      <point x="35" y="413"/>
      <point x="52" y="350"/>
      <point x="66" y="265" type="curve" smooth="yes"/>
      <point x="71" y="235"/>
      <point x="87" y="191"/>
      <point x="121" y="191" type="curve" smooth="yes"/>
      <point x="135" y="191"/>
      <point x="153" y="219"/>
      <point x="153" y="234" type="curve" smooth="yes"/>
      <point x="153" y="240"/>
      <point x="148" y="250"/>
      <point x="146" y="258" type="curve" smooth="yes"/>
      <point x="120" y="355"/>
      <point x="111" y="453"/>
      <point x="111" y="555" type="curve" smooth="yes"/>
      <point x="111" y="578"/>
      <point x="113" y="602"/>
      <point x="113" y="630" type="curve" smooth="yes"/>
      <point x="113" y="649"/>
      <point x="99" y="688"/>
      <point x="76" y="688" type="curve" smooth="yes"/>
      <point x="59" y="688"/>
      <point x="42" y="664"/>
      <point x="41" y="651" type="curve" smooth="yes"/>
    </contour>
    <contour>
      <point x="103" y="69" type="line"/>
      <point x="75" y="69"/>
      <point x="66" y="34"/>
      <point x="66" y="19" type="curve" smooth="yes"/>
      <point x="66" y="-1"/>
      <point x="94" y="-19"/>
      <point x="110" y="-19" type="curve" smooth="yes"/>
      <point x="126" y="-19"/>
      <point x="137" y="-5"/>
      <point x="137" y="9" type="curve" smooth="yes"/>
      <point x="137" y="21"/>
      <point x="135" y="68"/>
      <point x="103" y="69" type="curve" smooth="yes"/>
    </contour>
  </outline>
</glyph>
<glyph name="quotedbl" format="1">
  <advance width="302"/>
  <unicode hex="0022"/>
  <outline>
    <contour>
      <point x="32" y="541" type="line"/>
      <point x="35" y="489"/>
      <point x="30" y="462"/>
      <point x="41" y="417" type="curve" smooth="yes"/>
      <point x="47" y="391"/>
      <point x="69" y="380"/>
      <point x="87" y="380" type="curve" smooth="yes"/>
      <point x="91" y="380"/>
      <point x="96" y="381"/>
      <point x="99" y="382" type="curve"/>
      <point x="115" y="383"/>
      <point x="122" y="405"/>
      <point x="122" y="421" type="curve" smooth="yes"/>
      <point x="122" y="450"/>
      <point x="114" y="479"/>
      <point x="114" y="517" type="curve" smooth="yes"/>
      <point x="114" y="550"/>
      <point x="116" y="584"/>
      <point x="121" y="618" type="curve"/>
      <point x="121" y="624" type="line" smooth="yes"/>
      <point x="121" y="641"/>
      <point x="112" y="664"/>
      <point x="100" y="669" type="curve" smooth="yes"/>
      <point x="95" y="672"/>
      <point x="90" y="673"/>
      <point x="85" y="673" type="curve" smooth="yes"/>
      <point x="66" y="673"/>
      <point x="53" y="654"/>
      <point x="47" y="635" type="curve" smooth="yes"/>
      <point x="38" y="605"/>
      <point x="37" y="573"/>
      <point x="32" y="541" type="curve"/>
    </contour>
    <contour>
      <point x="275" y="434" type="line"/>
      <point x="268" y="462"/>
      <point x="266" y="491"/>
      <point x="266" y="521" type="curve" smooth="yes"/>
      <point x="266" y="545"/>
      <point x="268" y="569"/>
      <point x="269" y="594" type="curve" smooth="yes"/>
      <point x="270" y="603"/>
      <point x="270" y="626"/>
      <point x="270" y="635" type="curve" smooth="yes"/>
      <point x="270" y="650"/>
      <point x="265" y="662"/>
      <point x="245" y="668" type="curve" smooth="yes"/>
      <point x="240" y="669"/>
      <point x="236" y="670"/>
      <point x="232" y="670" type="curve" smooth="yes"/>
      <point x="206" y="670"/>
      <point x="194" y="646"/>
      <point x="192" y="623" type="curve" smooth="yes"/>
      <point x="190" y="602"/>
      <point x="190" y="578"/>
      <point x="190" y="554" type="curve" smooth="yes"/>
      <point x="190" y="518"/>
      <point x="191" y="482"/>
      <point x="195" y="450" type="curve" smooth="yes"/>
      <point x="197" y="429"/>
      <point x="197" y="398"/>
      <point x="215" y="386" type="curve" smooth="yes"/>
      <point x="222" y="381"/>
      <point x="230" y="379"/>
      <point x="238" y="379" type="curve" smooth="yes"/>
      <point x="246" y="379"/>
      <point x="255" y="381"/>
      <point x="264" y="385" type="curve" smooth="yes"/>
      <point x="270" y="387"/>
      <point x="276" y="408"/>
      <point x="276" y="424" type="curve" smooth="yes"/>
      <point x="276" y="428"/>
      <point x="276" y="431"/>
      <point x="275" y="434" type="curve" smooth="yes"/>
    </contour>
  </outline>
</glyph>
<glyph name="numbersign" format="1">
  <advance width="606"/>
  <unicode hex="0023"/>
  <outline>
    <contour>
      <point x="182" y="277" type="line"/>
      <point x="128" y="261"/>
      <point x="51" y="253"/>
      <point x="51" y="216" type="curve" smooth="yes"/>
      <point x="51" y="182"/>
      <point x="71" y="174"/>
      <point x="87" y="174" type="curve" smooth="yes"/>
      <point x="119" y="174"/>
      <point x="152" y="183"/>
      <point x="186" y="190" type="curve"/>
      <point x="207" y="157"/>
      <point x="215" y="118"/>
      <point x="258" y="118" type="curve" smooth="yes"/>
      <point x="279" y="118"/>
      <point x="294" y="133"/>
      <point x="294" y="160" type="curve" smooth="yes"/>
      <point x="294" y="177"/>
      <point x="287" y="193"/>
      <point x="282" y="216" type="curve"/>
      <point x="371" y="240" type="line"/>
      <point x="379" y="212"/>
      <point x="382" y="186"/>
      <point x="395" y="167" type="curve" smooth="yes"/>
      <point x="404" y="153"/>
      <point x="419" y="133"/>
      <point x="437" y="133" type="curve"/>
      <point x="469" y="138"/>
      <point x="472" y="167"/>
      <point x="472" y="195" type="curve" smooth="yes"/>
      <point x="472" y="219"/>
      <point x="465" y="243"/>
      <point x="462" y="268" type="curve"/>
      <point x="507" y="289"/>
      <point x="570" y="311"/>
      <point x="570" y="343" type="curve" smooth="yes"/>
      <point x="570" y="366"/>
      <point x="545" y="378"/>
      <point x="515" y="378" type="curve" smooth="yes"/>
      <point x="492" y="378"/>
      <point x="473" y="368"/>
      <point x="442" y="359" type="curve"/>
      <point x="424" y="496" type="line"/>
      <point x="488" y="514"/>
      <point x="570" y="525"/>
      <point x="570" y="569" type="curve" smooth="yes"/>
      <point x="570" y="602"/>
      <point x="551" y="611"/>
      <point x="534" y="611" type="curve" smooth="yes"/>
      <point x="503" y="611"/>
      <point x="457" y="597"/>
      <point x="417" y="587" type="curve"/>
      <point x="406" y="632"/>
      <point x="400" y="687"/>
      <point x="358" y="687" type="curve" smooth="yes"/>
      <point x="327" y="687"/>
      <point x="322" y="635"/>
      <point x="322" y="615" type="curve" smooth="yes"/>
      <point x="322" y="596"/>
      <point x="324" y="577"/>
      <point x="324" y="554" type="curve"/>
      <point x="295" y="545"/>
      <point x="264" y="534"/>
      <point x="230" y="523" type="curve"/>
      <point x="214" y="575"/>
      <point x="206" y="615"/>
      <point x="175" y="615" type="curve" smooth="yes"/>
      <point x="150" y="615"/>
      <point x="140" y="587"/>
      <point x="137" y="559" type="curve"/>
      <point x="137" y="538"/>
      <point x="143" y="518"/>
      <point x="148" y="494" type="curve"/>
      <point x="97" y="479"/>
      <point x="25" y="473"/>
      <point x="25" y="436" type="curve" smooth="yes"/>
      <point x="25" y="402"/>
      <point x="48" y="394"/>
      <point x="69" y="394" type="curve" smooth="yes"/>
      <point x="96" y="394"/>
      <point x="125" y="400"/>
      <point x="162" y="404" type="curve"/>
      <point x="168" y="362"/>
      <point x="174" y="324"/>
      <point x="182" y="277" type="curve"/>
    </contour>
    <contour>
      <point x="267" y="299" type="line"/>
      <point x="258" y="348"/>
      <point x="252" y="386"/>
      <point x="244" y="432" type="curve"/>
      <point x="338" y="468" type="line"/>
      <point x="345" y="420"/>
      <point x="352" y="380"/>
      <point x="360" y="332" type="curve"/>
    </contour>
  </outline>
</glyph>
<glyph name="dollar" format="1">
  <advance width="470"/>
  <unicode hex="0024"/>
  <outline>
    <contour>
      <point x="155" y="51" type="line"/>
      <point x="116" y="51"/>
      <point x="110" y="51"/>
      <point x="71" y="73" type="curve"/>
      <point x="61" y="77"/>
      <point x="51" y="82"/>
      <point x="42" y="82" type="curve" smooth="yes"/>
      <point x="27" y="82"/>
      <point x="13" y="63"/>
      <point x="13" y="50" type="curve" smooth="yes"/>
      <point x="13" y="-11"/>
      <point x="115" y="-20"/>
      <point x="158" y="-20" type="curve" smooth="yes"/>
      <point x="187" y="-20"/>
      <point x="223" y="-16"/>
      <point x="260" y="-10" type="curve"/>
      <point x="275" y="-57"/>
      <point x="297" y="-98"/>
      <point x="332" y="-98" type="curve" smooth="yes"/>
      <point x="355" y="-98"/>
      <point x="374" y="-85"/>
      <point x="374" y="-65" type="curve" smooth="yes"/>
      <point x="374" y="-54"/>
      <point x="370" y="-41"/>
      <point x="364" y="-37" type="curve" smooth="yes"/>
      <point x="350" y="-27"/>
      <point x="338" y="-12"/>
      <point x="330" y="6" type="curve"/>
      <point x="396" y="26"/>
      <point x="450" y="56"/>
      <point x="450" y="96" type="curve" smooth="yes"/>
      <point x="450" y="165"/>
      <point x="372" y="214"/>
      <point x="294" y="261" type="curve"/>
      <point x="287" y="341"/>
      <point x="281" y="421"/>
      <point x="275" y="501" type="curve"/>
      <point x="299" y="499"/>
      <point x="340" y="493"/>
      <point x="362" y="478" type="curve" smooth="yes"/>
      <point x="371" y="473"/>
      <point x="384" y="466"/>
      <point x="394" y="466" type="curve" smooth="yes"/>
      <point x="408" y="466"/>
      <point x="413" y="481"/>
      <point x="413" y="494" type="curve" smooth="yes"/>
      <point x="413" y="544"/>
      <point x="314" y="569"/>
      <point x="270" y="571" type="curve"/>
      <point x="270" y="586" type="line"/>
      <point x="268" y="613"/>
      <point x="274" y="645"/>
      <point x="236" y="645" type="curve" smooth="yes"/>
      <point x="204" y="645"/>
      <point x="201" y="617"/>
      <point x="201" y="576" type="curve" smooth="yes"/>
      <point x="201" y="561" type="line"/>
      <point x="133" y="542"/>
      <point x="65" y="494"/>
      <point x="65" y="412" type="curve" smooth="yes"/>
      <point x="65" y="343"/>
      <point x="143" y="287"/>
      <point x="224" y="235" type="curve"/>
      <point x="236" y="131" type="line"/>
      <point x="237" y="115"/>
      <point x="240" y="87"/>
      <point x="245" y="56" type="curve"/>
      <point x="211" y="52"/>
      <point x="178" y="51"/>
      <point x="155" y="51" type="curve" smooth="yes"/>
    </contour>
    <contour>
      <point x="137" y="414" type="line"/>
      <point x="137" y="454"/>
      <point x="169" y="478"/>
      <point x="202" y="491" type="curve"/>
      <point x="204" y="432"/>
      <point x="209" y="373"/>
      <point x="216" y="310" type="curve"/>
      <point x="170" y="342"/>
      <point x="137" y="374"/>
      <point x="137" y="414" type="curve" smooth="yes"/>
    </contour>
    <contour>
      <point x="386" y="108" type="line"/>
      <point x="377" y="89"/>
      <point x="348" y="77"/>
      <point x="313" y="68" type="curve"/>
      <point x="305" y="110"/>
      <point x="304" y="155"/>
      <point x="301" y="185" type="curve"/>
      <point x="337" y="160"/>
      <point x="368" y="134"/>
      <point x="386" y="108" type="curve"/>
    </contour>
  </outline>
</glyph>
<glyph name="percent" format="1">
  <advance width="682"/>
  <unicode hex="0025"/>
  <outline>
    <contour>
      <point x="268" y="619" type="line"/>
      <point x="263" y="645"/>
      <point x="232" y="667"/>
      <point x="199" y="667" type="curve" smooth="yes"/>
      <point x="117" y="667"/>
      <point x="17" y="576"/>
      <point x="17" y="495" type="curve" smooth="yes"/>
      <point x="17" y="452"/>
      <point x="43" y="427"/>
      <point x="91" y="427" type="curve" smooth="yes"/>
      <point x="172" y="427"/>
      <point x="241" y="484"/>
      <point x="263" y="559" type="curve"/>
      <point x="307" y="572"/>
      <point x="351" y="584"/>
      <point x="401" y="598" type="curve"/>
      <point x="371" y="420"/>
      <point x="328" y="236"/>
      <point x="328" y="51" type="curve" smooth="yes"/>
      <point x="328" y="20"/>
      <point x="331" y="-37"/>
      <point x="362" y="-37" type="curve" smooth="yes"/>
      <point x="374" y="-37"/>
      <point x="395" y="-12"/>
      <point x="395" y="-3" type="curve" smooth="yes"/>
      <point x="395" y="37"/>
      <point x="390" y="77"/>
      <point x="390" y="116" type="curve" smooth="yes"/>
      <point x="390" y="127"/>
      <point x="391" y="139"/>
      <point x="392" y="150" type="curve" smooth="yes"/>
      <point x="409" y="312"/>
      <point x="432" y="472"/>
      <point x="474" y="629" type="curve"/>
      <point x="475" y="637"/>
      <point x="479" y="647"/>
      <point x="479" y="655" type="curve" smooth="yes"/>
      <point x="479" y="676"/>
      <point x="469" y="689"/>
      <point x="451" y="689" type="curve" smooth="yes"/>
      <point x="433" y="689"/>
      <point x="418" y="675"/>
      <point x="403" y="669" type="curve" smooth="yes"/>
      <point x="358" y="652"/>
      <point x="313" y="635"/>
      <point x="268" y="619" type="curve"/>
    </contour>
    <contour>
      <point x="193" y="550" type="line"/>
      <point x="170" y="517"/>
      <point x="119" y="484"/>
      <point x="91" y="484" type="curve" smooth="yes"/>
      <point x="82" y="484"/>
      <point x="75" y="487"/>
      <point x="75" y="496" type="curve" smooth="yes"/>
      <point x="75" y="514"/>
      <point x="99" y="549"/>
      <point x="120" y="566" type="curve"/>
    </contour>
    <contour>
      <point x="662" y="205" type="line"/>
      <point x="662" y="243"/>
      <point x="616" y="279"/>
      <point x="566" y="282" type="curve"/>
      <point x="524" y="282"/>
      <point x="503" y="268"/>
      <point x="481" y="216" type="curve" smooth="yes"/>
      <point x="473" y="197"/>
      <point x="469" y="179"/>
      <point x="469" y="164" type="curve" smooth="yes"/>
      <point x="469" y="123"/>
      <point x="505" y="93"/>
      <point x="545" y="93" type="curve" smooth="yes"/>
      <point x="601" y="93"/>
      <point x="662" y="147"/>
      <point x="662" y="205" type="curve" smooth="yes"/>
    </contour>
    <contour>
      <point x="605" y="197" type="line"/>
      <point x="584" y="171"/>
      <point x="575" y="160"/>
      <point x="536" y="157" type="curve" smooth="yes"/>
      <point x="534" y="157"/>
      <point x="529" y="167"/>
      <point x="529" y="173" type="curve" smooth="yes"/>
      <point x="529" y="191"/>
      <point x="550" y="217"/>
      <point x="567" y="217" type="curve" smooth="yes"/>
      <point x="585" y="217"/>
      <point x="597" y="217"/>
      <point x="605" y="197" type="curve"/>
    </contour>
  </outline>
</glyph>
<glyph name="ampersand" format="1">
  <advance width="718"/>
  <unicode hex="0026"/>
  <outline>
    <contour>
      <point x="591" y="-65" type="line"/>
      <point x="619" y="-80"/>
      <point x="639" y="-86"/>
      <point x="653" y="-86" type="curve" smooth="yes"/>
      <point x="669" y="-86"/>
      <point x="689" y="-68"/>
      <point x="689" y="-50" type="curve" smooth="yes"/>
      <point x="689" y="-41"/>
      <point x="679" y="-32"/>
      <point x="647" y="-18" type="curve" smooth="yes"/>
      <point x="581" y="11"/>
      <point x="499" y="50"/>
      <point x="448" y="107" type="curve"/>
      <point x="473" y="129"/>
      <point x="519" y="160"/>
      <point x="530" y="180" type="curve"/>
      <point x="544" y="195"/>
      <point x="558" y="239"/>
      <point x="558" y="259" type="curve" smooth="yes"/>
      <point x="558" y="273"/>
      <point x="537" y="284"/>
      <point x="523" y="284" type="curve" smooth="yes"/>
      <point x="516" y="284"/>
      <point x="509" y="281"/>
      <point x="503" y="273" type="curve" smooth="yes"/>
      <point x="484" y="250"/>
      <point x="502" y="263"/>
      <point x="472" y="211" type="curve" smooth="yes"/>
      <point x="465" y="199"/>
      <point x="417" y="166"/>
      <point x="396" y="151" type="curve"/>
      <point x="350" y="191"/>
      <point x="309" y="225"/>
      <point x="270" y="272" type="curve"/>
      <point x="341" y="319"/>
      <point x="461" y="440"/>
      <point x="461" y="534" type="curve" smooth="yes"/>
      <point x="461" y="611"/>
      <point x="410" y="647"/>
      <point x="346" y="647" type="curve" smooth="yes"/>
      <point x="240" y="647"/>
      <point x="128" y="558"/>
      <point x="128" y="450" type="curve" smooth="yes"/>
      <point x="128" y="436"/>
      <point x="125" y="411"/>
      <point x="125" y="382" type="curve" smooth="yes"/>
      <point x="125" y="343"/>
      <point x="131" y="298"/>
      <point x="156" y="274" type="curve"/>
      <point x="81" y="235"/>
      <point x="27" y="196"/>
      <point x="27" y="115" type="curve" smooth="yes"/>
      <point x="27" y="52"/>
      <point x="73" y="-15"/>
      <point x="168" y="-15" type="curve" smooth="yes"/>
      <point x="242" y="-15"/>
      <point x="307" y="6"/>
      <point x="384" y="56" type="curve"/>
      <point x="438" y="1"/>
      <point x="530" y="-33"/>
      <point x="591" y="-65" type="curve" smooth="yes"/>
    </contour>
    <contour>
      <point x="175" y="72" type="line"/>
      <point x="135" y="72"/>
      <point x="107" y="87"/>
      <point x="107" y="128" type="curve" smooth="yes"/>
      <point x="107" y="188"/>
      <point x="186" y="209"/>
      <point x="206" y="214" type="curve"/>
      <point x="226" y="192"/>
      <point x="274" y="150"/>
      <point x="333" y="112" type="curve"/>
      <point x="271" y="80"/>
      <point x="228" y="72"/>
      <point x="175" y="72" type="curve" smooth="yes"/>
    </contour>
    <contour>
      <point x="382" y="527" type="line"/>
      <point x="382" y="466"/>
      <point x="274" y="334"/>
      <point x="218" y="321" type="curve"/>
      <point x="202" y="321"/>
      <point x="196" y="348"/>
      <point x="196" y="379" type="curve" smooth="yes"/>
      <point x="196" y="416"/>
      <point x="204" y="460"/>
      <point x="208" y="472" type="curve" smooth="yes"/>
      <point x="226" y="526"/>
      <point x="253" y="584"/>
      <point x="314" y="584" type="curve" smooth="yes"/>
      <point x="348" y="584"/>
      <point x="382" y="564"/>
      <point x="382" y="527" type="curve" smooth="yes"/>
    </contour>
  </outline>
</glyph>
<glyph name="quotesingle" format="1">
  <advance width="152"/>
  <unicode hex="0027"/>
  <outline>
    <contour>
      <point x="121" y="434" type="line"/>
      <point x="114" y="462"/>
      <point x="112" y="491"/>
      <point x="112" y="521" type="curve" smooth="yes"/>
      <point x="112" y="545"/>
      <point x="114" y="569"/>
      <point x="115" y="594" type="curve" smooth="yes"/>
      <point x="116" y="603"/>
      <point x="116" y="626"/>
      <point x="116" y="635" type="curve" smooth="yes"/>
      <point x="116" y="650"/>
      <point x="111" y="662"/>
      <point x="91" y="668" type="curve" smooth="yes"/>
      <point x="86" y="669"/>
      <point x="82" y="670"/>
      <point x="78" y="670" type="curve" smooth="yes"/>
      <point x="52" y="670"/>
      <point x="40" y="646"/>
      <point x="38" y="623" type="curve" smooth="yes"/>
      <point x="36" y="602"/>
      <point x="36" y="578"/>
      <point x="36" y="554" type="curve" smooth="yes"/>
      <point x="36" y="518"/>
      <point x="37" y="482"/>
      <point x="41" y="450" type="curve" smooth="yes"/>
      <point x="43" y="429"/>
      <point x="43" y="398"/>
      <point x="61" y="386" type="curve" smooth="yes"/>
      <point x="68" y="381"/>
      <point x="76" y="379"/>
      <point x="84" y="379" type="curve" smooth="yes"/>
      <point x="92" y="379"/>
      <point x="101" y="381"/>
      <point x="110" y="385" type="curve" smooth="yes"/>
      <point x="116" y="387"/>
      <point x="122" y="408"/>
      <point x="122" y="424" type="curve" smooth="yes"/>
      <point x="122" y="428"/>
      <point x="122" y="431"/>
      <point x="121" y="434" type="curve" smooth="yes"/>
    </contour>
  </outline>
</glyph>
<glyph name="parenleft" format="1">
  <advance width="418"/>
  <unicode hex="0028"/>
  <outline>
    <contour>
      <point x="26" y="256" type="line"/>
      <point x="26" y="119"/>
      <point x="103" y="-131"/>
      <point x="317" y="-131" type="curve" smooth="yes"/>
      <point x="352" y="-131"/>
      <point x="378" y="-117"/>
      <point x="378" y="-94" type="curve" smooth="yes"/>
      <point x="378" y="-57"/>
      <point x="343" y="-52"/>
      <point x="314" y="-48" type="curve" smooth="yes"/>
      <point x="221" y="-35"/>
      <point x="165" y="21"/>
      <point x="141" y="108" type="curve" smooth="yes"/>
      <point x="123" y="174"/>
      <point x="109" y="240"/>
      <point x="109" y="304" type="curve" smooth="yes"/>
      <point x="109" y="393"/>
      <point x="136" y="478"/>
      <point x="215" y="554" type="curve" smooth="yes"/>
      <point x="227" y="565"/>
      <point x="235" y="580"/>
      <point x="235" y="595" type="curve" smooth="yes"/>
      <point x="235" y="617"/>
      <point x="211" y="641"/>
      <point x="190" y="641" type="curve" smooth="yes"/>
      <point x="177" y="641"/>
      <point x="162" y="632"/>
      <point x="150" y="621" type="curve" smooth="yes"/>
      <point x="59" y="537"/>
      <point x="27" y="408"/>
      <point x="26" y="256" type="curve" smooth="yes"/>
    </contour>
  </outline>
</glyph>
<glyph name="parenright" format="1">
  <advance width="430"/>
  <unicode hex="0029"/>
  <outline>
    <contour>
      <point x="353" y="297" type="line"/>
      <point x="353" y="470"/>
      <point x="286" y="596"/>
      <point x="174" y="703" type="curve" smooth="yes"/>
      <point x="163" y="713"/>
      <point x="151" y="721"/>
      <point x="139" y="721" type="curve" smooth="yes"/>
      <point x="122" y="721"/>
      <point x="111" y="705"/>
      <point x="111" y="678" type="curve" smooth="yes"/>
      <point x="111" y="642"/>
      <point x="129" y="634"/>
      <point x="150" y="612" type="curve" smooth="yes"/>
      <point x="227" y="529"/>
      <point x="267" y="429"/>
      <point x="267" y="317" type="curve" smooth="yes"/>
      <point x="267" y="166"/>
      <point x="212" y="38"/>
      <point x="124" y="-79" type="curve" smooth="yes"/>
      <point x="99" y="-113"/>
      <point x="52" y="-154"/>
      <point x="52" y="-185" type="curve" smooth="yes"/>
      <point x="52" y="-195"/>
      <point x="60" y="-213"/>
      <point x="79" y="-213" type="curve" smooth="yes"/>
      <point x="101" y="-213"/>
      <point x="127" y="-202"/>
      <point x="143" y="-185" type="curve" smooth="yes"/>
      <point x="271" y="-51"/>
      <point x="341" y="111"/>
      <point x="353" y="297" type="curve"/>
    </contour>
  </outline>
</glyph>
<glyph name="asterisk" format="1">
  <advance width="582"/>
  <unicode hex="002A"/>
  <outline>
    <contour>
      <point x="287" y="495" type="line"/>
      <point x="228" y="538"/>
      <point x="180" y="583"/>
      <point x="146" y="583" type="curve" smooth="yes"/>
      <point x="133" y="583"/>
      <point x="107" y="568"/>
      <point x="107" y="541" type="curve" smooth="yes"/>
      <point x="107" y="522"/>
      <point x="125" y="511"/>
      <point x="144" y="499" type="curve" smooth="yes"/>
      <point x="162" y="487"/>
      <point x="177" y="470"/>
      <point x="201" y="449" type="curve"/>
      <point x="123" y="426"/>
      <point x="27" y="414"/>
      <point x="27" y="366" type="curve" smooth="yes"/>
      <point x="27" y="331"/>
      <point x="52" y="323"/>
      <point x="74" y="323" type="curve" smooth="yes"/>
      <point x="115" y="323"/>
      <point x="152" y="357"/>
      <point x="194" y="357" type="curve" smooth="yes"/>
      <point x="203" y="357"/>
      <point x="212" y="356"/>
      <point x="222" y="351" type="curve"/>
      <point x="206" y="310"/>
      <point x="183" y="266"/>
      <point x="183" y="235" type="curve" smooth="yes"/>
      <point x="183" y="220"/>
      <point x="193" y="196"/>
      <point x="226" y="196" type="curve" smooth="yes"/>
      <point x="267" y="196"/>
      <point x="293" y="301"/>
      <point x="323" y="358" type="curve"/>
      <point x="362" y="338" type="line" smooth="yes"/>
      <point x="391" y="324"/>
      <point x="438" y="291"/>
      <point x="470" y="291" type="curve" smooth="yes"/>
      <point x="490" y="291"/>
      <point x="511" y="305"/>
      <point x="511" y="320" type="curve" smooth="yes"/>
      <point x="511" y="360"/>
      <point x="483" y="370"/>
      <point x="436" y="400" type="curve"/>
      <point x="490" y="411"/>
      <point x="543" y="413"/>
      <point x="543" y="454" type="curve" smooth="yes"/>
      <point x="543" y="488"/>
      <point x="519" y="493"/>
      <point x="497" y="493" type="curve" smooth="yes"/>
      <point x="458" y="493"/>
      <point x="419" y="489"/>
      <point x="376" y="487" type="curve"/>
      <point x="388" y="546"/>
      <point x="399" y="593"/>
      <point x="408" y="640" type="curve" smooth="yes"/>
      <point x="409" y="646"/>
      <point x="410" y="653"/>
      <point x="410" y="659" type="curve" smooth="yes"/>
      <point x="410" y="678"/>
      <point x="401" y="697"/>
      <point x="372" y="697" type="curve" smooth="yes"/>
      <point x="347" y="697"/>
      <point x="338" y="676"/>
      <point x="332" y="653" type="curve" smooth="yes"/>
      <point x="319" y="604"/>
      <point x="304" y="556"/>
      <point x="287" y="495" type="curve"/>
    </contour>
  </outline>
</glyph>
<glyph name="plus" format="1">
  <advance width="480"/>
  <unicode hex="002B"/>
  <outline>
    <contour>
      <point x="277" y="389" type="line"/>
      <point x="277" y="468" type="line" smooth="yes"/>
      <point x="277" y="509"/>
      <point x="268" y="556"/>
      <point x="231" y="556" type="curve" smooth="yes"/>
      <point x="197" y="556"/>
      <point x="189" y="510"/>
      <point x="189" y="463" type="curve" smooth="yes"/>
      <point x="189" y="441"/>
      <point x="191" y="419"/>
      <point x="192" y="401" type="curve" smooth="yes"/>
      <point x="192" y="385" type="line"/>
      <point x="67" y="376" type="line" smooth="yes"/>
      <point x="44" y="374"/>
      <point x="21" y="365"/>
      <point x="21" y="342" type="curve" smooth="yes"/>
      <point x="21" y="318"/>
      <point x="42" y="298"/>
      <point x="65" y="298" type="curve"/>
      <point x="118" y="298" type="line"/>
      <point x="152" y="298"/>
      <point x="175" y="298"/>
      <point x="196" y="297" type="curve"/>
      <point x="196" y="237" type="line" smooth="yes"/>
      <point x="196" y="217"/>
      <point x="196" y="192"/>
      <point x="197" y="175" type="curve" smooth="yes"/>
      <point x="199" y="152"/>
      <point x="208" y="129"/>
      <point x="231" y="129" type="curve" smooth="yes"/>
      <point x="255" y="129"/>
      <point x="278" y="166"/>
      <point x="278" y="189" type="curve" smooth="yes"/>
      <point x="278" y="201"/>
      <point x="281" y="230"/>
      <point x="281" y="242" type="curve" smooth="yes"/>
      <point x="281" y="264"/>
      <point x="281" y="281"/>
      <point x="280" y="296" type="curve"/>
      <point x="354" y="296" type="line" smooth="yes"/>
      <point x="395" y="296"/>
      <point x="454" y="302"/>
      <point x="454" y="339" type="curve" smooth="yes"/>
      <point x="454" y="389"/>
      <point x="348" y="389"/>
      <point x="291" y="389" type="curve"/>
    </contour>
  </outline>
</glyph>
<glyph name="comma" format="1">
  <advance width="203"/>
  <unicode hex="002C"/>
  <outline>
    <contour>
      <point x="181" y="48" type="line"/>
      <point x="181" y="64"/>
      <point x="151" y="135"/>
      <point x="117" y="135" type="curve" smooth="yes"/>
      <point x="96" y="135"/>
      <point x="81" y="121"/>
      <point x="81" y="98" type="curve" smooth="yes"/>
      <point x="81" y="95"/>
      <point x="82" y="93"/>
      <point x="83" y="91" type="curve" smooth="yes"/>
      <point x="94" y="69"/>
      <point x="98" y="48"/>
      <point x="98" y="28" type="curve" smooth="yes"/>
      <point x="98" y="-31"/>
      <point x="79" y="-30"/>
      <point x="54" y="-83" type="curve" smooth="yes"/>
      <point x="44" y="-104"/>
      <point x="21" y="-119"/>
      <point x="21" y="-142" type="curve" smooth="yes"/>
      <point x="21" y="-167"/>
      <point x="43" y="-178"/>
      <point x="62" y="-178" type="curve" smooth="yes"/>
      <point x="65" y="-178"/>
      <point x="68" y="-178"/>
      <point x="70" y="-177" type="curve" smooth="yes"/>
      <point x="145" y="-146"/>
      <point x="181" y="-64"/>
      <point x="181" y="48" type="curve" smooth="yes"/>
    </contour>
  </outline>
</glyph>
<glyph name="hyphen" format="1">
  <advance width="538"/>
  <unicode hex="002D"/>
  <outline>
    <contour>
      <point x="326" y="299" type="line"/>
      <point x="272" y="299"/>
      <point x="165" y="290"/>
      <point x="108" y="286" type="curve" smooth="yes"/>
      <point x="85" y="284"/>
      <point x="62" y="275"/>
      <point x="62" y="252" type="curve" smooth="yes"/>
      <point x="62" y="228"/>
      <point x="99" y="205"/>
      <point x="122" y="205" type="curve" smooth="yes"/>
      <point x="134" y="205"/>
      <point x="147" y="208"/>
      <point x="159" y="208" type="curve" smooth="yes"/>
      <point x="261" y="208"/>
      <point x="272" y="206"/>
      <point x="374" y="206" type="curve" smooth="yes"/>
      <point x="395" y="206" type="line" smooth="yes"/>
      <point x="436" y="206"/>
      <point x="481" y="209"/>
      <point x="481" y="246" type="curve" smooth="yes"/>
      <point x="481" y="298"/>
      <point x="381" y="299"/>
      <point x="326" y="299" type="curve" smooth="yes"/>
    </contour>
  </outline>
</glyph>
<glyph name="period" format="1">
  <advance width="134"/>
  <unicode hex="002E"/>
  <outline>
    <contour>
      <point x="107" y="34" type="line"/>
      <point x="107" y="71"/>
      <point x="67" y="86"/>
      <point x="53" y="86" type="curve" smooth="yes"/>
      <point x="27" y="86"/>
      <point x="8" y="53"/>
      <point x="8" y="29" type="curve" smooth="yes"/>
      <point x="8" y="7"/>
      <point x="29" y="-16"/>
      <point x="51" y="-16" type="curve" smooth="yes"/>
      <point x="62" y="-16"/>
      <point x="107" y="-4"/>
      <point x="107" y="34" type="curve" smooth="yes"/>
    </contour>
  </outline>
</glyph>
<glyph name="slash" format="1">
  <advance width="364"/>
  <unicode hex="002F"/>
  <outline>
    <contour>
      <point x="325" y="556" type="line"/>
      <point x="331" y="580"/>
      <point x="344" y="601"/>
      <point x="344" y="618" type="curve" smooth="yes"/>
      <point x="344" y="644"/>
      <point x="332" y="665"/>
      <point x="301" y="665" type="curve" smooth="yes"/>
      <point x="276" y="665"/>
      <point x="272" y="638"/>
      <point x="265" y="615" type="curve" smooth="yes"/>
      <point x="208" y="441"/>
      <point x="103" y="115"/>
      <point x="40" y="-54" type="curve"/>
      <point x="26" y="-83"/>
      <point x="5" y="-119"/>
      <point x="5" y="-151" type="curve" smooth="yes"/>
      <point x="5" y="-171"/>
      <point x="5" y="-185"/>
      <point x="29" y="-185" type="curve" smooth="yes"/>
      <point x="93" y="-185"/>
      <point x="128" y="-42"/>
      <point x="152" y="18" type="curve" smooth="yes"/>
      <point x="208" y="163"/>
      <point x="292" y="431"/>
      <point x="325" y="556" type="curve" smooth="yes"/>
    </contour>
  </outline>
</glyph>
<glyph name="zero" format="1">
  <advance width="499"/>
  <unicode hex="0030"/>
  <outline>
    <contour>
      <point x="479" y="307" type="line"/>
      <point x="479" y="462"/>
      <point x="381" y="637"/>
      <point x="285" y="637" type="curve" smooth="yes"/>
      <point x="268" y="637"/>
      <point x="251" y="634"/>
      <point x="235" y="627" type="curve" smooth="yes"/>
      <point x="115" y="578"/>
      <point x="45" y="438"/>
      <point x="45" y="286" type="curve" smooth="yes"/>
      <point x="45" y="133"/>
      <point x="128" y="40"/>
      <point x="230" y="40" type="curve" smooth="yes"/>
      <point x="261" y="40"/>
      <point x="294" y="48"/>
      <point x="327" y="66" type="curve" smooth="yes"/>
      <point x="432" y="122"/>
      <point x="475" y="215"/>
      <point x="479" y="307" type="curve"/>
    </contour>
    <contour>
      <point x="129" y="274" type="line"/>
      <point x="137" y="373"/>
      <point x="154" y="448"/>
      <point x="206" y="510" type="curve" smooth="yes"/>
      <point x="230" y="539"/>
      <point x="250" y="554"/>
      <point x="269" y="554" type="curve" smooth="yes"/>
      <point x="321" y="554"/>
      <point x="396" y="413"/>
      <point x="396" y="330" type="curve" smooth="yes"/>
      <point x="396" y="252"/>
      <point x="337" y="125"/>
      <point x="229" y="125" type="curve" smooth="yes"/>
      <point x="152" y="125"/>
      <point x="140" y="232"/>
      <point x="129" y="274" type="curve"/>
    </contour>
  </outline>
</glyph>
<glyph name="one" format="1">
  <advance width="263"/>
  <unicode hex="0031"/>
  <outline>
    <contour>
      <point x="51" y="604" type="line"/>
      <point x="51" y="475"/>
      <point x="60" y="348"/>
      <point x="78" y="194" type="curve" smooth="yes"/>
      <point x="86" y="125"/>
      <point x="125" y="31"/>
      <point x="199" y="31" type="curve" smooth="yes"/>
      <point x="222" y="31"/>
      <point x="241" y="44"/>
      <point x="241" y="64" type="curve" smooth="yes"/>
      <point x="241" y="75"/>
      <point x="237" y="88"/>
      <point x="231" y="92" type="curve" smooth="yes"/>
      <point x="175" y="130"/>
      <point x="167" y="188"/>
      <point x="162" y="247" type="curve" smooth="yes"/>
      <point x="150" y="379"/>
      <point x="139" y="512"/>
      <point x="131" y="645" type="curve" smooth="yes"/>
      <point x="129" y="672"/>
      <point x="135" y="704"/>
      <point x="97" y="704" type="curve" smooth="yes"/>
      <point x="57" y="704"/>
      <point x="51" y="662"/>
      <point x="51" y="604" type="curve" smooth="yes"/>
    </contour>
  </outline>
</glyph>
<glyph name="two" format="1">
  <advance width="505"/>
  <unicode hex="0032"/>
  <outline>
    <contour>
      <point x="204" y="82" type="line"/>
      <point x="241" y="239"/>
      <point x="307" y="373"/>
      <point x="307" y="537" type="curve" smooth="yes"/>
      <point x="307" y="621"/>
      <point x="295" y="672"/>
      <point x="228" y="672" type="curve" smooth="yes"/>
      <point x="141" y="672"/>
      <point x="30" y="543"/>
      <point x="30" y="462" type="curve" smooth="yes"/>
      <point x="30" y="438"/>
      <point x="39" y="414"/>
      <point x="73" y="414" type="curve" smooth="yes"/>
      <point x="94" y="414"/>
      <point x="109" y="440"/>
      <point x="109" y="460" type="curve"/>
      <point x="122" y="514"/>
      <point x="190" y="585"/>
      <point x="220" y="585" type="curve" smooth="yes"/>
      <point x="229" y="585"/>
      <point x="231" y="578"/>
      <point x="231" y="568" type="curve" smooth="yes"/>
      <point x="231" y="490"/>
      <point x="213" y="412"/>
      <point x="188" y="328" type="curve" smooth="yes"/>
      <point x="165" y="249"/>
      <point x="118" y="149"/>
      <point x="118" y="77" type="curve" smooth="yes"/>
      <point x="118" y="22"/>
      <point x="153" y="-3"/>
      <point x="245" y="-3" type="curve" smooth="yes"/>
      <point x="309" y="-3"/>
      <point x="374" y="2"/>
      <point x="438" y="7" type="curve" smooth="yes"/>
      <point x="470" y="9"/>
      <point x="491" y="37"/>
      <point x="491" y="61" type="curve" smooth="yes"/>
      <point x="491" y="86"/>
      <point x="453" y="88"/>
      <point x="429" y="88" type="curve" smooth="yes"/>
      <point x="417" y="88" type="line" smooth="yes"/>
      <point x="347" y="88"/>
      <point x="284" y="85"/>
      <point x="204" y="82" type="curve"/>
    </contour>
  </outline>
</glyph>
<glyph name="three" format="1">
  <advance width="604"/>
  <unicode hex="0033"/>
  <outline>
    <contour>
      <point x="255" y="405" type="line"/>
      <point x="344" y="446"/>
      <point x="428" y="459"/>
      <point x="428" y="561" type="curve" smooth="yes"/>
      <point x="428" y="637"/>
      <point x="341" y="669"/>
      <point x="252" y="669" type="curve" smooth="yes"/>
      <point x="183" y="669"/>
      <point x="23" y="630"/>
      <point x="23" y="576" type="curve" smooth="yes"/>
      <point x="23" y="553"/>
      <point x="42" y="534"/>
      <point x="68" y="534" type="curve" smooth="yes"/>
      <point x="79" y="534"/>
      <point x="90" y="537"/>
      <point x="99" y="545" type="curve" smooth="yes"/>
      <point x="140" y="583"/>
      <point x="187" y="592"/>
      <point x="236" y="592" type="curve" smooth="yes"/>
      <point x="283" y="592"/>
      <point x="341" y="583"/>
      <point x="341" y="555" type="curve" smooth="yes"/>
      <point x="341" y="503"/>
      <point x="186" y="456"/>
      <point x="105" y="401" type="curve" smooth="yes"/>
      <point x="88" y="389"/>
      <point x="70" y="375"/>
      <point x="70" y="356" type="curve" smooth="yes"/>
      <point x="70" y="321"/>
      <point x="96" y="314"/>
      <point x="117" y="314" type="curve" smooth="yes"/>
      <point x="149" y="314"/>
      <point x="183" y="322"/>
      <point x="216" y="322" type="curve" smooth="yes"/>
      <point x="313" y="322"/>
      <point x="497" y="308"/>
      <point x="497" y="234" type="curve" smooth="yes"/>
      <point x="497" y="138"/>
      <point x="295" y="59"/>
      <point x="172" y="59" type="curve" smooth="yes"/>
      <point x="138" y="59"/>
      <point x="131" y="71"/>
      <point x="108" y="120" type="curve"/>
      <point x="102" y="130"/>
      <point x="89" y="143"/>
      <point x="79" y="143" type="curve" smooth="yes"/>
      <point x="51" y="143"/>
      <point x="37" y="104"/>
      <point x="37" y="82" type="curve" smooth="yes"/>
      <point x="37" y="15"/>
      <point x="124" y="-13"/>
      <point x="184" y="-13" type="curve" smooth="yes"/>
      <point x="338" y="-13"/>
      <point x="575" y="86"/>
      <point x="575" y="239" type="curve" smooth="yes"/>
      <point x="575" y="362"/>
      <point x="394" y="386"/>
      <point x="255" y="405" type="curve"/>
    </contour>
  </outline>
</glyph>
<glyph name="four" format="1">
  <advance width="533"/>
  <unicode hex="0034"/>
  <outline>
    <contour>
      <point x="127" y="392" type="line"/>
      <point x="129" y="434"/>
      <point x="130" y="470"/>
      <point x="133" y="507" type="curve" smooth="yes"/>
      <point x="135" y="539"/>
      <point x="144" y="570"/>
      <point x="144" y="602" type="curve" smooth="yes"/>
      <point x="144" y="622"/>
      <point x="124" y="633"/>
      <point x="114" y="633" type="curve" smooth="yes"/>
      <point x="101" y="633"/>
      <point x="87" y="629"/>
      <point x="81" y="622" type="curve" smooth="yes"/>
      <point x="58" y="595"/>
      <point x="38" y="452"/>
      <point x="38" y="380" type="curve" smooth="yes"/>
      <point x="38" y="328"/>
      <point x="60" y="305"/>
      <point x="110" y="305" type="curve" smooth="yes"/>
      <point x="121" y="305"/>
      <point x="134" y="306"/>
      <point x="148" y="308" type="curve" smooth="yes"/>
      <point x="368" y="345" type="line"/>
      <point x="379" y="275"/>
      <point x="391" y="209"/>
      <point x="402" y="144" type="curve"/>
      <point x="402" y="112"/>
      <point x="418" y="44"/>
      <point x="463" y="44" type="curve" smooth="yes"/>
      <point x="480" y="44"/>
      <point x="497" y="77"/>
      <point x="497" y="93" type="curve"/>
      <point x="496" y="105"/>
      <point x="492" y="119"/>
      <point x="490" y="132" type="curve" smooth="yes"/>
      <point x="464" y="288"/>
      <point x="455" y="436"/>
      <point x="442" y="587" type="curve" smooth="yes"/>
      <point x="440" y="616"/>
      <point x="437" y="650"/>
      <point x="399" y="650" type="curve" smooth="yes"/>
      <point x="351" y="650"/>
      <point x="351" y="605"/>
      <point x="351" y="566" type="curve" smooth="yes"/>
      <point x="351" y="538"/>
      <point x="353" y="509"/>
      <point x="353" y="481" type="curve" smooth="yes"/>
      <point x="353" y="447"/>
      <point x="339" y="426"/>
      <point x="303" y="421" type="curve" smooth="yes"/>
      <point x="247" y="413"/>
      <point x="192" y="402"/>
      <point x="127" y="392" type="curve"/>
    </contour>
  </outline>
</glyph>
<glyph name="five" format="1">
  <advance width="523"/>
  <unicode hex="0035"/>
  <outline>
    <contour>
      <point x="155" y="542" type="line"/>
      <point x="224" y="556"/>
      <point x="354" y="566"/>
      <point x="354" y="609" type="curve" smooth="yes"/>
      <point x="354" y="631"/>
      <point x="328" y="647"/>
      <point x="300" y="647" type="curve" smooth="yes"/>
      <point x="244" y="647"/>
      <point x="188" y="639"/>
      <point x="132" y="636" type="curve" smooth="yes"/>
      <point x="93" y="634"/>
      <point x="73" y="611"/>
      <point x="69" y="576" type="curve" smooth="yes"/>
      <point x="58" y="480"/>
      <point x="48" y="384"/>
      <point x="40" y="288" type="curve" smooth="yes"/>
      <point x="40" y="285"/>
      <point x="39" y="281"/>
      <point x="39" y="278" type="curve" smooth="yes"/>
      <point x="39" y="244"/>
      <point x="57" y="225"/>
      <point x="88" y="225" type="curve" smooth="yes"/>
      <point x="117" y="225"/>
      <point x="142" y="241"/>
      <point x="170" y="248" type="curve" smooth="yes"/>
      <point x="223" y="261"/>
      <point x="276" y="266"/>
      <point x="328" y="268" type="curve"/>
      <point x="363" y="267"/>
      <point x="399" y="249"/>
      <point x="399" y="209" type="curve" smooth="yes"/>
      <point x="399" y="132"/>
      <point x="317" y="84"/>
      <point x="275" y="84" type="curve" smooth="yes"/>
      <point x="244" y="84"/>
      <point x="212" y="99"/>
      <point x="179" y="129" type="curve" smooth="yes"/>
      <point x="166" y="140"/>
      <point x="152" y="151"/>
      <point x="139" y="151" type="curve" smooth="yes"/>
      <point x="127" y="151"/>
      <point x="109" y="141"/>
      <point x="109" y="111" type="curve" smooth="yes"/>
      <point x="109" y="100"/>
      <point x="111" y="89"/>
      <point x="116" y="82" type="curve"/>
      <point x="145" y="28"/>
      <point x="191" y="-4"/>
      <point x="253" y="-4" type="curve" smooth="yes"/>
      <point x="365" y="-4"/>
      <point x="489" y="93"/>
      <point x="489" y="195" type="curve" smooth="yes"/>
      <point x="489" y="311"/>
      <point x="403" y="351"/>
      <point x="310" y="351" type="curve" smooth="yes"/>
      <point x="252" y="351"/>
      <point x="202" y="347"/>
      <point x="136" y="335" type="curve"/>
      <point x="142" y="409"/>
      <point x="149" y="474"/>
      <point x="155" y="542" type="curve"/>
    </contour>
  </outline>
</glyph>
<glyph name="six" format="1">
  <advance width="533"/>
  <unicode hex="0036"/>
  <outline>
    <contour>
      <point x="130" y="245" type="line"/>
      <point x="124" y="288"/>
      <point x="115" y="325"/>
      <point x="115" y="360" type="curve" smooth="yes"/>
      <point x="115" y="447"/>
      <point x="161" y="575"/>
      <point x="261" y="575" type="curve" smooth="yes"/>
      <point x="275" y="575"/>
      <point x="289" y="570"/>
      <point x="304" y="570" type="curve" smooth="yes"/>
      <point x="320" y="570"/>
      <point x="331" y="590"/>
      <point x="331" y="598" type="curve" smooth="yes"/>
      <point x="331" y="612"/>
      <point x="326" y="630"/>
      <point x="318" y="634" type="curve"/>
      <point x="293" y="643"/>
      <point x="265" y="653"/>
      <point x="239" y="653" type="curve" smooth="yes"/>
      <point x="100" y="653"/>
      <point x="28" y="477"/>
      <point x="28" y="367" type="curve" smooth="yes"/>
      <point x="28" y="281"/>
      <point x="37" y="216"/>
      <point x="86" y="140" type="curve" smooth="yes"/>
      <point x="127" y="76"/>
      <point x="188" y="37"/>
      <point x="302" y="37" type="curve" smooth="yes"/>
      <point x="412" y="37"/>
      <point x="493" y="119"/>
      <point x="493" y="210" type="curve" smooth="yes"/>
      <point x="493" y="301"/>
      <point x="418" y="359"/>
      <point x="344" y="359" type="curve" smooth="yes"/>
      <point x="269" y="359"/>
      <point x="219" y="307"/>
      <point x="130" y="245" type="curve"/>
    </contour>
    <contour>
      <point x="201" y="170" type="line"/>
      <point x="226" y="224"/>
      <point x="296" y="273"/>
      <point x="343" y="273" type="curve" smooth="yes"/>
      <point x="375" y="273"/>
      <point x="407" y="247"/>
      <point x="407" y="209" type="curve" smooth="yes"/>
      <point x="407" y="167"/>
      <point x="363" y="124"/>
      <point x="309" y="124" type="curve" smooth="yes"/>
      <point x="275" y="124"/>
      <point x="238" y="139"/>
      <point x="201" y="170" type="curve"/>
    </contour>
  </outline>
</glyph>
<glyph name="seven" format="1">
  <advance width="483"/>
  <unicode hex="0037"/>
  <outline>
    <contour>
      <point x="379" y="590" type="line"/>
      <point x="365" y="442"/>
      <point x="344" y="298"/>
      <point x="330" y="151" type="curve" smooth="yes"/>
      <point x="329" y="144"/>
      <point x="329" y="136"/>
      <point x="329" y="129" type="curve" smooth="yes"/>
      <point x="329" y="86"/>
      <point x="331" y="14"/>
      <point x="375" y="14" type="curve" smooth="yes"/>
      <point x="403" y="14"/>
      <point x="410" y="33"/>
      <point x="410" y="53" type="curve" smooth="yes"/>
      <point x="410" y="84"/>
      <point x="406" y="114"/>
      <point x="406" y="145" type="curve" smooth="yes"/>
      <point x="406" y="268"/>
      <point x="428" y="389"/>
      <point x="446" y="511" type="curve" smooth="yes"/>
      <point x="450" y="537"/>
      <point x="455" y="564"/>
      <point x="455" y="591" type="curve" smooth="yes"/>
      <point x="455" y="645"/>
      <point x="434" y="667"/>
      <point x="383" y="667" type="curve" smooth="yes"/>
      <point x="377" y="667"/>
      <point x="371" y="666"/>
      <point x="364" y="666" type="curve"/>
      <point x="263" y="651"/>
      <point x="162" y="630"/>
      <point x="61" y="615" type="curve" smooth="yes"/>
      <point x="40" y="612"/>
      <point x="19" y="609"/>
      <point x="19" y="581" type="curve" smooth="yes"/>
      <point x="19" y="557"/>
      <point x="38" y="548"/>
      <point x="58" y="548" type="curve" smooth="yes"/>
      <point x="163" y="548"/>
      <point x="259" y="569"/>
      <point x="379" y="590" type="curve"/>
    </contour>
  </outline>
</glyph>
<glyph name="eight" format="1">
  <advance width="619"/>
  <unicode hex="0038"/>
  <outline>
    <contour>
      <point x="389" y="364" type="line"/>
      <point x="393" y="381"/>
      <point x="401" y="415"/>
      <point x="401" y="444" type="curve" smooth="yes"/>
      <point x="401" y="532"/>
      <point x="339" y="663"/>
      <point x="242" y="663" type="curve" smooth="yes"/>
      <point x="229" y="663"/>
      <point x="217" y="660"/>
      <point x="207" y="654" type="curve" smooth="yes"/>
      <point x="102" y="589"/>
      <point x="10" y="519"/>
      <point x="10" y="427" type="curve" smooth="yes"/>
      <point x="10" y="369"/>
      <point x="45" y="313"/>
      <point x="113" y="275" type="curve" smooth="yes"/>
      <point x="147" y="256"/>
      <point x="186" y="246"/>
      <point x="226" y="231" type="curve"/>
      <point x="204" y="186"/>
      <point x="180" y="145"/>
      <point x="180" y="101" type="curve" smooth="yes"/>
      <point x="180" y="29"/>
      <point x="241" y="-32"/>
      <point x="339" y="-32" type="curve" smooth="yes"/>
      <point x="463" y="-32"/>
      <point x="578" y="59"/>
      <point x="578" y="179" type="curve" smooth="yes"/>
      <point x="578" y="271"/>
      <point x="476" y="308"/>
      <point x="389" y="364" type="curve"/>
    </contour>
    <contour>
      <point x="326" y="460" type="line"/>
      <point x="326" y="376"/>
      <point x="281" y="317"/>
      <point x="225" y="317" type="curve" smooth="yes"/>
      <point x="162" y="317"/>
      <point x="86" y="375"/>
      <point x="86" y="430" type="curve" smooth="yes"/>
      <point x="86" y="490"/>
      <point x="182" y="563"/>
      <point x="248" y="563" type="curve" smooth="yes"/>
      <point x="303" y="563"/>
      <point x="326" y="493"/>
      <point x="326" y="460" type="curve" smooth="yes"/>
    </contour>
    <contour>
      <point x="362" y="43" type="line"/>
      <point x="294" y="43"/>
      <point x="257" y="68"/>
      <point x="257" y="106" type="curve" smooth="yes"/>
      <point x="257" y="169"/>
      <point x="333" y="242"/>
      <point x="409" y="242" type="curve" smooth="yes"/>
      <point x="454" y="242"/>
      <point x="499" y="207"/>
      <point x="499" y="156" type="curve" smooth="yes"/>
      <point x="499" y="93"/>
      <point x="399" y="43"/>
      <point x="362" y="43" type="curve" smooth="yes"/>
    </contour>
  </outline>
</glyph>
<glyph name="nine" format="1">
  <advance width="467"/>
  <unicode hex="0039"/>
  <outline>
    <contour>
      <point x="284" y="348" type="line"/>
      <point x="292" y="255"/>
      <point x="296" y="172"/>
      <point x="306" y="90" type="curve" smooth="yes"/>
      <point x="311" y="49"/>
      <point x="325" y="-10"/>
      <point x="375" y="-10" type="curve" smooth="yes"/>
      <point x="398" y="-10"/>
      <point x="413" y="-9"/>
      <point x="413" y="36" type="curve" smooth="yes"/>
      <point x="413" y="80"/>
      <point x="387" y="126"/>
      <point x="383" y="170" type="curve" smooth="yes"/>
      <point x="378" y="227"/>
      <point x="375" y="285"/>
      <point x="375" y="342" type="curve" smooth="yes"/>
      <point x="375" y="367"/>
      <point x="377" y="393"/>
      <point x="377" y="418" type="curve" smooth="yes"/>
      <point x="377" y="452"/>
      <point x="366" y="487"/>
      <point x="366" y="522" type="curve" smooth="yes"/>
      <point x="366" y="551"/>
      <point x="390" y="592"/>
      <point x="390" y="595" type="curve" smooth="yes"/>
      <point x="390" y="636"/>
      <point x="320" y="667"/>
      <point x="275" y="667" type="curve" smooth="yes"/>
      <point x="254" y="667"/>
      <point x="232" y="663"/>
      <point x="211" y="655" type="curve" smooth="yes"/>
      <point x="111" y="617"/>
      <point x="48" y="545"/>
      <point x="25" y="440" type="curve" smooth="yes"/>
      <point x="22" y="428"/>
      <point x="21" y="416"/>
      <point x="21" y="405" type="curve" smooth="yes"/>
      <point x="21" y="343"/>
      <point x="78" y="281"/>
      <point x="147" y="281" type="curve" smooth="yes"/>
      <point x="195" y="281"/>
      <point x="228" y="309"/>
      <point x="284" y="348" type="curve"/>
    </contour>
    <contour>
      <point x="319" y="572" type="line"/>
      <point x="294" y="531"/>
      <point x="274" y="494"/>
      <point x="250" y="461" type="curve" smooth="yes"/>
      <point x="223" y="424"/>
      <point x="184" y="369"/>
      <point x="148" y="369" type="curve" smooth="yes"/>
      <point x="126" y="369"/>
      <point x="109" y="388"/>
      <point x="109" y="417" type="curve" smooth="yes"/>
      <point x="109" y="502"/>
      <point x="199" y="576"/>
      <point x="286" y="576" type="curve" smooth="yes"/>
      <point x="297" y="576"/>
      <point x="308" y="574"/>
      <point x="319" y="572" type="curve"/>
    </contour>
  </outline>
</glyph>
<glyph name="colon" format="1">
  <advance width="256"/>
  <unicode hex="003A"/>
  <outline>
    <contour>
      <point x="162" y="353" type="line"/>
      <point x="162" y="382"/>
      <point x="137" y="395"/>
      <point x="126" y="396" type="curve"/>
      <point x="113" y="396"/>
      <point x="85" y="381"/>
      <point x="85" y="354" type="curve" smooth="yes"/>
      <point x="85" y="332"/>
      <point x="109" y="314"/>
      <point x="120" y="314" type="curve" smooth="yes"/>
      <point x="127" y="314"/>
      <point x="162" y="322"/>
      <point x="162" y="353" type="curve" smooth="yes"/>
    </contour>
    <contour>
      <point x="173" y="23" type="line"/>
      <point x="173" y="58"/>
      <point x="144" y="73"/>
      <point x="131" y="74" type="curve"/>
      <point x="115" y="74"/>
      <point x="82" y="57"/>
      <point x="82" y="25" type="curve" smooth="yes"/>
      <point x="82" y="-1"/>
      <point x="110" y="-23"/>
      <point x="123" y="-23" type="curve" smooth="yes"/>
      <point x="132" y="-23"/>
      <point x="173" y="-13"/>
      <point x="173" y="23" type="curve" smooth="yes"/>
    </contour>
  </outline>
</glyph>
<glyph name="semicolon" format="1">
  <advance width="283"/>
  <unicode hex="003B"/>
  <outline>
    <contour>
      <point x="212" y="48" type="line"/>
      <point x="212" y="64"/>
      <point x="182" y="135"/>
      <point x="148" y="135" type="curve" smooth="yes"/>
      <point x="127" y="135"/>
      <point x="112" y="121"/>
      <point x="112" y="98" type="curve" smooth="yes"/>
      <point x="112" y="95"/>
      <point x="113" y="93"/>
      <point x="114" y="91" type="curve" smooth="yes"/>
      <point x="125" y="69"/>
      <point x="129" y="48"/>
      <point x="129" y="28" type="curve" smooth="yes"/>
      <point x="129" y="-31"/>
      <point x="89" y="-79"/>
      <point x="64" y="-132" type="curve" smooth="yes"/>
      <point x="54" y="-153"/>
      <point x="31" y="-168"/>
      <point x="31" y="-191" type="curve" smooth="yes"/>
      <point x="31" y="-216"/>
      <point x="53" y="-227"/>
      <point x="72" y="-227" type="curve" smooth="yes"/>
      <point x="75" y="-227"/>
      <point x="78" y="-227"/>
      <point x="80" y="-226" type="curve" smooth="yes"/>
      <point x="155" y="-195"/>
      <point x="212" y="-64"/>
      <point x="212" y="48" type="curve" smooth="yes"/>
    </contour>
    <contour>
      <point x="162" y="353" type="line"/>
      <point x="162" y="382"/>
      <point x="137" y="395"/>
      <point x="126" y="396" type="curve"/>
      <point x="113" y="396"/>
      <point x="85" y="381"/>
      <point x="85" y="354" type="curve" smooth="yes"/>
      <point x="85" y="332"/>
      <point x="109" y="314"/>
      <point x="120" y="314" type="curve" smooth="yes"/>
      <point x="127" y="314"/>
      <point x="162" y="322"/>
      <point x="162" y="353" type="curve" smooth="yes"/>
    </contour>
  </outline>
</glyph>
<glyph name="equal" format="1">
  <advance width="461"/>
  <unicode hex="003D"/>
  <outline>
    <contour>
      <point x="285" y="299" type="line"/>
      <point x="231" y="299"/>
      <point x="124" y="290"/>
      <point x="67" y="286" type="curve" smooth="yes"/>
      <point x="44" y="284"/>
      <point x="21" y="275"/>
      <point x="21" y="252" type="curve" smooth="yes"/>
      <point x="21" y="228"/>
      <point x="58" y="205"/>
      <point x="81" y="205" type="curve" smooth="yes"/>
      <point x="93" y="205"/>
      <point x="106" y="208"/>
      <point x="118" y="208" type="curve" smooth="yes"/>
      <point x="220" y="208"/>
      <point x="231" y="206"/>
      <point x="333" y="206" type="curve" smooth="yes"/>
      <point x="354" y="206" type="line" smooth="yes"/>
      <point x="395" y="206"/>
      <point x="440" y="209"/>
      <point x="440" y="246" type="curve" smooth="yes"/>
      <point x="440" y="298"/>
      <point x="340" y="299"/>
      <point x="285" y="299" type="curve" smooth="yes"/>
    </contour>
    <contour>
      <point x="187" y="459" type="line"/>
      <point x="123" y="459" type="line"/>
      <point x="103" y="459"/>
      <point x="84" y="459"/>
      <point x="67" y="458" type="curve" smooth="yes"/>
      <point x="44" y="456"/>
      <point x="21" y="447"/>
      <point x="21" y="424" type="curve" smooth="yes"/>
      <point x="21" y="400"/>
      <point x="58" y="377"/>
      <point x="81" y="377" type="curve" smooth="yes"/>
      <point x="93" y="377"/>
      <point x="116" y="374"/>
      <point x="128" y="374" type="curve" smooth="yes"/>
      <point x="230" y="374"/>
      <point x="231" y="378"/>
      <point x="333" y="378" type="curve" smooth="yes"/>
      <point x="354" y="378" type="line" smooth="yes"/>
      <point x="395" y="378"/>
      <point x="442" y="387"/>
      <point x="442" y="424" type="curve" smooth="yes"/>
      <point x="442" y="458"/>
      <point x="396" y="466"/>
      <point x="349" y="466" type="curve" smooth="yes"/>
      <point x="327" y="466"/>
      <point x="305" y="464"/>
      <point x="287" y="463" type="curve" smooth="yes"/>
      <point x="253" y="463"/>
      <point x="220" y="459"/>
      <point x="187" y="459" type="curve" smooth="yes"/>
    </contour>
  </outline>
</glyph>
<glyph name="question" format="1">
  <advance width="397"/>
  <unicode hex="003F"/>
  <outline>
    <contour>
      <point x="261" y="250" type="line"/>
      <point x="273" y="288"/>
      <point x="288" y="324"/>
      <point x="299" y="362" type="curve" smooth="yes"/>
      <point x="319" y="430"/>
      <point x="353" y="501"/>
      <point x="353" y="573" type="curve" smooth="yes"/>
      <point x="353" y="654"/>
      <point x="321" y="695"/>
      <point x="257" y="695" type="curve" smooth="yes"/>
      <point x="165" y="695"/>
      <point x="16" y="566"/>
      <point x="16" y="481" type="curve" smooth="yes"/>
      <point x="16" y="459"/>
      <point x="31" y="444"/>
      <point x="54" y="444" type="curve" smooth="yes"/>
      <point x="76" y="444"/>
      <point x="97" y="460"/>
      <point x="102" y="487" type="curve" smooth="yes"/>
      <point x="116" y="560"/>
      <point x="188" y="618"/>
      <point x="265" y="618" type="curve" smooth="yes"/>
      <point x="282" y="618"/>
      <point x="286" y="587"/>
      <point x="286" y="575" type="curve" smooth="yes"/>
      <point x="286" y="563"/>
      <point x="283" y="550"/>
      <point x="279" y="538" type="curve" smooth="yes"/>
      <point x="258" y="471"/>
      <point x="235" y="407"/>
      <point x="216" y="342" type="curve" smooth="yes"/>
      <point x="207" y="311"/>
      <point x="194" y="275"/>
      <point x="194" y="243" type="curve" smooth="yes"/>
      <point x="194" y="201"/>
      <point x="234" y="163"/>
      <point x="275" y="163" type="curve" smooth="yes"/>
      <point x="294" y="163"/>
      <point x="308" y="171"/>
      <point x="308" y="189" type="curve" smooth="yes"/>
      <point x="308" y="219"/>
      <point x="283" y="229"/>
      <point x="261" y="250" type="curve"/>
    </contour>
    <contour>
      <point x="269" y="-9" type="line"/>
      <point x="293" y="-9"/>
      <point x="310" y="28"/>
      <point x="310" y="41" type="curve" smooth="yes"/>
      <point x="310" y="52"/>
      <point x="289" y="68"/>
      <point x="276" y="68" type="curve" smooth="yes"/>
      <point x="257" y="68"/>
      <point x="243" y="53"/>
      <point x="242" y="35" type="curve" smooth="yes"/>
      <point x="242" y="25"/>
      <point x="244" y="-7"/>
      <point x="269" y="-9" type="curve"/>
    </contour>
  </outline>
</glyph>
<glyph name="at" format="1">
  <advance width="969"/>
  <unicode hex="0040"/>
  <outline>
    <contour>
      <point x="562" y="359" type="line"/>
      <point x="554" y="249"/>
      <point x="476" y="58"/>
      <point x="392" y="58" type="curve" smooth="yes"/>
      <point x="361" y="58"/>
      <point x="340" y="86"/>
      <point x="340" y="128" type="curve" smooth="yes"/>
      <point x="340" y="218"/>
      <point x="430" y="361"/>
      <point x="528" y="361" type="curve" smooth="yes"/>
      <point x="539" y="361"/>
      <point x="550" y="359"/>
      <point x="562" y="359" type="curve"/>
    </contour>
    <contour>
      <point x="749" y="-44" type="line"/>
      <point x="835" y="-44"/>
      <point x="852" y="98"/>
      <point x="852" y="239" type="curve" smooth="yes"/>
      <point x="852" y="444"/>
      <point x="705" y="614"/>
      <point x="445" y="614" type="curve" smooth="yes"/>
      <point x="259" y="614"/>
      <point x="107" y="466"/>
      <point x="107" y="192" type="curve"/>
      <point x="107" y="-133"/>
      <point x="346" y="-175"/>
      <point x="453" y="-175" type="curve" smooth="yes"/>
      <point x="521" y="-175"/>
      <point x="586" y="-125"/>
      <point x="592" y="-120" type="curve" smooth="yes"/>
      <point x="596" y="-117"/>
      <point x="603" y="-106"/>
      <point x="603" y="-97" type="curve" smooth="yes"/>
      <point x="603" y="-84"/>
      <point x="590" y="-72"/>
      <point x="578" y="-72" type="curve" smooth="yes"/>
      <point x="540" y="-72"/>
      <point x="504" y="-119"/>
      <point x="452" y="-119" type="curve" smooth="yes"/>
      <point x="291" y="-119"/>
      <point x="157" y="21"/>
      <point x="157" y="175" type="curve" smooth="yes"/>
      <point x="157" y="362"/>
      <point x="284" y="554"/>
      <point x="444" y="554" type="curve" smooth="yes"/>
      <point x="693" y="554"/>
      <point x="783" y="397"/>
      <point x="783" y="245" type="curve" smooth="yes"/>
      <point x="783" y="169"/>
      <point x="779" y="36"/>
      <point x="728" y="36" type="curve" smooth="yes"/>
      <point x="676" y="36"/>
      <point x="654" y="184"/>
      <point x="642" y="259" type="curve" smooth="yes"/>
      <point x="628" y="347"/>
      <point x="642" y="436"/>
      <point x="539" y="436" type="curve" smooth="yes"/>
      <point x="400" y="436"/>
      <point x="269" y="278"/>
      <point x="269" y="127" type="curve" smooth="yes"/>
      <point x="269" y="44"/>
      <point x="324" y="-11"/>
      <point x="391" y="-11" type="curve" smooth="yes"/>
      <point x="481" y="-11"/>
      <point x="545" y="91"/>
      <point x="580" y="151" type="curve"/>
      <point x="597" y="108"/>
      <point x="604" y="69"/>
      <point x="626" y="39" type="curve" smooth="yes"/>
      <point x="647" y="9"/>
      <point x="687" y="-44"/>
      <point x="749" y="-44" type="curve" smooth="yes"/>
    </contour>
  </outline>
</glyph>
<glyph name="A" format="1">
  <advance width="612"/>
  <unicode hex="0041"/>
  <outline>
    <contour>
      <point x="408" y="298" type="line"/>
      <point x="458" y="308"/>
      <point x="522" y="324"/>
      <point x="560" y="352" type="curve" smooth="yes"/>
      <point x="571" y="360"/>
      <point x="585" y="371"/>
      <point x="585" y="386" type="curve" smooth="yes"/>
      <point x="585" y="389"/>
      <point x="584" y="393"/>
      <point x="583" y="396" type="curve" smooth="yes"/>
      <point x="578" y="409"/>
      <point x="548" y="410"/>
      <point x="534" y="410" type="curve" smooth="yes"/>
      <point x="521" y="410"/>
      <point x="501" y="402"/>
      <point x="485" y="399" type="curve" smooth="yes"/>
      <point x="449" y="391"/>
      <point x="414" y="381"/>
      <point x="369" y="372" type="curve"/>
      <point x="350" y="450"/>
      <point x="323" y="523"/>
      <point x="307" y="595" type="curve" smooth="yes"/>
      <point x="297" y="640"/>
      <point x="282" y="654"/>
      <point x="235" y="654" type="curve" smooth="yes"/>
      <point x="172" y="654"/>
      <point x="185" y="622"/>
      <point x="151" y="544" type="curve"/>
      <point x="144" y="480"/>
      <point x="124" y="413"/>
      <point x="114" y="348" type="curve"/>
      <point x="111" y="312"/>
      <point x="103" y="289"/>
      <point x="63" y="278" type="curve" smooth="yes"/>
      <point x="41" y="271"/>
      <point x="24" y="261"/>
      <point x="24" y="248" type="curve" smooth="yes"/>
      <point x="24" y="228"/>
      <point x="52" y="210"/>
      <point x="80" y="189" type="curve"/>
      <point x="85" y="186" type="line"/>
      <point x="77" y="122"/>
      <point x="68" y="87"/>
      <point x="68" y="44" type="curve" smooth="yes"/>
      <point x="68" y="18"/>
      <point x="71" y="-10"/>
      <point x="109" y="-10" type="curve" smooth="yes"/>
      <point x="159" y="-10"/>
      <point x="153" y="165"/>
      <point x="171" y="229" type="curve"/>
      <point x="215" y="243"/>
      <point x="234" y="268"/>
      <point x="325" y="273" type="curve"/>
      <point x="364" y="205"/>
      <point x="400" y="145"/>
      <point x="447" y="93" type="curve" smooth="yes"/>
      <point x="459" y="79"/>
      <point x="492" y="59"/>
      <point x="510" y="59" type="curve" smooth="yes"/>
      <point x="529" y="59"/>
      <point x="556" y="71"/>
      <point x="556" y="86" type="curve" smooth="yes"/>
      <point x="556" y="118"/>
      <point x="534" y="135"/>
      <point x="509" y="150" type="curve"/>
      <point x="470" y="180"/>
      <point x="418" y="251"/>
      <point x="402" y="297" type="curve"/>
    </contour>
    <contour>
      <point x="185" y="321" type="line"/>
      <point x="237" y="550" type="line"/>
      <point x="251" y="518"/>
      <point x="291" y="374"/>
      <point x="291" y="358" type="curve" smooth="yes"/>
      <point x="291" y="346"/>
      <point x="271" y="344"/>
      <point x="238" y="337" type="curve"/>
    </contour>
  </outline>
</glyph>
<glyph name="B" format="1">
  <advance width="712"/>
  <unicode hex="0042"/>
  <outline>
    <contour>
      <point x="381" y="357" type="line"/>
      <point x="424" y="414"/>
      <point x="451" y="456"/>
      <point x="451" y="503" type="curve" smooth="yes"/>
      <point x="451" y="573"/>
      <point x="385" y="630"/>
      <point x="267" y="630" type="curve" smooth="yes"/>
      <point x="179" y="630"/>
      <point x="24" y="582"/>
      <point x="24" y="533" type="curve" smooth="yes"/>
      <point x="24" y="487"/>
      <point x="73" y="512"/>
      <point x="89" y="493" type="curve"/>
      <point x="94" y="450"/>
      <point x="99" y="407"/>
      <point x="105" y="363" type="curve" smooth="yes"/>
      <point x="111" y="310"/>
      <point x="126" y="254"/>
      <point x="126" y="201" type="curve" smooth="yes"/>
      <point x="126" y="182"/>
      <point x="123" y="163"/>
      <point x="123" y="145" type="curve" smooth="yes"/>
      <point x="123" y="82"/>
      <point x="167" y="-16"/>
      <point x="199" y="-16" type="curve" smooth="yes"/>
      <point x="214" y="-16"/>
      <point x="253" y="-2"/>
      <point x="283" y="-2" type="curve" smooth="yes"/>
      <point x="431" y="-2"/>
      <point x="684" y="63"/>
      <point x="684" y="182" type="curve" smooth="yes"/>
      <point x="684" y="240"/>
      <point x="606" y="298"/>
      <point x="532" y="324" type="curve" smooth="yes"/>
      <point x="485" y="340"/>
      <point x="435" y="345"/>
      <point x="377" y="356" type="curve"/>
    </contour>
    <contour>
      <point x="265" y="71" type="line"/>
      <point x="264" y="112"/>
      <point x="245" y="140"/>
      <point x="203" y="140" type="curve"/>
      <point x="186" y="247" type="line"/>
      <point x="254" y="264"/>
      <point x="320" y="277"/>
      <point x="385" y="277" type="curve" smooth="yes"/>
      <point x="451" y="277"/>
      <point x="541" y="264"/>
      <point x="594" y="211" type="curve" smooth="yes"/>
      <point x="603" y="202"/>
      <point x="608" y="193"/>
      <point x="608" y="183" type="curve" smooth="yes"/>
      <point x="608" y="121"/>
      <point x="398" y="68"/>
      <point x="291" y="68" type="curve" smooth="yes"/>
      <point x="261" y="68" type="line"/>
    </contour>
    <contour>
      <point x="173" y="328" type="line"/>
      <point x="136" y="535" type="line"/>
      <point x="173" y="548"/>
      <point x="213" y="559"/>
      <point x="254" y="559" type="curve" smooth="yes"/>
      <point x="321" y="559"/>
      <point x="372" y="532"/>
      <point x="372" y="497" type="curve" smooth="yes"/>
      <point x="372" y="433"/>
      <point x="268" y="345"/>
      <point x="173" y="328" type="curve"/>
    </contour>
  </outline>
</glyph>
<glyph name="C" format="1">
  <advance width="489"/>
  <unicode hex="0043"/>
  <outline>
    <contour>
      <point x="271" y="87" type="line"/>
      <point x="345" y="87"/>
      <point x="466" y="151"/>
      <point x="466" y="205" type="curve" smooth="yes"/>
      <point x="466" y="221"/>
      <point x="448" y="237"/>
      <point x="435" y="237" type="curve" smooth="yes"/>
      <point x="419" y="237"/>
      <point x="405" y="220"/>
      <point x="391" y="208" type="curve" smooth="yes"/>
      <point x="351" y="173"/>
      <point x="310" y="156"/>
      <point x="269" y="156" type="curve" smooth="yes"/>
      <point x="190" y="156"/>
      <point x="91" y="233"/>
      <point x="91" y="332" type="curve" smooth="yes"/>
      <point x="91" y="410"/>
      <point x="130" y="466"/>
      <point x="203" y="480" type="curve" smooth="yes"/>
      <point x="220" y="483"/>
      <point x="243" y="493"/>
      <point x="243" y="511" type="curve"/>
      <point x="238" y="530"/>
      <point x="220" y="543"/>
      <point x="202" y="543" type="curve" smooth="yes"/>
      <point x="134" y="543"/>
      <point x="57" y="477"/>
      <point x="36" y="413" type="curve" smooth="yes"/>
      <point x="27" y="385"/>
      <point x="22" y="358"/>
      <point x="22" y="331" type="curve" smooth="yes"/>
      <point x="22" y="202"/>
      <point x="127" y="87"/>
      <point x="271" y="87" type="curve" smooth="yes"/>
    </contour>
  </outline>
</glyph>
<glyph name="D" format="1">
  <advance width="518"/>
  <unicode hex="0044"/>
  <outline>
    <contour>
      <point x="495" y="274" type="line"/>
      <point x="478" y="478"/>
      <point x="231" y="528"/>
      <point x="68" y="561" type="curve" smooth="yes"/>
      <point x="64" y="562"/>
      <point x="60" y="562"/>
      <point x="56" y="562" type="curve" smooth="yes"/>
      <point x="37" y="562"/>
      <point x="25" y="549"/>
      <point x="25" y="530" type="curve" smooth="yes"/>
      <point x="25" y="515"/>
      <point x="49" y="456"/>
      <point x="59" y="422" type="curve"/>
      <point x="70" y="335"/>
      <point x="81" y="247"/>
      <point x="88" y="160" type="curve"/>
      <point x="88" y="147" type="line" smooth="yes"/>
      <point x="88" y="129"/>
      <point x="86" y="110"/>
      <point x="86" y="92" type="curve" smooth="yes"/>
      <point x="86" y="60"/>
      <point x="119" y="-38"/>
      <point x="154" y="-38" type="curve" smooth="yes"/>
      <point x="163" y="-38"/>
      <point x="174" y="-30"/>
      <point x="178" y="-22" type="curve" smooth="yes"/>
      <point x="192" y="4"/>
      <point x="216" y="5"/>
      <point x="239" y="14" type="curve"/>
      <point x="359" y="50"/>
      <point x="490" y="146"/>
      <point x="495" y="274" type="curve"/>
    </contour>
    <contour>
      <point x="171" y="67" type="line"/>
      <point x="121" y="480" type="line"/>
      <point x="150" y="471"/>
      <point x="174" y="468"/>
      <point x="197" y="461" type="curve" smooth="yes"/>
      <point x="294" y="431"/>
      <point x="423" y="364"/>
      <point x="423" y="269" type="curve" smooth="yes"/>
      <point x="423" y="167"/>
      <point x="284" y="93"/>
      <point x="171" y="67" type="curve"/>
    </contour>
  </outline>
</glyph>
<glyph name="E" format="1">
  <advance width="423"/>
  <unicode hex="0045"/>
  <outline>
    <contour>
      <point x="117" y="316" type="line"/>
      <point x="107" y="433" type="line"/>
      <point x="177" y="459"/>
      <point x="238" y="481"/>
      <point x="299" y="507" type="curve" smooth="yes"/>
      <point x="313" y="513"/>
      <point x="326" y="526"/>
      <point x="326" y="540" type="curve" smooth="yes"/>
      <point x="326" y="554"/>
      <point x="313" y="572"/>
      <point x="299" y="572" type="curve" smooth="yes"/>
      <point x="278" y="572"/>
      <point x="257" y="555"/>
      <point x="238" y="548" type="curve" smooth="yes"/>
      <point x="185" y="528"/>
      <point x="134" y="507"/>
      <point x="84" y="491" type="curve" smooth="yes"/>
      <point x="41" y="477"/>
      <point x="25" y="466"/>
      <point x="25" y="432" type="curve" smooth="yes"/>
      <point x="25" y="426"/>
      <point x="26" y="419"/>
      <point x="27" y="412" type="curve" smooth="yes"/>
      <point x="39" y="341"/>
      <point x="49" y="273"/>
      <point x="60" y="203" type="curve" smooth="yes"/>
      <point x="73" y="119"/>
      <point x="71" y="-4"/>
      <point x="151" y="-4" type="curve" smooth="yes"/>
      <point x="209" y="-4"/>
      <point x="310" y="35"/>
      <point x="365" y="71" type="curve"/>
      <point x="380" y="85"/>
      <point x="402" y="114"/>
      <point x="402" y="131" type="curve" smooth="yes"/>
      <point x="402" y="157"/>
      <point x="393" y="164"/>
      <point x="378" y="164" type="curve" smooth="yes"/>
      <point x="365" y="164"/>
      <point x="351" y="159"/>
      <point x="345" y="153" type="curve"/>
      <point x="296" y="92"/>
      <point x="226" y="87"/>
      <point x="156" y="63" type="curve"/>
      <point x="130" y="128"/>
      <point x="133" y="187"/>
      <point x="125" y="246" type="curve"/>
      <point x="185" y="278"/>
      <point x="302" y="325"/>
      <point x="302" y="377" type="curve" smooth="yes"/>
      <point x="302" y="396"/>
      <point x="289" y="406"/>
      <point x="261" y="406" type="curve"/>
      <point x="249" y="403"/>
      <point x="239" y="392"/>
      <point x="228" y="384" type="curve" smooth="yes"/>
      <point x="195" y="362"/>
      <point x="162" y="343"/>
      <point x="117" y="316" type="curve"/>
    </contour>
  </outline>
</glyph>
<glyph name="F" format="1">
  <advance width="549"/>
  <unicode hex="0046"/>
  <outline>
    <contour>
      <point x="102" y="513" type="line"/>
      <point x="127" y="522"/>
      <point x="153" y="523"/>
      <point x="179" y="523" type="curve" smooth="yes"/>
      <point x="193" y="523" type="line" smooth="yes"/>
      <point x="274" y="523"/>
      <point x="354" y="513"/>
      <point x="428" y="472" type="curve" smooth="yes"/>
      <point x="436" y="468"/>
      <point x="444" y="466"/>
      <point x="452" y="466" type="curve" smooth="yes"/>
      <point x="465" y="466"/>
      <point x="478" y="473"/>
      <point x="478" y="493" type="curve" smooth="yes"/>
      <point x="478" y="566"/>
      <point x="302" y="595"/>
      <point x="196" y="595" type="curve" smooth="yes"/>
      <point x="60" y="595"/>
      <point x="22" y="576"/>
      <point x="22" y="488" type="curve" smooth="yes"/>
      <point x="22" y="344"/>
      <point x="36" y="194"/>
      <point x="44" y="49" type="curve"/>
      <point x="44" y="31"/>
      <point x="50" y="-17"/>
      <point x="82" y="-17" type="curve"/>
      <point x="116" y="-11"/>
      <point x="124" y="34"/>
      <point x="124" y="59" type="curve" smooth="yes"/>
      <point x="124" y="137"/>
      <point x="114" y="217"/>
      <point x="110" y="292" type="curve"/>
      <point x="199" y="309"/>
      <point x="287" y="323"/>
      <point x="376" y="323" type="curve" smooth="yes"/>
      <point x="410" y="323"/>
      <point x="444" y="321"/>
      <point x="478" y="314" type="curve"/>
      <point x="494" y="314"/>
      <point x="517" y="320"/>
      <point x="521" y="335" type="curve" smooth="yes"/>
      <point x="521" y="337"/>
      <point x="522" y="338"/>
      <point x="522" y="340" type="curve" smooth="yes"/>
      <point x="522" y="355"/>
      <point x="506" y="369"/>
      <point x="495" y="374" type="curve" smooth="yes"/>
      <point x="477" y="382"/>
      <point x="444" y="389"/>
      <point x="424" y="390" type="curve"/>
      <point x="319" y="387"/>
      <point x="218" y="381"/>
      <point x="112" y="362" type="curve"/>
    </contour>
  </outline>
</glyph>
<glyph name="G" format="1">
  <advance width="773"/>
  <unicode hex="0047"/>
  <outline>
    <contour>
      <point x="648" y="350" type="line"/>
      <point x="655" y="229"/>
      <point x="642" y="108"/>
      <point x="694" y="16" type="curve" smooth="yes"/>
      <point x="697" y="10"/>
      <point x="710" y="7"/>
      <point x="722" y="7" type="curve" smooth="yes"/>
      <point x="741" y="7"/>
      <point x="749" y="24"/>
      <point x="749" y="42" type="curve"/>
      <point x="713" y="138"/>
      <point x="729" y="239"/>
      <point x="720" y="337" type="curve"/>
      <point x="720" y="386"/>
      <point x="716" y="466"/>
      <point x="674" y="466" type="curve" smooth="yes"/>
      <point x="638" y="466"/>
      <point x="623" y="432"/>
      <point x="597" y="416" type="curve"/>
      <point x="551" y="381"/>
      <point x="483" y="333"/>
      <point x="438" y="333" type="curve" smooth="yes"/>
      <point x="395" y="333"/>
      <point x="330" y="383"/>
      <point x="262" y="383" type="curve" smooth="yes"/>
      <point x="233" y="383"/>
      <point x="205" y="359"/>
      <point x="205" y="329" type="curve" smooth="yes"/>
      <point x="205" y="220"/>
      <point x="424" y="305"/>
      <point x="424" y="189" type="curve" smooth="yes"/>
      <point x="424" y="132"/>
      <point x="358" y="94"/>
      <point x="299" y="94" type="curve" smooth="yes"/>
      <point x="191" y="94"/>
      <point x="99" y="170"/>
      <point x="99" y="282" type="curve" smooth="yes"/>
      <point x="99" y="359"/>
      <point x="144" y="456"/>
      <point x="199" y="456" type="curve" smooth="yes"/>
      <point x="212" y="456"/>
      <point x="226" y="443"/>
      <point x="243" y="443" type="curve" smooth="yes"/>
      <point x="269" y="443"/>
      <point x="272" y="452"/>
      <point x="272" y="462" type="curve" smooth="yes"/>
      <point x="272" y="471" type="line" smooth="yes"/>
      <point x="272" y="511"/>
      <point x="229" y="523"/>
      <point x="199" y="523" type="curve" smooth="yes"/>
      <point x="89" y="523"/>
      <point x="23" y="374"/>
      <point x="23" y="281" type="curve" smooth="yes"/>
      <point x="23" y="240"/>
      <point x="34" y="198"/>
      <point x="59" y="156" type="curve" smooth="yes"/>
      <point x="113" y="63"/>
      <point x="197" y="23"/>
      <point x="301" y="23" type="curve" smooth="yes"/>
      <point x="385" y="23"/>
      <point x="491" y="76"/>
      <point x="491" y="187" type="curve" smooth="yes"/>
      <point x="491" y="209"/>
      <point x="480" y="234"/>
      <point x="480" y="258" type="curve"/>
    </contour>
  </outline>
</glyph>
<glyph name="H" format="1">
  <advance width="560"/>
  <unicode hex="0048"/>
  <outline>
    <contour>
      <point x="391" y="388" type="line"/>
      <point x="407" y="284"/>
      <point x="420" y="180"/>
      <point x="441" y="77" type="curve"/>
      <point x="451" y="42"/>
      <point x="479" y="-12"/>
      <point x="506" y="-12" type="curve" smooth="yes"/>
      <point x="519" y="-12"/>
      <point x="533" y="-2"/>
      <point x="533" y="26" type="curve" smooth="yes"/>
      <point x="533" y="74"/>
      <point x="500" y="126"/>
      <point x="492" y="177" type="curve" smooth="yes"/>
      <point x="473" y="300"/>
      <point x="463" y="424"/>
      <point x="446" y="550" type="curve" smooth="yes"/>
      <point x="443" y="572"/>
      <point x="435" y="594"/>
      <point x="411" y="594" type="curve" smooth="yes"/>
      <point x="368" y="594"/>
      <point x="358" y="515"/>
      <point x="338" y="468" type="curve" smooth="yes"/>
      <point x="314" y="413"/>
      <point x="274" y="378"/>
      <point x="213" y="356" type="curve"/>
      <point x="197" y="407"/>
      <point x="182" y="508"/>
      <point x="135" y="508" type="curve" smooth="yes"/>
      <point x="101" y="508"/>
      <point x="85" y="409"/>
      <point x="82" y="390" type="curve"/>
      <point x="82" y="361"/>
      <point x="101" y="344"/>
      <point x="123" y="333" type="curve"/>
      <point x="98" y="333"/>
      <point x="76" y="339"/>
      <point x="55" y="339" type="curve" smooth="yes"/>
      <point x="37" y="339"/>
      <point x="17" y="329"/>
      <point x="17" y="316" type="curve" smooth="yes"/>
      <point x="17" y="267"/>
      <point x="91" y="262"/>
      <point x="143" y="258" type="curve" smooth="yes"/>
      <point x="147" y="258"/>
      <point x="151" y="257"/>
      <point x="155" y="257" type="curve"/>
      <point x="167" y="175"/>
      <point x="177" y="43"/>
      <point x="226" y="43" type="curve" smooth="yes"/>
      <point x="255" y="43"/>
      <point x="264" y="64"/>
      <point x="264" y="77" type="curve" smooth="yes"/>
      <point x="264" y="90"/>
      <point x="258" y="106"/>
      <point x="255" y="120" type="curve" smooth="yes"/>
      <point x="243" y="172"/>
      <point x="231" y="226"/>
      <point x="222" y="270" type="curve"/>
    </contour>
  </outline>
</glyph>
<glyph name="I" format="1">
  <advance width="168"/>
  <unicode hex="0049"/>
  <outline>
    <contour>
      <point x="24" y="532" type="line"/>
      <point x="37" y="443"/>
      <point x="47" y="267"/>
      <point x="60" y="185" type="curve" smooth="yes"/>
      <point x="65" y="151"/>
      <point x="78" y="100"/>
      <point x="108" y="100" type="curve" smooth="yes"/>
      <point x="134" y="100"/>
      <point x="142" y="117"/>
      <point x="142" y="131" type="curve" smooth="yes"/>
      <point x="142" y="137"/>
      <point x="141" y="143"/>
      <point x="140" y="150" type="curve" smooth="yes"/>
      <point x="120" y="245"/>
      <point x="103" y="435"/>
      <point x="88" y="529" type="curve"/>
      <point x="84" y="547"/>
      <point x="78" y="568"/>
      <point x="59" y="568" type="curve" smooth="yes"/>
      <point x="45" y="568"/>
      <point x="24" y="555"/>
      <point x="24" y="532" type="curve"/>
    </contour>
  </outline>
</glyph>
<glyph name="J" format="1">
  <advance width="328"/>
  <unicode hex="004A"/>
  <outline>
    <contour>
      <point x="195" y="65" type="line"/>
      <point x="141" y="131"/>
      <point x="121" y="195"/>
      <point x="88" y="266" type="curve" smooth="yes"/>
      <point x="80" y="283"/>
      <point x="65" y="296"/>
      <point x="50" y="296" type="curve" smooth="yes"/>
      <point x="28" y="296"/>
      <point x="24" y="276"/>
      <point x="24" y="255" type="curve" smooth="yes"/>
      <point x="24" y="247"/>
      <point x="26" y="235"/>
      <point x="28" y="228" type="curve"/>
      <point x="73" y="141"/>
      <point x="118" y="-14"/>
      <point x="201" y="-14" type="curve" smooth="yes"/>
      <point x="263" y="-14"/>
      <point x="277" y="40"/>
      <point x="282" y="83" type="curve" smooth="yes"/>
      <point x="290" y="150"/>
      <point x="301" y="259"/>
      <point x="301" y="330" type="curve" smooth="yes"/>
      <point x="301" y="339" type="line" smooth="yes"/>
      <point x="300" y="436"/>
      <point x="285" y="584"/>
      <point x="220" y="584" type="curve" smooth="yes"/>
      <point x="198" y="584"/>
      <point x="192" y="572"/>
      <point x="192" y="547" type="curve" smooth="yes"/>
      <point x="192" y="516"/>
      <point x="212" y="487"/>
      <point x="217" y="458" type="curve" smooth="yes"/>
      <point x="224" y="413"/>
      <point x="230" y="339"/>
      <point x="230" y="294" type="curve" smooth="yes"/>
      <point x="230" y="255"/>
      <point x="225" y="190"/>
      <point x="219" y="149" type="curve" smooth="yes"/>
      <point x="215" y="124"/>
      <point x="208" y="98"/>
      <point x="204" y="72" type="curve"/>
    </contour>
  </outline>
</glyph>
<glyph name="K" format="1">
  <advance width="697"/>
  <unicode hex="004B"/>
  <outline>
    <contour>
      <point x="101" y="192" type="line"/>
      <point x="89" y="279"/>
      <point x="89" y="368"/>
      <point x="89" y="456" type="curve" smooth="yes"/>
      <point x="89" y="478"/>
      <point x="88" y="504"/>
      <point x="58" y="504" type="curve" smooth="yes"/>
      <point x="29" y="504"/>
      <point x="23" y="472"/>
      <point x="23" y="438" type="curve" smooth="yes"/>
      <point x="23" y="418"/>
      <point x="25" y="396"/>
      <point x="25" y="380" type="curve" smooth="yes"/>
      <point x="25" y="288"/>
      <point x="30" y="171"/>
      <point x="47" y="68" type="curve" smooth="yes"/>
      <point x="51" y="42"/>
      <point x="82" y="11"/>
      <point x="102" y="11" type="curve" smooth="yes"/>
      <point x="134" y="11"/>
      <point x="156" y="66"/>
      <point x="175" y="92" type="curve" smooth="yes"/>
      <point x="184" y="105"/>
      <point x="206" y="112"/>
      <point x="218" y="118" type="curve"/>
      <point x="350" y="132"/>
      <point x="481" y="144"/>
      <point x="611" y="157" type="curve" smooth="yes"/>
      <point x="639" y="160"/>
      <point x="676" y="151"/>
      <point x="676" y="192" type="curve" smooth="yes"/>
      <point x="676" y="221"/>
      <point x="651" y="226"/>
      <point x="629" y="226" type="curve" smooth="yes"/>
      <point x="622" y="226"/>
      <point x="614" y="225"/>
      <point x="608" y="225" type="curve" smooth="yes"/>
      <point x="234" y="194" type="line"/>
      <point x="281" y="282"/>
      <point x="313" y="337"/>
      <point x="344" y="417" type="curve" smooth="yes"/>
      <point x="347" y="425"/>
      <point x="349" y="433"/>
      <point x="349" y="441" type="curve" smooth="yes"/>
      <point x="349" y="455"/>
      <point x="338" y="475"/>
      <point x="311" y="475" type="curve" smooth="yes"/>
      <point x="293" y="475"/>
      <point x="287" y="457"/>
      <point x="278" y="439" type="curve" smooth="yes"/>
      <point x="240" y="363"/>
      <point x="200" y="290"/>
      <point x="161" y="216" type="curve" smooth="yes"/>
      <point x="152" y="199"/>
      <point x="142" y="183"/>
      <point x="122" y="183" type="curve" smooth="yes"/>
      <point x="115" y="183"/>
      <point x="103" y="184"/>
      <point x="101" y="192" type="curve"/>
    </contour>
  </outline>
</glyph>
<glyph name="L" format="1">
  <advance width="595"/>
  <unicode hex="004C"/>
  <outline>
    <contour>
      <point x="24" y="261" type="line"/>
      <point x="25" y="223"/>
      <point x="26" y="203"/>
      <point x="26" y="171" type="curve" smooth="yes"/>
      <point x="26" y="57"/>
      <point x="51" y="7"/>
      <point x="136" y="7" type="curve" smooth="yes"/>
      <point x="147" y="7"/>
      <point x="159" y="9"/>
      <point x="172" y="9" type="curve"/>
      <point x="290" y="47"/>
      <point x="406" y="84"/>
      <point x="523" y="124" type="curve" smooth="yes"/>
      <point x="544" y="131"/>
      <point x="569" y="149"/>
      <point x="569" y="172" type="curve" smooth="yes"/>
      <point x="569" y="188"/>
      <point x="551" y="197"/>
      <point x="537" y="197" type="curve"/>
      <point x="525" y="195"/>
      <point x="506" y="190"/>
      <point x="495" y="183" type="curve"/>
      <point x="380" y="142"/>
      <point x="274" y="100"/>
      <point x="149" y="72" type="curve" smooth="yes"/>
      <point x="145" y="71"/>
      <point x="141" y="71"/>
      <point x="137" y="71" type="curve" smooth="yes"/>
      <point x="98" y="71"/>
      <point x="94" y="114"/>
      <point x="94" y="162" type="curve" smooth="yes"/>
      <point x="94" y="271"/>
      <point x="105" y="381"/>
      <point x="105" y="490" type="curve" smooth="yes"/>
      <point x="105" y="506"/>
      <point x="102" y="520"/>
      <point x="84" y="520" type="curve" smooth="yes"/>
      <point x="54" y="520"/>
      <point x="40" y="490"/>
      <point x="37" y="457" type="curve" smooth="yes"/>
      <point x="31" y="392"/>
      <point x="24" y="328"/>
      <point x="24" y="261" type="curve"/>
    </contour>
  </outline>
</glyph>
<glyph name="M" format="1">
  <advance width="595"/>
  <unicode hex="004D"/>
  <outline>
    <contour>
      <point x="267" y="327" type="line"/>
      <point x="250" y="442"/>
      <point x="236" y="512"/>
      <point x="182" y="512" type="curve" smooth="yes"/>
      <point x="153" y="512"/>
      <point x="127" y="485"/>
      <point x="98" y="446" type="curve"/>
      <point x="89" y="469"/>
      <point x="86" y="497"/>
      <point x="60" y="497" type="curve" smooth="yes"/>
      <point x="23" y="497"/>
      <point x="22" y="462"/>
      <point x="22" y="440" type="curve" smooth="yes"/>
      <point x="22" y="309"/>
      <point x="26" y="185"/>
      <point x="26" y="62" type="curve" smooth="yes"/>
      <point x="26" y="30"/>
      <point x="39" y="-19"/>
      <point x="69" y="-19" type="curve"/>
      <point x="101" y="-11"/>
      <point x="105" y="30"/>
      <point x="105" y="56" type="curve" smooth="yes"/>
      <point x="105" y="75" type="line" smooth="yes"/>
      <point x="105" y="166"/>
      <point x="126" y="342"/>
      <point x="174" y="406" type="curve"/>
      <point x="190" y="336"/>
      <point x="204" y="220"/>
      <point x="208" y="149" type="curve" smooth="yes"/>
      <point x="210" y="115"/>
      <point x="208" y="48"/>
      <point x="245" y="48" type="curve" smooth="yes"/>
      <point x="279" y="48"/>
      <point x="290" y="102"/>
      <point x="301" y="140" type="curve" smooth="yes"/>
      <point x="327" y="233"/>
      <point x="346" y="328"/>
      <point x="385" y="420" type="curve"/>
      <point x="396" y="423" type="line"/>
      <point x="407" y="302"/>
      <point x="418" y="180"/>
      <point x="463" y="50" type="curve"/>
      <point x="470" y="23"/>
      <point x="501" y="-2"/>
      <point x="530" y="-6" type="curve"/>
      <point x="545" y="-6"/>
      <point x="568" y="6"/>
      <point x="568" y="22" type="curve" smooth="yes"/>
      <point x="568" y="28"/>
      <point x="565" y="40"/>
      <point x="559" y="46" type="curve"/>
      <point x="510" y="79"/>
      <point x="506" y="130"/>
      <point x="496" y="180" type="curve" smooth="yes"/>
      <point x="478" y="273"/>
      <point x="475" y="365"/>
      <point x="458" y="460" type="curve"/>
      <point x="449" y="490"/>
      <point x="437" y="523"/>
      <point x="394" y="523" type="curve" smooth="yes"/>
      <point x="324" y="523"/>
      <point x="288" y="377"/>
      <point x="267" y="327" type="curve"/>
    </contour>
  </outline>
</glyph>
<glyph name="N" format="1">
  <advance width="432"/>
  <unicode hex="004E"/>
  <outline>
    <contour>
      <point x="287" y="73" type="line"/>
      <point x="280" y="73"/>
      <point x="233" y="120"/>
      <point x="220" y="146" type="curve" smooth="yes"/>
      <point x="189" y="206"/>
      <point x="161" y="268"/>
      <point x="133" y="330" type="curve" smooth="yes"/>
      <point x="114" y="372"/>
      <point x="100" y="458"/>
      <point x="54" y="458" type="curve" smooth="yes"/>
      <point x="49" y="458"/>
      <point x="24" y="431"/>
      <point x="24" y="416" type="curve" smooth="yes"/>
      <point x="24" y="412"/>
      <point x="25" y="409"/>
      <point x="25" y="404" type="curve" smooth="yes"/>
      <point x="24" y="274"/>
      <point x="22" y="144"/>
      <point x="22" y="13" type="curve" smooth="yes"/>
      <point x="22" y="-8"/>
      <point x="25" y="-39"/>
      <point x="65" y="-39" type="curve" smooth="yes"/>
      <point x="107" y="-39"/>
      <point x="104" y="80"/>
      <point x="111" y="187" type="curve"/>
      <point x="154" y="119"/>
      <point x="219" y="0"/>
      <point x="288" y="0" type="curve" smooth="yes"/>
      <point x="379" y="0"/>
      <point x="390" y="170"/>
      <point x="399" y="301" type="curve" smooth="yes"/>
      <point x="402" y="339" type="line"/>
      <point x="403" y="343"/>
      <point x="404" y="350"/>
      <point x="404" y="353" type="curve" smooth="yes"/>
      <point x="404" y="368"/>
      <point x="390" y="400"/>
      <point x="372" y="400" type="curve" smooth="yes"/>
      <point x="360" y="400"/>
      <point x="344" y="384"/>
      <point x="338" y="374" type="curve" smooth="yes"/>
      <point x="332" y="362"/>
      <point x="334" y="348"/>
      <point x="333" y="333" type="curve" smooth="yes"/>
      <point x="328" y="281"/>
      <point x="326" y="228"/>
      <point x="318" y="175" type="curve" smooth="yes"/>
      <point x="314" y="146"/>
      <point x="307" y="109"/>
      <point x="297" y="80" type="curve" smooth="yes"/>
      <point x="296" y="76"/>
      <point x="294" y="73"/>
      <point x="287" y="73" type="curve" smooth="yes"/>
    </contour>
  </outline>
</glyph>
<glyph name="O" format="1">
  <advance width="491"/>
  <unicode hex="004F"/>
  <outline>
    <contour>
      <point x="258" y="-38" type="line"/>
      <point x="390" y="-38"/>
      <point x="465" y="94"/>
      <point x="465" y="197" type="curve" smooth="yes"/>
      <point x="465" y="242"/>
      <point x="454" y="290"/>
      <point x="433" y="336" type="curve" smooth="yes"/>
      <point x="424" y="355"/>
      <point x="408" y="372"/>
      <point x="408" y="395" type="curve" smooth="yes"/>
      <point x="408" y="406"/>
      <point x="413" y="414"/>
      <point x="413" y="423" type="curve" smooth="yes"/>
      <point x="413" y="471"/>
      <point x="301" y="505"/>
      <point x="255" y="505" type="curve" smooth="yes"/>
      <point x="199" y="505"/>
      <point x="147" y="481"/>
      <point x="108" y="434" type="curve" smooth="yes"/>
      <point x="54" y="370"/>
      <point x="21" y="263"/>
      <point x="21" y="184" type="curve" smooth="yes"/>
      <point x="22" y="63"/>
      <point x="132" y="-38"/>
      <point x="258" y="-38" type="curve" smooth="yes"/>
    </contour>
    <contour>
      <point x="395" y="197" type="line"/>
      <point x="395" y="101"/>
      <point x="337" y="31"/>
      <point x="255" y="31" type="curve" smooth="yes"/>
      <point x="162" y="31"/>
      <point x="89" y="111"/>
      <point x="89" y="201" type="curve" smooth="yes"/>
      <point x="89" y="298"/>
      <point x="166" y="429"/>
      <point x="242" y="429" type="curve" smooth="yes"/>
      <point x="331" y="429"/>
      <point x="395" y="260"/>
      <point x="395" y="197" type="curve" smooth="yes"/>
    </contour>
  </outline>
</glyph>
<glyph name="P" format="1">
  <advance width="458"/>
  <unicode hex="0050"/>
  <outline>
    <contour>
      <point x="118" y="290" type="line"/>
      <point x="100" y="291"/>
      <point x="87" y="294"/>
      <point x="76" y="294" type="curve" smooth="yes"/>
      <point x="74" y="294"/>
      <point x="24" y="289"/>
      <point x="24" y="266" type="curve" smooth="yes"/>
      <point x="24" y="232"/>
      <point x="73" y="225"/>
      <point x="124" y="209" type="curve"/>
      <point x="124" y="188"/>
      <point x="123" y="166"/>
      <point x="123" y="144" type="curve" smooth="yes"/>
      <point x="123" y="103"/>
      <point x="129" y="-25"/>
      <point x="178" y="-25" type="curve" smooth="yes"/>
      <point x="206" y="-25"/>
      <point x="216" y="-8"/>
      <point x="216" y="3" type="curve" smooth="yes"/>
      <point x="216" y="13"/>
      <point x="211" y="25"/>
      <point x="207" y="37" type="curve" smooth="yes"/>
      <point x="194" y="72"/>
      <point x="190" y="107"/>
      <point x="190" y="143" type="curve" smooth="yes"/>
      <point x="190" y="170"/>
      <point x="192" y="196"/>
      <point x="193" y="222" type="curve"/>
      <point x="297" y="245"/>
      <point x="434" y="302"/>
      <point x="434" y="398" type="curve" smooth="yes"/>
      <point x="434" y="483"/>
      <point x="307" y="531"/>
      <point x="223" y="531" type="curve" smooth="yes"/>
      <point x="173" y="531"/>
      <point x="63" y="520"/>
      <point x="63" y="478" type="curve"/>
      <point x="65" y="464"/>
      <point x="80" y="445"/>
      <point x="92" y="441" type="curve"/>
      <point x="98" y="437"/>
      <point x="109" y="438"/>
      <point x="119" y="436" type="curve"/>
    </contour>
    <contour>
      <point x="195" y="296" type="line"/>
      <point x="188" y="312"/>
      <point x="186" y="327"/>
      <point x="186" y="342" type="curve" smooth="yes"/>
      <point x="186" y="356"/>
      <point x="188" y="372"/>
      <point x="188" y="386" type="curve" smooth="yes"/>
      <point x="188" y="408"/>
      <point x="184" y="430"/>
      <point x="164" y="448" type="curve"/>
      <point x="187" y="454"/>
      <point x="211" y="457"/>
      <point x="234" y="457" type="curve" smooth="yes"/>
      <point x="297" y="457"/>
      <point x="362" y="434"/>
      <point x="362" y="395" type="curve" smooth="yes"/>
      <point x="362" y="359"/>
      <point x="284" y="310"/>
      <point x="195" y="296" type="curve"/>
    </contour>
  </outline>
</glyph>
<glyph name="Q" format="1">
  <advance width="434"/>
  <unicode hex="0051"/>
  <outline>
    <contour>
      <point x="327" y="50" type="line"/>
      <point x="365" y="106"/>
      <point x="403" y="161"/>
      <point x="403" y="234" type="curve" smooth="yes"/>
      <point x="403" y="316"/>
      <point x="348" y="421"/>
      <point x="285" y="424" type="curve"/>
      <point x="277" y="425"/>
      <point x="270" y="425"/>
      <point x="262" y="425" type="curve" smooth="yes"/>
      <point x="127" y="425"/>
      <point x="24" y="318"/>
      <point x="24" y="182" type="curve" smooth="yes"/>
      <point x="24" y="75"/>
      <point x="96" y="5"/>
      <point x="198" y="5" type="curve" smooth="yes"/>
      <point x="223" y="5"/>
      <point x="246" y="8"/>
      <point x="262" y="9" type="curve"/>
      <point x="299" y="-37"/>
      <point x="351" y="-114"/>
      <point x="384" y="-114" type="curve" smooth="yes"/>
      <point x="396" y="-114"/>
      <point x="410" y="-106"/>
      <point x="410" y="-88" type="curve" smooth="yes"/>
      <point x="410" y="-52"/>
      <point x="357" y="8"/>
      <point x="327" y="50" type="curve"/>
    </contour>
    <contour>
      <point x="233" y="83" type="line"/>
      <point x="220" y="81"/>
      <point x="208" y="80"/>
      <point x="196" y="80" type="curve" smooth="yes"/>
      <point x="131" y="80"/>
      <point x="93" y="115"/>
      <point x="93" y="177" type="curve" smooth="yes"/>
      <point x="93" y="254"/>
      <point x="132" y="317"/>
      <point x="204" y="344" type="curve"/>
      <point x="249" y="300"/>
      <point x="266" y="296"/>
      <point x="317" y="294" type="curve"/>
      <point x="327" y="271"/>
      <point x="333" y="249"/>
      <point x="333" y="226" type="curve" smooth="yes"/>
      <point x="333" y="192"/>
      <point x="320" y="158"/>
      <point x="292" y="123" type="curve"/>
      <point x="266" y="170"/>
      <point x="246" y="234"/>
      <point x="217" y="234" type="curve" smooth="yes"/>
      <point x="192" y="234"/>
      <point x="183" y="214"/>
      <point x="183" y="201" type="curve" smooth="yes"/>
      <point x="183" y="173"/>
      <point x="214" y="119"/>
      <point x="233" y="83" type="curve"/>
    </contour>
  </outline>
</glyph>
<glyph name="R" format="1">
  <advance width="595"/>
  <unicode hex="0052"/>
  <outline>
    <contour>
      <point x="161" y="135" type="line"/>
      <point x="205" y="112"/>
      <point x="246" y="107"/>
      <point x="287" y="107" type="curve" smooth="yes"/>
      <point x="311" y="107"/>
      <point x="335" y="108"/>
      <point x="359" y="110" type="curve" smooth="yes"/>
      <point x="426" y="116"/>
      <point x="436" y="113"/>
      <point x="504" y="120" type="curve"/>
      <point x="534" y="120" type="line" smooth="yes"/>
      <point x="552" y="120"/>
      <point x="575" y="124"/>
      <point x="575" y="157" type="curve" smooth="yes"/>
      <point x="575" y="175"/>
      <point x="557" y="186"/>
      <point x="521" y="186" type="curve" smooth="yes"/>
      <point x="426" y="186"/>
      <point x="415" y="178"/>
      <point x="326" y="178" type="curve" smooth="yes"/>
      <point x="302" y="178"/>
      <point x="277" y="181"/>
      <point x="243" y="182" type="curve"/>
      <point x="327" y="274"/>
      <point x="406" y="349"/>
      <point x="406" y="440" type="curve" smooth="yes"/>
      <point x="406" y="504"/>
      <point x="355" y="544"/>
      <point x="276" y="544" type="curve" smooth="yes"/>
      <point x="199" y="544"/>
      <point x="127" y="519"/>
      <point x="58" y="485" type="curve"/>
      <point x="40" y="480"/>
      <point x="26" y="459"/>
      <point x="26" y="448" type="curve" smooth="yes"/>
      <point x="26" y="432"/>
      <point x="38" y="422"/>
      <point x="68" y="409" type="curve"/>
      <point x="77" y="302"/>
      <point x="87" y="198"/>
      <point x="98" y="97" type="curve" smooth="yes"/>
      <point x="103" y="51"/>
      <point x="116" y="-23"/>
      <point x="154" y="-23" type="curve" smooth="yes"/>
      <point x="179" y="-23"/>
      <point x="188" y="-6"/>
      <point x="188" y="8" type="curve" smooth="yes"/>
      <point x="188" y="33"/>
      <point x="169" y="95"/>
      <point x="161" y="135" type="curve"/>
    </contour>
    <contour>
      <point x="153" y="191" type="line"/>
      <point x="135" y="439" type="line"/>
      <point x="169" y="458"/>
      <point x="226" y="471"/>
      <point x="264" y="471" type="curve" smooth="yes"/>
      <point x="309" y="471"/>
      <point x="332" y="462"/>
      <point x="332" y="434" type="curve" smooth="yes"/>
      <point x="332" y="408"/>
      <point x="298" y="350"/>
      <point x="275" y="323" type="curve" smooth="yes"/>
      <point x="239" y="279"/>
      <point x="201" y="238"/>
      <point x="153" y="187" type="curve"/>
    </contour>
  </outline>
</glyph>
<glyph name="S" format="1">
  <advance width="489"/>
  <unicode hex="0053"/>
  <outline>
    <contour>
      <point x="402" y="97" type="line"/>
      <point x="330" y="73"/>
      <point x="264" y="51"/>
      <point x="199" y="51" type="curve" smooth="yes"/>
      <point x="160" y="51"/>
      <point x="122" y="59"/>
      <point x="83" y="81" type="curve"/>
      <point x="73" y="85"/>
      <point x="63" y="90"/>
      <point x="54" y="90" type="curve" smooth="yes"/>
      <point x="39" y="90"/>
      <point x="25" y="71"/>
      <point x="25" y="58" type="curve" smooth="yes"/>
      <point x="25" y="32"/>
      <point x="75" y="-4"/>
      <point x="109" y="-12" type="curve"/>
      <point x="134" y="-16"/>
      <point x="175" y="-20"/>
      <point x="202" y="-20" type="curve" smooth="yes"/>
      <point x="304" y="-20"/>
      <point x="468" y="25"/>
      <point x="468" y="99" type="curve" smooth="yes"/>
      <point x="468" y="160"/>
      <point x="377" y="212"/>
      <point x="329" y="266" type="curve"/>
      <point x="289" y="304"/>
      <point x="232" y="377"/>
      <point x="232" y="416" type="curve" smooth="yes"/>
      <point x="232" y="454"/>
      <point x="268" y="502"/>
      <point x="304" y="502" type="curve" smooth="yes"/>
      <point x="318" y="502"/>
      <point x="335" y="494"/>
      <point x="363" y="474" type="curve"/>
      <point x="372" y="469"/>
      <point x="385" y="462"/>
      <point x="395" y="462" type="curve" smooth="yes"/>
      <point x="409" y="462"/>
      <point x="414" y="477"/>
      <point x="414" y="490" type="curve" smooth="yes"/>
      <point x="414" y="542"/>
      <point x="351" y="571"/>
      <point x="310" y="571" type="curve" smooth="yes"/>
      <point x="231" y="571"/>
      <point x="160" y="491"/>
      <point x="160" y="414" type="curve" smooth="yes"/>
      <point x="160" y="321"/>
      <point x="262" y="234"/>
      <point x="332" y="162" type="curve" smooth="yes"/>
      <point x="351" y="142"/>
      <point x="371" y="131"/>
      <point x="402" y="97" type="curve"/>
    </contour>
  </outline>
</glyph>
<glyph name="T" format="1">
  <advance width="568"/>
  <unicode hex="0054"/>
  <outline>
    <contour>
      <point x="318" y="516" type="line"/>
      <point x="385" y="510"/>
      <point x="444" y="508"/>
      <point x="504" y="502" type="curve" smooth="yes"/>
      <point x="510" y="501"/>
      <point x="517" y="500"/>
      <point x="523" y="500" type="curve" smooth="yes"/>
      <point x="535" y="500"/>
      <point x="552" y="509"/>
      <point x="552" y="532" type="curve" smooth="yes"/>
      <point x="552" y="580"/>
      <point x="456" y="581"/>
      <point x="412" y="581" type="curve"/>
      <point x="300" y="574"/>
      <point x="187" y="568"/>
      <point x="76" y="560" type="curve"/>
      <point x="59" y="560"/>
      <point x="35" y="542"/>
      <point x="35" y="532" type="curve" smooth="yes"/>
      <point x="35" y="496"/>
      <point x="84" y="490"/>
      <point x="126" y="490" type="curve" smooth="yes"/>
      <point x="151" y="490"/>
      <point x="173" y="492"/>
      <point x="180" y="492" type="curve" smooth="yes"/>
      <point x="249" y="492" type="line"/>
      <point x="249" y="440" type="line" smooth="yes"/>
      <point x="250" y="313"/>
      <point x="251" y="185"/>
      <point x="256" y="59" type="curve" smooth="yes"/>
      <point x="258" y="14"/>
      <point x="278" y="-41"/>
      <point x="324" y="-41" type="curve"/>
      <point x="338" y="-39"/>
      <point x="343" y="-30"/>
      <point x="343" y="-19" type="curve" smooth="yes"/>
      <point x="343" y="0"/>
      <point x="325" y="55"/>
      <point x="323" y="92" type="curve" smooth="yes"/>
      <point x="317" y="208"/>
      <point x="315" y="325"/>
      <point x="313" y="441" type="curve"/>
      <point x="314" y="461"/>
      <point x="317" y="492"/>
      <point x="318" y="516" type="curve"/>
    </contour>
  </outline>
</glyph>
<glyph name="U" format="1">
  <advance width="523"/>
  <unicode hex="0055"/>
  <outline>
    <contour>
      <point x="187" y="60" type="line"/>
      <point x="160" y="60"/>
      <point x="125" y="137"/>
      <point x="118" y="157" type="curve" smooth="yes"/>
      <point x="99" y="218"/>
      <point x="92" y="281"/>
      <point x="92" y="343" type="curve" smooth="yes"/>
      <point x="92" y="364"/>
      <point x="93" y="385"/>
      <point x="94" y="406" type="curve" smooth="yes"/>
      <point x="94" y="423" type="line" smooth="yes"/>
      <point x="94" y="436"/>
      <point x="92" y="456"/>
      <point x="89" y="465" type="curve" smooth="yes"/>
      <point x="85" y="476"/>
      <point x="71" y="484"/>
      <point x="61" y="485" type="curve"/>
      <point x="43" y="485"/>
      <point x="28" y="458"/>
      <point x="28" y="443" type="curve"/>
      <point x="26" y="407"/>
      <point x="24" y="371"/>
      <point x="24" y="335" type="curve" smooth="yes"/>
      <point x="24" y="219"/>
      <point x="41" y="107"/>
      <point x="112" y="25" type="curve" smooth="yes"/>
      <point x="131" y="4"/>
      <point x="153" y="-6"/>
      <point x="174" y="-6" type="curve" smooth="yes"/>
      <point x="199" y="-6"/>
      <point x="223" y="8"/>
      <point x="243" y="35" type="curve" smooth="yes"/>
      <point x="255" y="51"/>
      <point x="273" y="83"/>
      <point x="282" y="102" type="curve"/>
      <point x="291" y="73"/>
      <point x="295" y="52"/>
      <point x="304" y="35" type="curve"/>
      <point x="318" y="-3"/>
      <point x="346" y="-62"/>
      <point x="366" y="-97" type="curve"/>
      <point x="378" y="-123"/>
      <point x="413" y="-144"/>
      <point x="441" y="-144" type="curve" smooth="yes"/>
      <point x="447" y="-144"/>
      <point x="458" y="-142"/>
      <point x="463" y="-141" type="curve" smooth="yes"/>
      <point x="478" y="-137"/>
      <point x="500" y="-126"/>
      <point x="501" y="-109" type="curve" smooth="yes"/>
      <point x="501" y="-92"/>
      <point x="482" y="-76"/>
      <point x="469" y="-75" type="curve" smooth="yes"/>
      <point x="427" y="-72"/>
      <point x="414" y="-44"/>
      <point x="400" y="-14" type="curve" smooth="yes"/>
      <point x="391" y="5"/>
      <point x="379" y="39"/>
      <point x="373" y="60" type="curve" smooth="yes"/>
      <point x="342" y="162"/>
      <point x="324" y="266"/>
      <point x="324" y="373" type="curve" smooth="yes"/>
      <point x="324" y="398"/>
      <point x="325" y="424"/>
      <point x="327" y="449" type="curve" smooth="yes"/>
      <point x="328" y="460"/>
      <point x="329" y="476"/>
      <point x="329" y="485" type="curve" smooth="yes"/>
      <point x="329" y="495"/>
      <point x="328" y="510"/>
      <point x="327" y="521" type="curve"/>
      <point x="324" y="533"/>
      <point x="311" y="556"/>
      <point x="295" y="556" type="curve" smooth="yes"/>
      <point x="279" y="556"/>
      <point x="265" y="537"/>
      <point x="261" y="524" type="curve" smooth="yes"/>
      <point x="253" y="498"/>
      <point x="255" y="468"/>
      <point x="252" y="440" type="curve" smooth="yes"/>
      <point x="243" y="351"/>
      <point x="235" y="261"/>
      <point x="223" y="171" type="curve" smooth="yes"/>
      <point x="218" y="135"/>
      <point x="205" y="65"/>
      <point x="187" y="60" type="curve"/>
    </contour>
  </outline>
</glyph>
<glyph name="V" format="1">
  <advance width="385"/>
  <unicode hex="0056"/>
  <outline>
    <contour>
      <point x="259" y="69" type="line"/>
      <point x="213" y="105"/>
      <point x="203" y="136"/>
      <point x="187" y="172" type="curve" smooth="yes"/>
      <point x="154" y="245"/>
      <point x="126" y="318"/>
      <point x="96" y="392" type="curve"/>
      <point x="84" y="416"/>
      <point x="77" y="446"/>
      <point x="42" y="446" type="curve" smooth="yes"/>
      <point x="28" y="446"/>
      <point x="23" y="430"/>
      <point x="23" y="413" type="curve" smooth="yes"/>
      <point x="23" y="406"/>
      <point x="25" y="397"/>
      <point x="27" y="391" type="curve" smooth="yes"/>
      <point x="65" y="294"/>
      <point x="104" y="198"/>
      <point x="145" y="105" type="curve" smooth="yes"/>
      <point x="168" y="52"/>
      <point x="220" y="-4"/>
      <point x="256" y="-4" type="curve" smooth="yes"/>
      <point x="345" y="-4"/>
      <point x="360" y="188"/>
      <point x="360" y="292" type="curve" smooth="yes"/>
      <point x="360" y="300" type="line" smooth="yes"/>
      <point x="360" y="368"/>
      <point x="359" y="496"/>
      <point x="314" y="496" type="curve" smooth="yes"/>
      <point x="283" y="496"/>
      <point x="278" y="476"/>
      <point x="278" y="454" type="curve" smooth="yes"/>
      <point x="278" y="442"/>
      <point x="282" y="427"/>
      <point x="282" y="415" type="curve" smooth="yes"/>
      <point x="283" y="367"/>
      <point x="285" y="319"/>
      <point x="285" y="272" type="curve" smooth="yes"/>
      <point x="285" y="198"/>
      <point x="275" y="147"/>
      <point x="259" y="69" type="curve"/>
    </contour>
  </outline>
</glyph>
<glyph name="W" format="1">
  <advance width="707"/>
  <unicode hex="0057"/>
  <outline>
    <contour>
      <point x="401" y="124" type="line"/>
      <point x="465" y="50"/>
      <point x="505" y="8"/>
      <point x="560" y="8" type="curve" smooth="yes"/>
      <point x="619" y="8"/>
      <point x="681" y="76"/>
      <point x="681" y="191" type="curve" smooth="yes"/>
      <point x="681" y="274"/>
      <point x="675" y="357"/>
      <point x="666" y="440" type="curve" smooth="yes"/>
      <point x="659" y="503"/>
      <point x="621" y="556"/>
      <point x="567" y="583" type="curve" smooth="yes"/>
      <point x="563" y="585"/>
      <point x="557" y="586"/>
      <point x="551" y="586" type="curve" smooth="yes"/>
      <point x="534" y="586"/>
      <point x="519" y="579"/>
      <point x="519" y="563" type="curve" smooth="yes"/>
      <point x="519" y="550"/>
      <point x="527" y="534"/>
      <point x="534" y="530" type="curve" smooth="yes"/>
      <point x="566" y="510"/>
      <point x="592" y="467"/>
      <point x="594" y="433" type="curve"/>
      <point x="602" y="370"/>
      <point x="609" y="270"/>
      <point x="610" y="208" type="curve"/>
      <point x="608" y="155"/>
      <point x="584" y="78"/>
      <point x="552" y="78" type="curve" smooth="yes"/>
      <point x="524" y="78"/>
      <point x="476" y="137"/>
      <point x="456" y="180" type="curve"/>
      <point x="416" y="253"/>
      <point x="393" y="343"/>
      <point x="393" y="425" type="curve" smooth="yes"/>
      <point x="393" y="459"/>
      <point x="381" y="499"/>
      <point x="357" y="499" type="curve" smooth="yes"/>
      <point x="327" y="499"/>
      <point x="318" y="454"/>
      <point x="318" y="433" type="curve" smooth="yes"/>
      <point x="318" y="364"/>
      <point x="321" y="295"/>
      <point x="321" y="226" type="curve" smooth="yes"/>
      <point x="321" y="207"/>
      <point x="323" y="183"/>
      <point x="323" y="159" type="curve" smooth="yes"/>
      <point x="323" y="109"/>
      <point x="305" y="33"/>
      <point x="278" y="25" type="curve" smooth="yes"/>
      <point x="252" y="17"/>
      <point x="207" y="81"/>
      <point x="192" y="120" type="curve" smooth="yes"/>
      <point x="159" y="208"/>
      <point x="134" y="300"/>
      <point x="108" y="391" type="curve" smooth="yes"/>
      <point x="94" y="439"/>
      <point x="91" y="524"/>
      <point x="49" y="524" type="curve" smooth="yes"/>
      <point x="25" y="524"/>
      <point x="17" y="507"/>
      <point x="17" y="492" type="curve" smooth="yes"/>
      <point x="17" y="485"/>
      <point x="18" y="479"/>
      <point x="20" y="472" type="curve" smooth="yes"/>
      <point x="44" y="351"/>
      <point x="76" y="221"/>
      <point x="128" y="94" type="curve" smooth="yes"/>
      <point x="153" y="31"/>
      <point x="222" y="-47"/>
      <point x="277" y="-47" type="curve" smooth="yes"/>
      <point x="311" y="-47"/>
      <point x="341" y="-25"/>
      <point x="360" y="15" type="curve" smooth="yes"/>
      <point x="375" y="46"/>
      <point x="381" y="82"/>
      <point x="396" y="124" type="curve"/>
    </contour>
  </outline>
</glyph>
<glyph name="X" format="1">
  <advance width="529"/>
  <unicode hex="0058"/>
  <outline>
    <contour>
      <point x="289" y="196" type="line"/>
      <point x="351" y="129"/>
      <point x="387" y="81"/>
      <point x="440" y="25" type="curve" smooth="yes"/>
      <point x="450" y="14"/>
      <point x="461" y="7"/>
      <point x="473" y="7" type="curve" smooth="yes"/>
      <point x="490" y="7"/>
      <point x="505" y="26"/>
      <point x="505" y="39" type="curve" smooth="yes"/>
      <point x="505" y="60"/>
      <point x="479" y="78"/>
      <point x="463" y="101" type="curve"/>
      <point x="419" y="150"/>
      <point x="374" y="203"/>
      <point x="329" y="255" type="curve"/>
      <point x="369" y="323"/>
      <point x="406" y="387"/>
      <point x="444" y="450" type="curve" smooth="yes"/>
      <point x="451" y="462"/>
      <point x="463" y="485"/>
      <point x="463" y="495" type="curve" smooth="yes"/>
      <point x="463" y="514"/>
      <point x="457" y="531"/>
      <point x="439" y="531" type="curve" smooth="yes"/>
      <point x="412" y="531"/>
      <point x="390" y="496"/>
      <point x="378" y="471" type="curve"/>
      <point x="345" y="420"/>
      <point x="313" y="367"/>
      <point x="278" y="312" type="curve"/>
      <point x="215" y="363"/>
      <point x="149" y="425"/>
      <point x="76" y="425" type="curve" smooth="yes"/>
      <point x="63" y="425"/>
      <point x="21" y="424"/>
      <point x="21" y="388" type="curve" smooth="yes"/>
      <point x="21" y="375"/>
      <point x="43" y="363"/>
      <point x="52" y="363" type="curve" smooth="yes"/>
      <point x="141" y="362"/>
      <point x="181" y="296"/>
      <point x="235" y="244" type="curve"/>
      <point x="178" y="162"/>
      <point x="127" y="82"/>
      <point x="71" y="3" type="curve" smooth="yes"/>
      <point x="54" y="-21"/>
      <point x="30" y="-57"/>
      <point x="30" y="-78" type="curve" smooth="yes"/>
      <point x="30" y="-93"/>
      <point x="36" y="-106"/>
      <point x="52" y="-106" type="curve" smooth="yes"/>
      <point x="83" y="-106"/>
      <point x="110" y="-67"/>
      <point x="131" y="-37" type="curve" smooth="yes"/>
      <point x="181" y="36"/>
      <point x="230" y="107"/>
      <point x="289" y="196" type="curve"/>
    </contour>
  </outline>
</glyph>
<glyph name="Y" format="1">
  <advance width="467"/>
  <unicode hex="0059"/>
  <outline>
    <contour>
      <point x="324" y="401" type="line"/>
      <point x="253" y="439"/>
      <point x="199" y="482"/>
      <point x="144" y="526" type="curve" smooth="yes"/>
      <point x="115" y="549" type="line" smooth="yes"/>
      <point x="97" y="564"/>
      <point x="63" y="591"/>
      <point x="47" y="591" type="curve" smooth="yes"/>
      <point x="31" y="591"/>
      <point x="9" y="584"/>
      <point x="9" y="567" type="curve" smooth="yes"/>
      <point x="9" y="538"/>
      <point x="77" y="489"/>
      <point x="118" y="460" type="curve" smooth="yes"/>
      <point x="174" y="420"/>
      <point x="229" y="373"/>
      <point x="290" y="339" type="curve"/>
      <point x="316" y="328"/>
      <point x="338" y="293"/>
      <point x="338" y="265" type="curve"/>
      <point x="344" y="191"/>
      <point x="352" y="117"/>
      <point x="363" y="42" type="curve" smooth="yes"/>
      <point x="368" y="13"/>
      <point x="376" y="-29"/>
      <point x="408" y="-29" type="curve" smooth="yes"/>
      <point x="421" y="-29"/>
      <point x="441" y="-3"/>
      <point x="441" y="7" type="curve" smooth="yes"/>
      <point x="441" y="15"/>
      <point x="437" y="24"/>
      <point x="436" y="33" type="curve" smooth="yes"/>
      <point x="422" y="167"/>
      <point x="406" y="300"/>
      <point x="392" y="434" type="curve"/>
      <point x="391" y="437"/>
      <point x="390" y="444"/>
      <point x="390" y="447" type="curve" smooth="yes"/>
      <point x="390" y="476"/>
      <point x="404" y="493"/>
      <point x="404" y="516" type="curve" smooth="yes"/>
      <point x="404" y="557"/>
      <point x="384" y="618"/>
      <point x="350" y="618" type="curve" smooth="yes"/>
      <point x="320" y="618"/>
      <point x="317" y="582"/>
      <point x="317" y="550" type="curve" smooth="yes"/>
      <point x="317" y="520" type="line"/>
    </contour>
  </outline>
</glyph>
<glyph name="Z" format="1">
  <advance width="633"/>
  <unicode hex="005A"/>
  <outline>
    <contour>
      <point x="252" y="383" type="line"/>
      <point x="225" y="293"/>
      <point x="195" y="204"/>
      <point x="161" y="115" type="curve" smooth="yes"/>
      <point x="152" y="91"/>
      <point x="148" y="71"/>
      <point x="148" y="55" type="curve" smooth="yes"/>
      <point x="148" y="6"/>
      <point x="183" y="-13"/>
      <point x="228" y="-13" type="curve" smooth="yes"/>
      <point x="244" y="-13"/>
      <point x="270" y="-11"/>
      <point x="283" y="-6" type="curve" smooth="yes"/>
      <point x="375" y="25"/>
      <point x="467" y="56"/>
      <point x="558" y="89" type="curve" smooth="yes"/>
      <point x="592" y="101"/>
      <point x="609" y="120"/>
      <point x="609" y="134" type="curve" smooth="yes"/>
      <point x="609" y="156"/>
      <point x="585" y="166"/>
      <point x="575" y="166" type="curve" smooth="yes"/>
      <point x="561" y="166"/>
      <point x="546" y="158"/>
      <point x="532" y="153" type="curve" smooth="yes"/>
      <point x="458" y="127"/>
      <point x="384" y="97"/>
      <point x="308" y="72" type="curve" smooth="yes"/>
      <point x="284" y="64"/>
      <point x="240" y="48"/>
      <point x="221" y="48" type="curve" smooth="yes"/>
      <point x="215" y="48"/>
      <point x="212" y="50"/>
      <point x="212" y="54" type="curve" smooth="yes"/>
      <point x="212" y="89"/>
      <point x="318" y="316"/>
      <point x="332" y="450" type="curve" smooth="yes"/>
      <point x="333" y="460"/>
      <point x="333" y="472"/>
      <point x="333" y="482" type="curve" smooth="yes"/>
      <point x="333" y="553"/>
      <point x="322" y="619"/>
      <point x="253" y="619" type="curve" smooth="yes"/>
      <point x="170" y="619"/>
      <point x="101" y="572"/>
      <point x="31" y="526" type="curve" smooth="yes"/>
      <point x="26" y="523"/>
      <point x="24" y="512"/>
      <point x="24" y="502" type="curve" smooth="yes"/>
      <point x="24" y="487"/>
      <point x="27" y="475"/>
      <point x="53" y="475" type="curve" smooth="yes"/>
      <point x="64" y="475"/>
      <point x="97" y="490"/>
      <point x="113" y="499" type="curve"/>
      <point x="158" y="517"/>
      <point x="198" y="546"/>
      <point x="254" y="546" type="curve" smooth="yes"/>
      <point x="267" y="546"/>
      <point x="268" y="513"/>
      <point x="268" y="493" type="curve" smooth="yes"/>
      <point x="268" y="448"/>
      <point x="259" y="415"/>
      <point x="252" y="383" type="curve"/>
    </contour>
  </outline>
</glyph>
<glyph name="bracketleft" format="1">
  <advance width="345"/>
  <unicode hex="005B"/>
  <outline>
    <contour>
      <point x="110" y="-79" type="line"/>
      <point x="130" y="-79"/>
      <point x="149" y="-80"/>
      <point x="167" y="-80" type="curve" smooth="yes"/>
      <point x="226" y="-80"/>
      <point x="254" y="-70"/>
      <point x="303" y="-70" type="curve" smooth="yes"/>
      <point x="322" y="-70"/>
      <point x="335" y="-85"/>
      <point x="335" y="-102" type="curve" smooth="yes"/>
      <point x="335" y="-120"/>
      <point x="315" y="-132"/>
      <point x="302" y="-138" type="curve"/>
      <point x="268" y="-156"/>
      <point x="132" y="-160"/>
      <point x="91" y="-160" type="curve" smooth="yes"/>
      <point x="35" y="-160"/>
      <point x="23" y="-137"/>
      <point x="23" y="-79" type="curve"/>
      <point x="23" y="94" type="line"/>
      <point x="23" y="243"/>
      <point x="22" y="384"/>
      <point x="10" y="554" type="curve"/>
      <point x="6" y="562"/>
      <point x="4" y="570"/>
      <point x="4" y="577" type="curve" smooth="yes"/>
      <point x="4" y="597"/>
      <point x="19" y="613"/>
      <point x="46" y="613" type="curve"/>
      <point x="107" y="633"/>
      <point x="163" y="647"/>
      <point x="221" y="647" type="curve"/>
      <point x="236" y="647"/>
      <point x="249" y="647"/>
      <point x="249" y="647" type="curve"/>
      <point x="264" y="641"/>
      <point x="277" y="626"/>
      <point x="277" y="611" type="curve" smooth="yes"/>
      <point x="277" y="598"/>
      <point x="264" y="582"/>
      <point x="249" y="582" type="curve"/>
      <point x="194" y="566"/>
      <point x="159" y="570"/>
      <point x="103" y="554" type="curve"/>
      <point x="103" y="382"/>
      <point x="110" y="109"/>
      <point x="110" y="-79" type="curve"/>
    </contour>
  </outline>
</glyph>
<glyph name="backslash" format="1">
  <advance width="329"/>
  <unicode hex="005C"/>
  <outline>
    <contour>
      <point x="20" y="578" type="line"/>
      <point x="53" y="453"/>
      <point x="141" y="163"/>
      <point x="197" y="18" type="curve" smooth="yes"/>
      <point x="221" y="-42"/>
      <point x="256" y="-185"/>
      <point x="320" y="-185" type="curve" smooth="yes"/>
      <point x="344" y="-185"/>
      <point x="344" y="-171"/>
      <point x="344" y="-151" type="curve" smooth="yes"/>
      <point x="344" y="-119"/>
      <point x="323" y="-83"/>
      <point x="309" y="-54" type="curve"/>
      <point x="246" y="115"/>
      <point x="137" y="463"/>
      <point x="80" y="637" type="curve" smooth="yes"/>
      <point x="73" y="660"/>
      <point x="69" y="687"/>
      <point x="44" y="687" type="curve" smooth="yes"/>
      <point x="13" y="687"/>
      <point x="1" y="666"/>
      <point x="1" y="640" type="curve" smooth="yes"/>
      <point x="1" y="623"/>
      <point x="14" y="602"/>
      <point x="20" y="578" type="curve" smooth="yes"/>
    </contour>
  </outline>
</glyph>
<glyph name="bracketright" format="1">
  <advance width="343"/>
  <unicode hex="005D"/>
  <outline>
    <contour>
      <point x="239" y="-51" type="line"/>
      <point x="226" y="133"/>
      <point x="209" y="237"/>
      <point x="209" y="368" type="curve" smooth="yes"/>
      <point x="209" y="432"/>
      <point x="213" y="502"/>
      <point x="223" y="591" type="curve"/>
      <point x="136" y="573"/>
      <point x="142" y="565"/>
      <point x="46" y="565" type="curve"/>
      <point x="21" y="565"/>
      <point x="7" y="584"/>
      <point x="7" y="597" type="curve" smooth="yes"/>
      <point x="7" y="604"/>
      <point x="12" y="611"/>
      <point x="26" y="615" type="curve" smooth="yes"/>
      <point x="72" y="628"/>
      <point x="151" y="647"/>
      <point x="223" y="656" type="curve" smooth="yes"/>
      <point x="233" y="657"/>
      <point x="242" y="658"/>
      <point x="249" y="658" type="curve" smooth="yes"/>
      <point x="276" y="658"/>
      <point x="287" y="647"/>
      <point x="287" y="607" type="curve" smooth="yes"/>
      <point x="287" y="510"/>
      <point x="283" y="446"/>
      <point x="283" y="382" type="curve" smooth="yes"/>
      <point x="283" y="267"/>
      <point x="293" y="113"/>
      <point x="319" y="-31" type="curve"/>
      <point x="321" y="-39"/>
      <point x="321" y="-48"/>
      <point x="321" y="-55" type="curve" smooth="yes"/>
      <point x="321" y="-85"/>
      <point x="309" y="-106"/>
      <point x="284" y="-115" type="curve"/>
      <point x="209" y="-129"/>
      <point x="188" y="-151"/>
      <point x="111" y="-151" type="curve" smooth="yes"/>
      <point x="75" y="-151"/>
      <point x="39" y="-137"/>
      <point x="39" y="-99" type="curve" smooth="yes"/>
      <point x="39" y="-76"/>
      <point x="70" y="-76"/>
      <point x="83" y="-76" type="curve"/>
      <point x="95" y="-76" type="line"/>
      <point x="144" y="-76"/>
      <point x="180" y="-65"/>
      <point x="239" y="-51" type="curve"/>
    </contour>
  </outline>
</glyph>
<glyph name="underscore" format="1">
  <advance width="613"/>
  <unicode hex="005F"/>
  <outline>
    <contour>
      <point x="405" y="3" type="line"/>
      <point x="392" y="2"/>
      <point x="371" y="2"/>
      <point x="346" y="2" type="curve" smooth="yes"/>
      <point x="305" y="2"/>
      <point x="251" y="3"/>
      <point x="203" y="3" type="curve"/>
      <point x="189" y="3" type="line"/>
      <point x="92" y="3"/>
      <point x="44" y="2"/>
      <point x="44" y="-38" type="curve"/>
      <point x="46" y="-61"/>
      <point x="80" y="-81"/>
      <point x="104" y="-81" type="curve" smooth="yes"/>
      <point x="117" y="-81"/>
      <point x="131" y="-77"/>
      <point x="144" y="-76" type="curve" smooth="yes"/>
      <point x="169" y="-74"/>
      <point x="195" y="-74"/>
      <point x="220" y="-74" type="curve" smooth="yes"/>
      <point x="272" y="-74"/>
      <point x="324" y="-76"/>
      <point x="376" y="-76" type="curve" smooth="yes"/>
      <point x="402" y="-76"/>
      <point x="427" y="-76"/>
      <point x="453" y="-74" type="curve" smooth="yes"/>
      <point x="474" y="-73" type="line" smooth="yes"/>
      <point x="514" y="-71"/>
      <point x="557" y="-65"/>
      <point x="557" y="-32" type="curve" smooth="yes"/>
      <point x="557" y="2"/>
      <point x="525" y="8"/>
      <point x="486" y="8" type="curve" smooth="yes"/>
      <point x="460" y="8"/>
      <point x="428" y="4"/>
      <point x="405" y="3" type="curve" smooth="yes"/>
    </contour>
  </outline>
</glyph>
<glyph name="a" format="1">
  <advance width="525"/>
  <unicode hex="0061"/>
  <outline>
    <contour>
      <point x="337" y="151" type="line"/>
      <point x="354" y="108"/>
      <point x="361" y="69"/>
      <point x="383" y="39" type="curve" smooth="yes"/>
      <point x="404" y="9"/>
      <point x="456" y="-34"/>
      <point x="472" y="-34" type="curve" smooth="yes"/>
      <point x="492" y="-34"/>
      <point x="502" y="-17"/>
      <point x="502" y="-2" type="curve" smooth="yes"/>
      <point x="502" y="9"/>
      <point x="495" y="26"/>
      <point x="485" y="36" type="curve"/>
      <point x="415" y="71"/>
      <point x="411" y="184"/>
      <point x="399" y="259" type="curve" smooth="yes"/>
      <point x="385" y="347"/>
      <point x="399" y="436"/>
      <point x="296" y="436" type="curve" smooth="yes"/>
      <point x="157" y="436"/>
      <point x="26" y="278"/>
      <point x="26" y="127" type="curve" smooth="yes"/>
      <point x="26" y="44"/>
      <point x="81" y="-11"/>
      <point x="148" y="-11" type="curve" smooth="yes"/>
      <point x="238" y="-11"/>
      <point x="302" y="91"/>
      <point x="337" y="151" type="curve"/>
    </contour>
    <contour>
      <point x="319" y="359" type="line"/>
      <point x="311" y="249"/>
      <point x="233" y="58"/>
      <point x="149" y="58" type="curve" smooth="yes"/>
      <point x="118" y="58"/>
      <point x="97" y="86"/>
      <point x="97" y="128" type="curve" smooth="yes"/>
      <point x="97" y="218"/>
      <point x="187" y="361"/>
      <point x="285" y="361" type="curve" smooth="yes"/>
      <point x="296" y="361"/>
      <point x="307" y="359"/>
      <point x="319" y="359" type="curve"/>
    </contour>
  </outline>
</glyph>
<glyph name="b" format="1">
  <advance width="700"/>
  <unicode hex="0062"/>
  <outline>
    <contour>
      <point x="446" y="336" type="line"/>
      <point x="464" y="383"/>
      <point x="481" y="406"/>
      <point x="481" y="446" type="curve" smooth="yes"/>
      <point x="481" y="539"/>
      <point x="400" y="586"/>
      <point x="274" y="586" type="curve" smooth="yes"/>
      <point x="187" y="586"/>
      <point x="24" y="556"/>
      <point x="24" y="495" type="curve" smooth="yes"/>
      <point x="24" y="458"/>
      <point x="64" y="474"/>
      <point x="87" y="457" type="curve"/>
      <point x="105" y="357"/>
      <point x="120" y="258"/>
      <point x="136" y="159" type="curve" smooth="yes"/>
      <point x="146" y="97"/>
      <point x="160" y="43"/>
      <point x="223" y="8" type="curve" smooth="yes"/>
      <point x="259" y="-12"/>
      <point x="294" y="-27"/>
      <point x="333" y="-27" type="curve" smooth="yes"/>
      <point x="473" y="-27"/>
      <point x="673" y="94"/>
      <point x="673" y="201" type="curve" smooth="yes"/>
      <point x="673" y="328"/>
      <point x="531" y="331"/>
      <point x="457" y="333" type="curve" smooth="yes"/>
      <point x="445" y="333" type="line"/>
    </contour>
    <contour>
      <point x="201" y="208" type="line"/>
      <point x="293" y="229"/>
      <point x="388" y="259"/>
      <point x="476" y="259" type="curve" smooth="yes"/>
      <point x="536" y="259"/>
      <point x="604" y="247"/>
      <point x="604" y="204" type="curve" smooth="yes"/>
      <point x="604" y="130"/>
      <point x="415" y="40"/>
      <point x="324" y="40" type="curve" smooth="yes"/>
      <point x="279" y="40"/>
      <point x="224" y="89"/>
      <point x="214" y="132" type="curve" smooth="yes"/>
      <point x="209" y="153"/>
      <point x="205" y="174"/>
      <point x="201" y="208" type="curve"/>
    </contour>
    <contour>
      <point x="157" y="504" type="line"/>
      <point x="202" y="505"/>
      <point x="245" y="510"/>
      <point x="287" y="510" type="curve" smooth="yes"/>
      <point x="366" y="510"/>
      <point x="410" y="488"/>
      <point x="410" y="441" type="curve" smooth="yes"/>
      <point x="410" y="384"/>
      <point x="343" y="337"/>
      <point x="281" y="303" type="curve" smooth="yes"/>
      <point x="257" y="290"/>
      <point x="227" y="288"/>
      <point x="193" y="279" type="curve"/>
    </contour>
  </outline>
</glyph>
<glyph name="c" format="1">
  <advance width="487"/>
  <unicode hex="0063"/>
  <outline>
    <contour>
      <point x="156" y="383" type="line"/>
      <point x="162" y="379"/>
      <point x="172" y="377"/>
      <point x="178" y="377" type="curve" smooth="yes"/>
      <point x="207" y="379"/>
      <point x="217" y="380"/>
      <point x="217" y="404" type="curve" smooth="yes"/>
      <point x="217" y="431"/>
      <point x="199" y="460"/>
      <point x="167" y="460" type="curve" smooth="yes"/>
      <point x="139" y="460"/>
      <point x="91" y="422"/>
      <point x="65" y="387" type="curve" smooth="yes"/>
      <point x="31" y="341"/>
      <point x="23" y="284"/>
      <point x="23" y="228" type="curve" smooth="yes"/>
      <point x="23" y="100"/>
      <point x="99" y="-8"/>
      <point x="247" y="-8" type="curve" smooth="yes"/>
      <point x="331" y="-8"/>
      <point x="415" y="36"/>
      <point x="451" y="106" type="curve" smooth="yes"/>
      <point x="457" y="116"/>
      <point x="461" y="126"/>
      <point x="461" y="136" type="curve" smooth="yes"/>
      <point x="461" y="145"/>
      <point x="455" y="158"/>
      <point x="439" y="158" type="curve" smooth="yes"/>
      <point x="396" y="158"/>
      <point x="375" y="114"/>
      <point x="344" y="90" type="curve" smooth="yes"/>
      <point x="317" y="69"/>
      <point x="282" y="60"/>
      <point x="250" y="60" type="curve" smooth="yes"/>
      <point x="162" y="60"/>
      <point x="90" y="124"/>
      <point x="90" y="225" type="curve" smooth="yes"/>
      <point x="90" y="283"/>
      <point x="113" y="344"/>
      <point x="154" y="387" type="curve"/>
    </contour>
  </outline>
</glyph>
<glyph name="d" format="1">
  <advance width="521"/>
  <unicode hex="0064"/>
  <outline>
    <contour>
      <point x="498" y="240" type="line"/>
      <point x="498" y="304"/>
      <point x="414" y="375"/>
      <point x="361" y="393" type="curve" smooth="yes"/>
      <point x="264" y="425"/>
      <point x="163" y="456"/>
      <point x="64" y="483" type="curve"/>
      <point x="49" y="483"/>
      <point x="23" y="479"/>
      <point x="23" y="458" type="curve" smooth="yes"/>
      <point x="23" y="448"/>
      <point x="27" y="437"/>
      <point x="35" y="432" type="curve"/>
      <point x="60" y="412"/>
      <point x="64" y="384"/>
      <point x="67" y="355" type="curve" smooth="yes"/>
      <point x="78" y="257"/>
      <point x="86" y="159"/>
      <point x="103" y="61" type="curve" smooth="yes"/>
      <point x="109" y="28"/>
      <point x="134" y="-18"/>
      <point x="156" y="-18" type="curve" smooth="yes"/>
      <point x="169" y="-18"/>
      <point x="183" y="-7"/>
      <point x="197" y="-4" type="curve" smooth="yes"/>
      <point x="209" y="-1"/>
      <point x="223" y="-2"/>
      <point x="237" y="1" type="curve" smooth="yes"/>
      <point x="332" y="19"/>
      <point x="498" y="138"/>
      <point x="498" y="240" type="curve" smooth="yes"/>
    </contour>
    <contour>
      <point x="128" y="399" type="line"/>
      <point x="257" y="351"/>
      <point x="421" y="314"/>
      <point x="421" y="242" type="curve" smooth="yes"/>
      <point x="421" y="170"/>
      <point x="293" y="71"/>
      <point x="191" y="71" type="curve" smooth="yes"/>
      <point x="169" y="71" type="line"/>
    </contour>
  </outline>
</glyph>
<glyph name="e" format="1">
  <advance width="447"/>
  <unicode hex="0065"/>
  <outline>
    <contour>
      <point x="89" y="432" type="line"/>
      <point x="171" y="437"/>
      <point x="327" y="466"/>
      <point x="327" y="525" type="curve" smooth="yes"/>
      <point x="327" y="546"/>
      <point x="305" y="556"/>
      <point x="295" y="556" type="curve" smooth="yes"/>
      <point x="280" y="556"/>
      <point x="266" y="543"/>
      <point x="251" y="537" type="curve" smooth="yes"/>
      <point x="210" y="519"/>
      <point x="170" y="502"/>
      <point x="126" y="502" type="curve" smooth="yes"/>
      <point x="109" y="502"/>
      <point x="91" y="505"/>
      <point x="72" y="512" type="curve" smooth="yes"/>
      <point x="69" y="513"/>
      <point x="63" y="516"/>
      <point x="60" y="516" type="curve" smooth="yes"/>
      <point x="24" y="516"/>
      <point x="22" y="454"/>
      <point x="22" y="421" type="curve" smooth="yes"/>
      <point x="22" y="309"/>
      <point x="33" y="186"/>
      <point x="62" y="65" type="curve" smooth="yes"/>
      <point x="75" y="10"/>
      <point x="107" y="-19"/>
      <point x="151" y="-19" type="curve" smooth="yes"/>
      <point x="227" y="-19"/>
      <point x="391" y="82"/>
      <point x="420" y="161" type="curve"/>
      <point x="420" y="172"/>
      <point x="417" y="202"/>
      <point x="400" y="202" type="curve" smooth="yes"/>
      <point x="366" y="202"/>
      <point x="361" y="182"/>
      <point x="348" y="168" type="curve" smooth="yes"/>
      <point x="300" y="118"/>
      <point x="206" y="64"/>
      <point x="138" y="48" type="curve"/>
      <point x="128" y="99"/>
      <point x="109" y="150"/>
      <point x="109" y="185" type="curve" smooth="yes"/>
      <point x="109" y="210"/>
      <point x="120" y="225"/>
      <point x="147" y="240" type="curve" smooth="yes"/>
      <point x="214" y="277"/>
      <point x="320" y="343"/>
      <point x="320" y="378" type="curve" smooth="yes"/>
      <point x="320" y="396"/>
      <point x="298" y="410"/>
      <point x="286" y="410" type="curve" smooth="yes"/>
      <point x="269" y="410"/>
      <point x="256" y="393"/>
      <point x="241" y="383" type="curve" smooth="yes"/>
      <point x="197" y="351"/>
      <point x="155" y="316"/>
      <point x="99" y="295" type="curve"/>
    </contour>
  </outline>
</glyph>
<glyph name="f" format="1">
  <advance width="537"/>
  <unicode hex="0066"/>
  <outline>
    <contour>
      <point x="151" y="198" type="line"/>
      <point x="247" y="215"/>
      <point x="338" y="231"/>
      <point x="428" y="245" type="curve" smooth="yes"/>
      <point x="464" y="250"/>
      <point x="511" y="248"/>
      <point x="511" y="285" type="curve" smooth="yes"/>
      <point x="511" y="311"/>
      <point x="493" y="316"/>
      <point x="474" y="316" type="curve" smooth="yes"/>
      <point x="364" y="316"/>
      <point x="253" y="285"/>
      <point x="140" y="264" type="curve"/>
      <point x="123" y="404" type="line"/>
      <point x="203" y="411"/>
      <point x="277" y="413"/>
      <point x="351" y="417" type="curve"/>
      <point x="366" y="417" type="line" smooth="yes"/>
      <point x="388" y="417"/>
      <point x="413" y="419"/>
      <point x="413" y="451" type="curve" smooth="yes"/>
      <point x="413" y="472"/>
      <point x="393" y="485"/>
      <point x="348" y="485" type="curve" smooth="yes"/>
      <point x="328" y="485" type="line" smooth="yes"/>
      <point x="266" y="485"/>
      <point x="204" y="478"/>
      <point x="142" y="474" type="curve" smooth="yes"/>
      <point x="69" y="469"/>
      <point x="50" y="458"/>
      <point x="50" y="395" type="curve" smooth="yes"/>
      <point x="50" y="379"/>
      <point x="53" y="355"/>
      <point x="53" y="339" type="curve" smooth="yes"/>
      <point x="53" y="311"/>
      <point x="49" y="289"/>
      <point x="49" y="254" type="curve" smooth="yes"/>
      <point x="49" y="180"/>
      <point x="61" y="151"/>
      <point x="61" y="98" type="curve" smooth="yes"/>
      <point x="61" y="79" type="line" smooth="yes"/>
      <point x="61" y="37"/>
      <point x="64" y="-26"/>
      <point x="106" y="-26" type="curve" smooth="yes"/>
      <point x="130" y="-26"/>
      <point x="150" y="9"/>
      <point x="150" y="39" type="curve" smooth="yes"/>
    </contour>
  </outline>
</glyph>
<glyph name="g" format="1">
  <advance width="726"/>
  <unicode hex="0067"/>
  <outline>
    <contour>
      <point x="355" y="129" type="line"/>
      <point x="342" y="85"/>
      <point x="317" y="65"/>
      <point x="276" y="65" type="curve" smooth="yes"/>
      <point x="170" y="65"/>
      <point x="94" y="165"/>
      <point x="94" y="262" type="curve" smooth="yes"/>
      <point x="94" y="316"/>
      <point x="128" y="402"/>
      <point x="185" y="402" type="curve" smooth="yes"/>
      <point x="226" y="402"/>
      <point x="226" y="327"/>
      <point x="252" y="327" type="curve" smooth="yes"/>
      <point x="276" y="327"/>
      <point x="293" y="360"/>
      <point x="293" y="379" type="curve" smooth="yes"/>
      <point x="293" y="428"/>
      <point x="240" y="470"/>
      <point x="184" y="470" type="curve" smooth="yes"/>
      <point x="92" y="470"/>
      <point x="23" y="365"/>
      <point x="23" y="261" type="curve" smooth="yes"/>
      <point x="23" y="132"/>
      <point x="126" y="-5"/>
      <point x="278" y="-5" type="curve" smooth="yes"/>
      <point x="361" y="-5"/>
      <point x="421" y="53"/>
      <point x="433" y="151" type="curve"/>
      <point x="616" y="266" type="line"/>
      <point x="616" y="213" type="line" smooth="yes"/>
      <point x="616" y="193"/>
      <point x="614" y="161"/>
      <point x="614" y="142" type="curve" smooth="yes"/>
      <point x="614" y="95"/>
      <point x="614" y="-15"/>
      <point x="675" y="-15" type="curve" smooth="yes"/>
      <point x="695" y="-15"/>
      <point x="700" y="8"/>
      <point x="700" y="25" type="curve"/>
      <point x="686" y="51"/>
      <point x="683" y="78"/>
      <point x="683" y="106" type="curve" smooth="yes"/>
      <point x="683" y="182"/>
      <point x="691" y="259"/>
      <point x="691" y="336" type="curve" smooth="yes"/>
      <point x="691" y="366"/>
      <point x="685" y="404"/>
      <point x="642" y="404" type="curve" smooth="yes"/>
      <point x="614" y="404"/>
      <point x="600" y="374"/>
      <point x="586" y="353" type="curve" smooth="yes"/>
      <point x="539" y="285"/>
      <point x="433" y="215"/>
      <point x="372" y="215" type="curve" smooth="yes"/>
      <point x="342" y="215"/>
      <point x="310" y="241"/>
      <point x="274" y="241" type="curve" smooth="yes"/>
      <point x="234" y="241"/>
      <point x="194" y="214"/>
      <point x="194" y="178" type="curve" smooth="yes"/>
      <point x="194" y="127"/>
      <point x="246" y="121"/>
      <point x="300" y="121" type="curve"/>
    </contour>
  </outline>
</glyph>
<glyph name="h" format="1">
  <advance width="560"/>
  <unicode hex="0068"/>
  <outline>
    <contour>
      <point x="196" y="356" type="line"/>
      <point x="196" y="389" type="line" smooth="yes"/>
      <point x="196" y="442"/>
      <point x="195" y="510"/>
      <point x="155" y="510" type="curve" smooth="yes"/>
      <point x="129" y="510"/>
      <point x="125" y="472"/>
      <point x="125" y="437" type="curve" smooth="yes"/>
      <point x="125" y="423"/>
      <point x="126" y="410"/>
      <point x="126" y="400" type="curve" smooth="yes"/>
      <point x="126" y="331" type="line"/>
      <point x="99" y="348"/>
      <point x="67" y="370"/>
      <point x="45" y="370" type="curve" smooth="yes"/>
      <point x="27" y="370"/>
      <point x="23" y="338"/>
      <point x="23" y="328" type="curve" smooth="yes"/>
      <point x="25" y="277"/>
      <point x="99" y="273"/>
      <point x="141" y="266" type="curve"/>
      <point x="146" y="245" type="line" smooth="yes"/>
      <point x="168" y="159"/>
      <point x="188" y="79"/>
      <point x="229" y="-1" type="curve"/>
      <point x="238" y="-16"/>
      <point x="264" y="-35"/>
      <point x="281" y="-35" type="curve" smooth="yes"/>
      <point x="322" y="-35"/>
      <point x="326" y="26"/>
      <point x="326" y="50" type="curve" smooth="yes"/>
      <point x="326" y="96"/>
      <point x="312" y="141"/>
      <point x="273" y="167" type="curve" smooth="yes"/>
      <point x="225" y="198"/>
      <point x="218" y="233"/>
      <point x="218" y="274" type="curve"/>
      <point x="380" y="361" type="line"/>
      <point x="405" y="257"/>
      <point x="428" y="157"/>
      <point x="452" y="54" type="curve" smooth="yes"/>
      <point x="458" y="28" type="line" smooth="yes"/>
      <point x="465" y="-1"/>
      <point x="483" y="-48"/>
      <point x="509" y="-48" type="curve" smooth="yes"/>
      <point x="531" y="-48"/>
      <point x="545" y="-27"/>
      <point x="545" y="-12" type="curve" smooth="yes"/>
      <point x="545" y="-6"/>
      <point x="544" y="1"/>
      <point x="542" y="9" type="curve"/>
      <point x="491" y="160"/>
      <point x="458" y="312"/>
      <point x="434" y="463" type="curve" smooth="yes"/>
      <point x="428" y="497"/>
      <point x="412" y="530"/>
      <point x="380" y="537" type="curve"/>
      <point x="365" y="534"/>
      <point x="344" y="505"/>
      <point x="344" y="485" type="curve"/>
      <point x="333" y="403"/>
      <point x="278" y="373"/>
      <point x="196" y="356" type="curve"/>
    </contour>
  </outline>
</glyph>
<glyph name="i" format="1">
  <advance width="172"/>
  <unicode hex="0069"/>
  <outline>
    <contour>
      <point x="26" y="442" type="line"/>
      <point x="38" y="381"/>
      <point x="49" y="225"/>
      <point x="64" y="151" type="curve" smooth="yes"/>
      <point x="71" y="114"/>
      <point x="92" y="92"/>
      <point x="131" y="92" type="curve"/>
      <point x="143" y="95"/>
      <point x="147" y="103"/>
      <point x="147" y="113" type="curve" smooth="yes"/>
      <point x="147" y="120"/>
      <point x="145" y="127"/>
      <point x="143" y="134" type="curve" smooth="yes"/>
      <point x="116" y="222"/>
      <point x="100" y="387"/>
      <point x="85" y="479" type="curve" smooth="yes"/>
      <point x="82" y="494"/>
      <point x="75" y="510"/>
      <point x="60" y="510" type="curve" smooth="yes"/>
      <point x="46" y="510"/>
      <point x="23" y="484"/>
      <point x="23" y="462" type="curve" smooth="yes"/>
      <point x="23" y="457"/>
      <point x="24" y="450"/>
      <point x="26" y="442" type="curve" smooth="yes"/>
    </contour>
  </outline>
</glyph>
<glyph name="j" format="1">
  <advance width="309"/>
  <unicode hex="006A"/>
  <outline>
    <contour>
      <point x="187" y="50" type="line"/>
      <point x="171" y="46" type="line"/>
      <point x="145" y="98"/>
      <point x="121" y="154"/>
      <point x="98" y="213" type="curve" smooth="yes"/>
      <point x="90" y="232"/>
      <point x="77" y="247"/>
      <point x="58" y="247" type="curve" smooth="yes"/>
      <point x="36" y="247"/>
      <point x="22" y="233"/>
      <point x="22" y="213" type="curve" smooth="yes"/>
      <point x="22" y="192"/>
      <point x="44" y="155"/>
      <point x="60" y="126" type="curve"/>
      <point x="82" y="70"/>
      <point x="110" y="-44"/>
      <point x="180" y="-44" type="curve" smooth="yes"/>
      <point x="235" y="-44"/>
      <point x="247" y="2"/>
      <point x="256" y="41" type="curve" smooth="yes"/>
      <point x="258" y="51" type="line" smooth="yes"/>
      <point x="272" y="107"/>
      <point x="283" y="196"/>
      <point x="283" y="252" type="curve" smooth="yes"/>
      <point x="283" y="365"/>
      <point x="254" y="471"/>
      <point x="230" y="580" type="curve" smooth="yes"/>
      <point x="226" y="598"/>
      <point x="215" y="612"/>
      <point x="196" y="612" type="curve" smooth="yes"/>
      <point x="169" y="612"/>
      <point x="161" y="593"/>
      <point x="161" y="580" type="curve" smooth="yes"/>
      <point x="161" y="535"/>
      <point x="188" y="476"/>
      <point x="197" y="427" type="curve" smooth="yes"/>
      <point x="205" y="382"/>
      <point x="214" y="309"/>
      <point x="214" y="264" type="curve" smooth="yes"/>
      <point x="214" y="204"/>
      <point x="202" y="108"/>
      <point x="187" y="50" type="curve"/>
    </contour>
  </outline>
</glyph>
<glyph name="k" format="1">
  <advance width="483"/>
  <unicode hex="006B"/>
  <outline>
    <contour>
      <point x="217" y="105" type="line"/>
      <point x="243" y="190"/>
      <point x="296" y="321"/>
      <point x="339" y="399" type="curve" smooth="yes"/>
      <point x="347" y="414"/>
      <point x="362" y="428"/>
      <point x="362" y="444" type="curve" smooth="yes"/>
      <point x="362" y="452"/>
      <point x="351" y="476"/>
      <point x="329" y="476" type="curve" smooth="yes"/>
      <point x="274" y="476"/>
      <point x="182" y="223"/>
      <point x="153" y="151" type="curve"/>
      <point x="138" y="154" type="line"/>
      <point x="113" y="264"/>
      <point x="128" y="383"/>
      <point x="93" y="485" type="curve" smooth="yes"/>
      <point x="89" y="497"/>
      <point x="68" y="509"/>
      <point x="52" y="509" type="curve" smooth="yes"/>
      <point x="23" y="509"/>
      <point x="23" y="467"/>
      <point x="23" y="449" type="curve" smooth="yes"/>
      <point x="23" y="392"/>
      <point x="41" y="352"/>
      <point x="47" y="307" type="curve" smooth="yes"/>
      <point x="60" y="209"/>
      <point x="65" y="118"/>
      <point x="85" y="18" type="curve" smooth="yes"/>
      <point x="89" y="-5"/>
      <point x="98" y="-35"/>
      <point x="134" y="-35" type="curve" smooth="yes"/>
      <point x="169" y="-35"/>
      <point x="182" y="11"/>
      <point x="201" y="40" type="curve"/>
      <point x="271" y="24"/>
      <point x="341" y="7"/>
      <point x="413" y="-6" type="curve"/>
      <point x="430" y="-6" type="line" smooth="yes"/>
      <point x="444" y="-6"/>
      <point x="460" y="-4"/>
      <point x="460" y="14" type="curve" smooth="yes"/>
      <point x="460" y="83"/>
      <point x="301" y="88"/>
      <point x="216" y="101" type="curve"/>
    </contour>
  </outline>
</glyph>
<glyph name="l" format="1">
  <advance width="582"/>
  <unicode hex="006C"/>
  <outline>
    <contour>
      <point x="97" y="48" type="line"/>
      <point x="92" y="53"/>
      <point x="92" y="96"/>
      <point x="90" y="126" type="curve"/>
      <point x="109" y="504" type="line"/>
      <point x="108" y="521"/>
      <point x="104" y="542"/>
      <point x="77" y="542" type="curve" smooth="yes"/>
      <point x="53" y="542"/>
      <point x="45" y="523"/>
      <point x="44" y="501" type="curve" smooth="yes"/>
      <point x="36" y="364"/>
      <point x="23" y="226"/>
      <point x="23" y="87" type="curve" smooth="yes"/>
      <point x="23" y="12"/>
      <point x="54" y="-19"/>
      <point x="119" y="-19" type="curve" smooth="yes"/>
      <point x="137" y="-19"/>
      <point x="157" y="-16"/>
      <point x="181" y="-13" type="curve"/>
      <point x="491" y="51" type="line"/>
      <point x="516" y="62"/>
      <point x="555" y="63"/>
      <point x="555" y="90" type="curve" smooth="yes"/>
      <point x="555" y="106"/>
      <point x="530" y="126"/>
      <point x="504" y="126" type="curve" smooth="yes"/>
      <point x="498" y="126"/>
      <point x="490" y="122"/>
      <point x="484" y="121" type="curve" smooth="yes"/>
      <point x="380" y="101"/>
      <point x="278" y="81"/>
      <point x="174" y="60" type="curve" smooth="yes"/>
      <point x="155" y="56"/>
      <point x="121" y="46"/>
      <point x="105" y="46" type="curve" smooth="yes"/>
      <point x="101" y="46"/>
      <point x="98" y="47"/>
      <point x="97" y="48" type="curve" smooth="yes"/>
    </contour>
  </outline>
</glyph>
<glyph name="m" format="1">
  <advance width="574"/>
  <unicode hex="006D"/>
  <outline>
    <contour>
      <point x="419" y="369" type="line"/>
      <point x="435" y="365" type="line"/>
      <point x="448" y="276"/>
      <point x="449" y="189"/>
      <point x="457" y="99" type="curve" smooth="yes"/>
      <point x="460" y="62"/>
      <point x="472" y="0"/>
      <point x="522" y="0" type="curve" smooth="yes"/>
      <point x="540" y="0"/>
      <point x="549" y="11"/>
      <point x="549" y="28" type="curve" smooth="yes"/>
      <point x="549" y="31"/>
      <point x="549" y="36"/>
      <point x="548" y="38" type="curve" smooth="yes"/>
      <point x="512" y="99"/>
      <point x="524" y="167"/>
      <point x="519" y="231" type="curve" smooth="yes"/>
      <point x="513" y="322"/>
      <point x="503" y="449"/>
      <point x="436" y="449" type="curve" smooth="yes"/>
      <point x="365" y="449"/>
      <point x="312" y="327"/>
      <point x="277" y="249" type="curve"/>
      <point x="255" y="325"/>
      <point x="244" y="411"/>
      <point x="188" y="411" type="curve" smooth="yes"/>
      <point x="154" y="411"/>
      <point x="126" y="377"/>
      <point x="104" y="328" type="curve"/>
      <point x="39" y="350" type="line"/>
      <point x="38" y="350"/>
      <point x="36" y="351"/>
      <point x="35" y="351" type="curve" smooth="yes"/>
      <point x="24" y="351"/>
      <point x="21" y="328"/>
      <point x="21" y="309" type="curve" smooth="yes"/>
      <point x="21" y="199"/>
      <point x="37" y="90"/>
      <point x="46" y="-20" type="curve" smooth="yes"/>
      <point x="50" y="-70"/>
      <point x="61" y="-97"/>
      <point x="82" y="-97" type="curve" smooth="yes"/>
      <point x="131" y="-97"/>
      <point x="122" y="-43"/>
      <point x="124" y="-20" type="curve" smooth="yes"/>
      <point x="132" y="68"/>
      <point x="140" y="155"/>
      <point x="150" y="243" type="curve" smooth="yes"/>
      <point x="153" y="265"/>
      <point x="167" y="285"/>
      <point x="173" y="307" type="curve"/>
      <point x="187" y="304" type="line"/>
      <point x="205" y="210"/>
      <point x="209" y="112"/>
      <point x="216" y="14" type="curve" smooth="yes"/>
      <point x="219" y="-38"/>
      <point x="227" y="-58"/>
      <point x="250" y="-58" type="curve" smooth="yes"/>
      <point x="294" y="-58"/>
      <point x="289" y="-18"/>
      <point x="295" y="7" type="curve" smooth="yes"/>
      <point x="316" y="97"/>
      <point x="339" y="186"/>
      <point x="366" y="275" type="curve" smooth="yes"/>
      <point x="375" y="307"/>
      <point x="399" y="335"/>
      <point x="416" y="363" type="curve" smooth="yes"/>
    </contour>
  </outline>
</glyph>
<glyph name="n" format="1">
  <advance width="457"/>
  <unicode hex="006E"/>
  <outline>
    <contour>
      <point x="138" y="147" type="line"/>
      <point x="198" y="72"/>
      <point x="236" y="23"/>
      <point x="307" y="23" type="curve" smooth="yes"/>
      <point x="384" y="23"/>
      <point x="402" y="83"/>
      <point x="419" y="135" type="curve" smooth="yes"/>
      <point x="420" y="136"/>
      <point x="421" y="140"/>
      <point x="421" y="142" type="curve" smooth="yes"/>
      <point x="425" y="229"/>
      <point x="434" y="316"/>
      <point x="434" y="403" type="curve" smooth="yes"/>
      <point x="434" y="449"/>
      <point x="398" y="534"/>
      <point x="371" y="534" type="curve" smooth="yes"/>
      <point x="359" y="534"/>
      <point x="341" y="519"/>
      <point x="341" y="495" type="curve" smooth="yes"/>
      <point x="341" y="491"/>
      <point x="343" y="485"/>
      <point x="344" y="482" type="curve" smooth="yes"/>
      <point x="365" y="429"/>
      <point x="372" y="376"/>
      <point x="372" y="322" type="curve" smooth="yes"/>
      <point x="372" y="276"/>
      <point x="367" y="228"/>
      <point x="359" y="182" type="curve" smooth="yes"/>
      <point x="353" y="148"/>
      <point x="353" y="91"/>
      <point x="300" y="91" type="curve" smooth="yes"/>
      <point x="246" y="91"/>
      <point x="205" y="177"/>
      <point x="185" y="220" type="curve"/>
      <point x="170" y="259"/>
      <point x="159" y="300"/>
      <point x="146" y="339" type="curve" smooth="yes"/>
      <point x="141" y="355"/>
      <point x="140" y="372"/>
      <point x="131" y="383" type="curve" smooth="yes"/>
      <point x="119" y="397"/>
      <point x="99" y="414"/>
      <point x="82" y="414" type="curve" smooth="yes"/>
      <point x="62" y="414"/>
      <point x="52" y="395"/>
      <point x="51" y="374" type="curve" smooth="yes"/>
      <point x="42" y="238"/>
      <point x="31" y="101"/>
      <point x="24" y="-36" type="curve" smooth="yes"/>
      <point x="24" y="-43" type="line" smooth="yes"/>
      <point x="24" y="-87"/>
      <point x="42" y="-108"/>
      <point x="68" y="-108" type="curve" smooth="yes"/>
      <point x="130" y="-108"/>
      <point x="127" y="33"/>
      <point x="138" y="147" type="curve"/>
    </contour>
  </outline>
</glyph>
<glyph name="o" format="1">
  <advance width="483"/>
  <unicode hex="006F"/>
  <outline>
    <contour>
      <point x="251" y="484" type="line"/>
      <point x="194" y="484"/>
      <point x="164" y="472"/>
      <point x="128" y="435" type="curve" smooth="yes"/>
      <point x="58" y="363"/>
      <point x="23" y="280"/>
      <point x="23" y="185" type="curve" smooth="yes"/>
      <point x="23" y="75"/>
      <point x="103" y="-25"/>
      <point x="223" y="-25" type="curve" smooth="yes"/>
      <point x="350" y="-25"/>
      <point x="458" y="75"/>
      <point x="458" y="206" type="curve" smooth="yes"/>
      <point x="458" y="261"/>
      <point x="440" y="316"/>
      <point x="423" y="367" type="curve" smooth="yes"/>
      <point x="419" y="379" type="line" smooth="yes"/>
      <point x="400" y="437"/>
      <point x="369" y="487"/>
      <point x="311" y="487" type="curve" smooth="yes"/>
      <point x="303" y="487"/>
      <point x="294" y="486"/>
      <point x="285" y="484" type="curve"/>
    </contour>
    <contour>
      <point x="225" y="45" type="line"/>
      <point x="141" y="46"/>
      <point x="89" y="98"/>
      <point x="89" y="191" type="curve" smooth="yes"/>
      <point x="89" y="285"/>
      <point x="167" y="420"/>
      <point x="243" y="420" type="curve" smooth="yes"/>
      <point x="315" y="420"/>
      <point x="390" y="301"/>
      <point x="390" y="213" type="curve" smooth="yes"/>
      <point x="390" y="121"/>
      <point x="315" y="46"/>
      <point x="225" y="45" type="curve"/>
    </contour>
  </outline>
</glyph>
<glyph name="p" format="1">
  <advance width="433"/>
  <unicode hex="0070"/>
  <outline>
    <contour>
      <point x="106" y="522" type="line"/>
      <point x="78" y="508"/>
      <point x="24" y="494"/>
      <point x="24" y="464" type="curve" smooth="yes"/>
      <point x="24" y="442"/>
      <point x="53" y="436"/>
      <point x="74" y="436" type="curve" smooth="yes"/>
      <point x="85" y="436"/>
      <point x="95" y="441"/>
      <point x="113" y="446" type="curve"/>
      <point x="132" y="264" type="line"/>
      <point x="126" y="262"/>
      <point x="118" y="261"/>
      <point x="111" y="261" type="curve"/>
      <point x="101" y="263"/>
      <point x="91" y="267"/>
      <point x="82" y="267" type="curve" smooth="yes"/>
      <point x="72" y="267"/>
      <point x="55" y="259"/>
      <point x="55" y="232" type="curve" smooth="yes"/>
      <point x="55" y="195"/>
      <point x="93" y="185"/>
      <point x="146" y="178" type="curve"/>
      <point x="168" y="90"/>
      <point x="191" y="-64"/>
      <point x="250" y="-64" type="curve" smooth="yes"/>
      <point x="276" y="-64"/>
      <point x="297" y="-34"/>
      <point x="297" y="-2" type="curve" smooth="yes"/>
      <point x="297" y="24"/>
      <point x="285" y="52"/>
      <point x="264" y="67" type="curve"/>
      <point x="229" y="80"/>
      <point x="223" y="167"/>
      <point x="215" y="213" type="curve"/>
      <point x="306" y="275"/>
      <point x="409" y="348"/>
      <point x="409" y="428" type="curve" smooth="yes"/>
      <point x="409" y="494"/>
      <point x="345" y="531"/>
      <point x="229" y="531" type="curve" smooth="yes"/>
      <point x="180" y="531" type="line"/>
      <point x="164" y="553"/>
      <point x="165" y="588"/>
      <point x="136" y="588" type="curve" smooth="yes"/>
      <point x="108" y="588"/>
      <point x="102" y="574"/>
      <point x="102" y="559" type="curve" smooth="yes"/>
      <point x="102" y="548"/>
      <point x="105" y="533"/>
      <point x="106" y="522" type="curve"/>
    </contour>
    <contour>
      <point x="339" y="428" type="line"/>
      <point x="339" y="427"/>
      <point x="340" y="425"/>
      <point x="340" y="424" type="curve" smooth="yes"/>
      <point x="340" y="395"/>
      <point x="258" y="330"/>
      <point x="202" y="292" type="curve"/>
      <point x="182" y="454" type="line"/>
      <point x="203" y="459"/>
      <point x="224" y="462"/>
      <point x="244" y="462" type="curve" smooth="yes"/>
      <point x="276" y="462"/>
      <point x="331" y="454"/>
      <point x="339" y="428" type="curve"/>
    </contour>
  </outline>
</glyph>
<glyph name="q" format="1">
  <advance width="443"/>
  <unicode hex="0071"/>
  <outline>
    <contour>
      <point x="235" y="-3" type="line"/>
      <point x="270" y="-43"/>
      <point x="325" y="-123"/>
      <point x="365" y="-123" type="curve" smooth="yes"/>
      <point x="381" y="-123"/>
      <point x="401" y="-106"/>
      <point x="401" y="-89" type="curve" smooth="yes"/>
      <point x="401" y="-74"/>
      <point x="383" y="-60"/>
      <point x="369" y="-50" type="curve" smooth="yes"/>
      <point x="344" y="-33"/>
      <point x="312" y="3"/>
      <point x="301" y="35" type="curve"/>
      <point x="357" y="91"/>
      <point x="396" y="155"/>
      <point x="396" y="247" type="curve"/>
      <point x="387" y="328"/>
      <point x="333" y="377"/>
      <point x="253" y="377" type="curve" smooth="yes"/>
      <point x="239" y="377" type="line" smooth="yes"/>
      <point x="220" y="377"/>
      <point x="199" y="379"/>
      <point x="187" y="379" type="curve" smooth="yes"/>
      <point x="92" y="379"/>
      <point x="5" y="300"/>
      <point x="5" y="168" type="curve" smooth="yes"/>
      <point x="5" y="73"/>
      <point x="70" y="-6"/>
      <point x="192" y="-6" type="curve" smooth="yes"/>
      <point x="204" y="-6"/>
      <point x="223" y="-4"/>
      <point x="235" y="-3" type="curve"/>
    </contour>
    <contour>
      <point x="201" y="69" type="line"/>
      <point x="194" y="68"/>
      <point x="187" y="68"/>
      <point x="181" y="68" type="curve" smooth="yes"/>
      <point x="112" y="68"/>
      <point x="75" y="102"/>
      <point x="75" y="172" type="curve" smooth="yes"/>
      <point x="75" y="239"/>
      <point x="118" y="293"/>
      <point x="185" y="306" type="curve"/>
      <point x="186" y="303"/>
      <point x="186" y="299"/>
      <point x="186" y="296" type="curve" smooth="yes"/>
      <point x="186" y="283"/>
      <point x="181" y="269"/>
      <point x="181" y="257" type="curve" smooth="yes"/>
      <point x="181" y="246"/>
      <point x="188" y="227"/>
      <point x="213" y="227" type="curve" smooth="yes"/>
      <point x="236" y="227"/>
      <point x="243" y="258"/>
      <point x="261" y="274" type="curve"/>
      <point x="311" y="264" type="line" smooth="yes"/>
      <point x="326" y="261"/>
      <point x="328" y="241"/>
      <point x="328" y="226" type="curve" smooth="yes"/>
      <point x="328" y="214" type="line" smooth="yes"/>
      <point x="328" y="176"/>
      <point x="308" y="144"/>
      <point x="265" y="104" type="curve"/>
      <point x="249" y="141"/>
      <point x="238" y="194"/>
      <point x="207" y="194" type="curve" smooth="yes"/>
      <point x="182" y="194"/>
      <point x="175" y="174"/>
      <point x="175" y="159" type="curve" smooth="yes"/>
      <point x="175" y="128"/>
      <point x="189" y="100"/>
      <point x="197" y="67" type="curve"/>
    </contour>
  </outline>
</glyph>
<glyph name="r" format="1">
  <advance width="628"/>
  <unicode hex="0072"/>
  <outline>
    <contour>
      <point x="264" y="175" type="line"/>
      <point x="320" y="234"/>
      <point x="401" y="294"/>
      <point x="401" y="360" type="curve" smooth="yes"/>
      <point x="401" y="466"/>
      <point x="205" y="467"/>
      <point x="99" y="467" type="curve"/>
      <point x="69" y="463"/>
      <point x="23" y="450"/>
      <point x="23" y="422" type="curve" smooth="yes"/>
      <point x="23" y="415"/>
      <point x="26" y="408"/>
      <point x="35" y="403" type="curve" smooth="yes"/>
      <point x="75" y="382"/>
      <point x="67" y="341"/>
      <point x="71" y="307" type="curve" smooth="yes"/>
      <point x="81" y="206"/>
      <point x="87" y="106"/>
      <point x="96" y="4" type="curve" smooth="yes"/>
      <point x="98" y="-24"/>
      <point x="114" y="-65"/>
      <point x="138" y="-65" type="curve" smooth="yes"/>
      <point x="170" y="-65"/>
      <point x="184" y="-21"/>
      <point x="184" y="7" type="curve" smooth="yes"/>
      <point x="184" y="23"/>
      <point x="179" y="37"/>
      <point x="170" y="52" type="curve" smooth="yes"/>
      <point x="161" y="66"/>
      <point x="161" y="89"/>
      <point x="154" y="105" type="curve"/>
      <point x="208" y="101"/>
      <point x="250" y="95"/>
      <point x="291" y="79" type="curve" smooth="yes"/>
      <point x="374" y="47"/>
      <point x="405" y="13"/>
      <point x="555" y="-20" type="curve" smooth="yes"/>
      <point x="564" y="-22"/>
      <point x="573" y="-24"/>
      <point x="582" y="-24" type="curve" smooth="yes"/>
      <point x="596" y="-24"/>
      <point x="615" y="-17"/>
      <point x="615" y="9" type="curve" smooth="yes"/>
      <point x="615" y="40"/>
      <point x="537" y="56"/>
      <point x="501" y="71" type="curve" smooth="yes"/>
    </contour>
    <contour>
      <point x="145" y="192" type="line"/>
      <point x="129" y="390" type="line"/>
      <point x="154" y="392"/>
      <point x="179" y="394"/>
      <point x="204" y="394" type="curve" smooth="yes"/>
      <point x="246" y="394"/>
      <point x="329" y="376"/>
      <point x="329" y="362" type="curve" smooth="yes"/>
      <point x="329" y="335"/>
      <point x="223" y="240"/>
      <point x="145" y="192" type="curve"/>
    </contour>
  </outline>
</glyph>
<glyph name="s" format="1">
  <advance width="404"/>
  <unicode hex="0073"/>
  <outline>
    <contour>
      <point x="315" y="88" type="line"/>
      <point x="315" y="66"/>
      <point x="225" y="53"/>
      <point x="178" y="53" type="curve" smooth="yes"/>
      <point x="145" y="53"/>
      <point x="112" y="61"/>
      <point x="81" y="81" type="curve"/>
      <point x="72" y="85"/>
      <point x="64" y="88"/>
      <point x="55" y="88" type="curve" smooth="yes"/>
      <point x="42" y="88"/>
      <point x="23" y="76"/>
      <point x="23" y="53" type="curve" smooth="yes"/>
      <point x="23" y="1"/>
      <point x="155" y="-20"/>
      <point x="183" y="-20" type="curve" smooth="yes"/>
      <point x="283" y="-20"/>
      <point x="380" y="26"/>
      <point x="380" y="83" type="curve" smooth="yes"/>
      <point x="380" y="146"/>
      <point x="288" y="209"/>
      <point x="225" y="259" type="curve" smooth="yes"/>
      <point x="184" y="292"/>
      <point x="130" y="335"/>
      <point x="130" y="373" type="curve" smooth="yes"/>
      <point x="130" y="407"/>
      <point x="159" y="430"/>
      <point x="203" y="430" type="curve" smooth="yes"/>
      <point x="235" y="430"/>
      <point x="271" y="410"/>
      <point x="297" y="410" type="curve" smooth="yes"/>
      <point x="308" y="410"/>
      <point x="322" y="421"/>
      <point x="322" y="441" type="curve" smooth="yes"/>
      <point x="322" y="476"/>
      <point x="244" y="500"/>
      <point x="203" y="500" type="curve" smooth="yes"/>
      <point x="132" y="500"/>
      <point x="60" y="449"/>
      <point x="60" y="372" type="curve" smooth="yes"/>
      <point x="60" y="273"/>
      <point x="185" y="204"/>
      <point x="258" y="142" type="curve" smooth="yes"/>
      <point x="275" y="128"/>
      <point x="315" y="102"/>
      <point x="315" y="88" type="curve" smooth="yes"/>
    </contour>
  </outline>
</glyph>
<glyph name="t" format="1">
  <advance width="505"/>
  <unicode hex="0074"/>
  <outline>
    <contour>
      <point x="217" y="461" type="line"/>
      <point x="216" y="402"/>
      <point x="214" y="347"/>
      <point x="214" y="293" type="curve" smooth="yes"/>
      <point x="214" y="240"/>
      <point x="223" y="119"/>
      <point x="234" y="40" type="curve" smooth="yes"/>
      <point x="241" y="-10"/>
      <point x="293" y="-78"/>
      <point x="328" y="-78" type="curve" smooth="yes"/>
      <point x="339" y="-78"/>
      <point x="352" y="-72"/>
      <point x="352" y="-48" type="curve" smooth="yes"/>
      <point x="352" y="-40"/>
      <point x="348" y="-26"/>
      <point x="341" y="-20" type="curve"/>
      <point x="286" y="40"/>
      <point x="282" y="135"/>
      <point x="282" y="209" type="curve" smooth="yes"/>
      <point x="282" y="294"/>
      <point x="283" y="379"/>
      <point x="285" y="469" type="curve"/>
      <point x="380" y="479"/>
      <point x="480" y="478"/>
      <point x="480" y="512" type="curve" smooth="yes"/>
      <point x="480" y="545"/>
      <point x="453" y="550"/>
      <point x="436" y="550" type="curve" smooth="yes"/>
      <point x="366" y="550"/>
      <point x="296" y="537"/>
      <point x="227" y="532" type="curve" smooth="yes"/>
      <point x="203" y="530"/>
      <point x="179" y="521"/>
      <point x="154" y="521" type="curve" smooth="yes"/>
      <point x="135" y="521"/>
      <point x="115" y="535"/>
      <point x="96" y="535" type="curve" smooth="yes"/>
      <point x="64" y="535"/>
      <point x="23" y="517"/>
      <point x="23" y="483" type="curve"/>
      <point x="31" y="450"/>
      <point x="69" y="446"/>
      <point x="101" y="446" type="curve" smooth="yes"/>
      <point x="129" y="446" type="line" smooth="yes"/>
      <point x="155" y="446"/>
      <point x="181" y="452"/>
      <point x="216" y="457" type="curve"/>
    </contour>
  </outline>
</glyph>
<glyph name="u" format="1">
  <advance width="533"/>
  <unicode hex="0075"/>
  <outline>
    <contour>
      <point x="204" y="45" type="line"/>
      <point x="170" y="47"/>
      <point x="149" y="123"/>
      <point x="142" y="161" type="curve" smooth="yes"/>
      <point x="124" y="258"/>
      <point x="112" y="356"/>
      <point x="98" y="456" type="curve"/>
      <point x="96" y="485"/>
      <point x="90" y="528"/>
      <point x="58" y="531" type="curve"/>
      <point x="34" y="527"/>
      <point x="24" y="507"/>
      <point x="24" y="478" type="curve"/>
      <point x="37" y="340"/>
      <point x="53" y="212"/>
      <point x="99" y="70" type="curve" smooth="yes"/>
      <point x="114" y="24"/>
      <point x="137" y="-25"/>
      <point x="196" y="-25" type="curve" smooth="yes"/>
      <point x="287" y="-25"/>
      <point x="304" y="110"/>
      <point x="325" y="177" type="curve"/>
      <point x="329" y="185"/>
      <point x="335" y="198"/>
      <point x="338" y="207" type="curve"/>
      <point x="375" y="143"/>
      <point x="441" y="1"/>
      <point x="479" y="1" type="curve" smooth="yes"/>
      <point x="493" y="1"/>
      <point x="511" y="15"/>
      <point x="511" y="30" type="curve" smooth="yes"/>
      <point x="511" y="63"/>
      <point x="448" y="137"/>
      <point x="427" y="190" type="curve" smooth="yes"/>
      <point x="357" y="366"/>
      <point x="417" y="538"/>
      <point x="348" y="538" type="curve" smooth="yes"/>
      <point x="316" y="538"/>
      <point x="310" y="498"/>
      <point x="306" y="467" type="curve"/>
      <point x="283" y="359"/>
      <point x="263" y="251"/>
      <point x="240" y="143" type="curve" smooth="yes"/>
      <point x="232" y="109"/>
      <point x="224" y="44"/>
      <point x="204" y="45" type="curve" smooth="yes"/>
    </contour>
  </outline>
</glyph>
<glyph name="v" format="1">
  <advance width="406"/>
  <unicode hex="0076"/>
  <outline>
    <contour>
      <point x="287" y="73" type="line"/>
      <point x="269" y="103"/>
      <point x="235" y="142"/>
      <point x="218" y="174" type="curve" smooth="yes"/>
      <point x="179" y="248"/>
      <point x="117" y="432"/>
      <point x="61" y="432" type="curve" smooth="yes"/>
      <point x="44" y="432"/>
      <point x="24" y="414"/>
      <point x="24" y="396" type="curve" smooth="yes"/>
      <point x="24" y="371"/>
      <point x="79" y="300"/>
      <point x="102" y="255" type="curve" smooth="yes"/>
      <point x="144" y="172"/>
      <point x="209" y="-11"/>
      <point x="288" y="-11" type="curve" smooth="yes"/>
      <point x="354" y="-11"/>
      <point x="359" y="65"/>
      <point x="362" y="125" type="curve" smooth="yes"/>
      <point x="362" y="130"/>
      <point x="363" y="135"/>
      <point x="363" y="140" type="curve" smooth="yes"/>
      <point x="369" y="250"/>
      <point x="376" y="360"/>
      <point x="378" y="470" type="curve" smooth="yes"/>
      <point x="378" y="481"/>
      <point x="381" y="494"/>
      <point x="381" y="505" type="curve" smooth="yes"/>
      <point x="381" y="519"/>
      <point x="374" y="544"/>
      <point x="344" y="544" type="curve" smooth="yes"/>
      <point x="325" y="544"/>
      <point x="311" y="520"/>
      <point x="309" y="474" type="curve" smooth="yes"/>
      <point x="303" y="341"/>
      <point x="304" y="230"/>
      <point x="287" y="73" type="curve"/>
    </contour>
  </outline>
</glyph>
<glyph name="w" format="1">
  <advance width="602"/>
  <unicode hex="0077"/>
  <outline>
    <contour>
      <point x="180" y="41" type="line"/>
      <point x="162" y="40"/>
      <point x="128" y="102"/>
      <point x="123" y="136" type="curve" smooth="yes"/>
      <point x="108" y="228"/>
      <point x="100" y="319"/>
      <point x="89" y="412" type="curve" smooth="yes"/>
      <point x="85" y="441"/>
      <point x="86" y="483"/>
      <point x="52" y="483" type="curve" smooth="yes"/>
      <point x="29" y="483"/>
      <point x="22" y="457"/>
      <point x="22" y="433" type="curve" smooth="yes"/>
      <point x="22" y="299"/>
      <point x="23" y="153"/>
      <point x="86" y="38" type="curve" smooth="yes"/>
      <point x="110" y="-7"/>
      <point x="140" y="-29"/>
      <point x="172" y="-29" type="curve" smooth="yes"/>
      <point x="218" y="-29"/>
      <point x="245" y="6"/>
      <point x="285" y="76" type="curve"/>
      <point x="345" y="30"/>
      <point x="367" y="5"/>
      <point x="418" y="5" type="curve" smooth="yes"/>
      <point x="517" y="5"/>
      <point x="575" y="117"/>
      <point x="575" y="269" type="curve" smooth="yes"/>
      <point x="575" y="364"/>
      <point x="545" y="488"/>
      <point x="491" y="488" type="curve" smooth="yes"/>
      <point x="469" y="488"/>
      <point x="455" y="470"/>
      <point x="455" y="460" type="curve" smooth="yes"/>
      <point x="455" y="445"/>
      <point x="469" y="431"/>
      <point x="476" y="416" type="curve" smooth="yes"/>
      <point x="499" y="368"/>
      <point x="509" y="318"/>
      <point x="509" y="269" type="curve" smooth="yes"/>
      <point x="509" y="194"/>
      <point x="484" y="74"/>
      <point x="421" y="74" type="curve" smooth="yes"/>
      <point x="363" y="74"/>
      <point x="314" y="161"/>
      <point x="313" y="235" type="curve"/>
      <point x="315" y="279"/>
      <point x="317" y="322"/>
      <point x="317" y="367" type="curve" smooth="yes"/>
      <point x="317" y="395"/>
      <point x="315" y="443"/>
      <point x="282" y="443" type="curve" smooth="yes"/>
      <point x="249" y="443"/>
      <point x="229" y="392"/>
      <point x="229" y="353" type="curve" smooth="yes"/>
      <point x="229" y="303"/>
      <point x="235" y="254"/>
      <point x="235" y="205" type="curve" smooth="yes"/>
      <point x="235" y="143"/>
      <point x="198" y="42"/>
      <point x="180" y="41" type="curve" smooth="yes"/>
    </contour>
  </outline>
</glyph>
<glyph name="x" format="1">
  <advance width="498"/>
  <unicode hex="0078"/>
  <outline>
    <contour>
      <point x="227" y="274" type="line"/>
      <point x="178" y="321"/>
      <point x="127" y="389"/>
      <point x="85" y="389" type="curve" smooth="yes"/>
      <point x="66" y="389"/>
      <point x="59" y="376"/>
      <point x="59" y="366" type="curve" smooth="yes"/>
      <point x="59" y="339"/>
      <point x="103" y="297"/>
      <point x="130" y="269" type="curve" smooth="yes"/>
      <point x="190" y="206" type="line"/>
      <point x="132" y="94"/>
      <point x="82" y="-5"/>
      <point x="33" y="-110" type="curve" smooth="yes"/>
      <point x="27" y="-122"/>
      <point x="21" y="-136"/>
      <point x="21" y="-147" type="curve" smooth="yes"/>
      <point x="21" y="-159"/>
      <point x="31" y="-177"/>
      <point x="55" y="-177" type="curve" smooth="yes"/>
      <point x="90" y="-177"/>
      <point x="104" y="-114"/>
      <point x="123" y="-82" type="curve"/>
      <point x="160" y="-4"/>
      <point x="198" y="71"/>
      <point x="240" y="154" type="curve"/>
      <point x="306" y="99"/>
      <point x="337" y="68"/>
      <point x="391" y="27" type="curve" smooth="yes"/>
      <point x="404" y="17"/>
      <point x="420" y="6"/>
      <point x="435" y="6" type="curve" smooth="yes"/>
      <point x="448" y="6"/>
      <point x="469" y="24"/>
      <point x="469" y="40" type="curve" smooth="yes"/>
      <point x="469" y="57"/>
      <point x="449" y="69"/>
      <point x="435" y="82" type="curve" smooth="yes"/>
      <point x="278" y="217" type="line"/>
      <point x="319" y="300"/>
      <point x="363" y="356"/>
      <point x="404" y="427" type="curve"/>
      <point x="408" y="432"/>
      <point x="409" y="439"/>
      <point x="409" y="447" type="curve" smooth="yes"/>
      <point x="409" y="465"/>
      <point x="401" y="471"/>
      <point x="383" y="471" type="curve" smooth="yes"/>
      <point x="335" y="471"/>
      <point x="275" y="351"/>
      <point x="227" y="274" type="curve"/>
    </contour>
  </outline>
</glyph>
<glyph name="y" format="1">
  <advance width="426"/>
  <unicode hex="0079"/>
  <outline>
    <contour>
      <point x="290" y="196" type="line"/>
      <point x="294" y="159"/>
      <point x="294" y="125"/>
      <point x="304" y="94" type="curve" smooth="yes"/>
      <point x="313" y="65"/>
      <point x="333" y="21"/>
      <point x="351" y="-4" type="curve" smooth="yes"/>
      <point x="355" y="-11"/>
      <point x="370" y="-19"/>
      <point x="383" y="-19" type="curve" smooth="yes"/>
      <point x="400" y="-19"/>
      <point x="407" y="-2"/>
      <point x="407" y="12" type="curve" smooth="yes"/>
      <point x="407" y="21"/>
      <point x="405" y="28"/>
      <point x="401" y="33" type="curve" smooth="yes"/>
      <point x="373" y="73"/>
      <point x="369" y="120"/>
      <point x="365" y="166" type="curve" smooth="yes"/>
      <point x="365" y="171" type="line" smooth="yes"/>
      <point x="357" y="257"/>
      <point x="352" y="343"/>
      <point x="344" y="428" type="curve" smooth="yes"/>
      <point x="341" y="455"/>
      <point x="347" y="489"/>
      <point x="315" y="489" type="curve" smooth="yes"/>
      <point x="311" y="489" type="line" smooth="yes"/>
      <point x="285" y="488"/>
      <point x="280" y="472"/>
      <point x="280" y="454" type="curve" smooth="yes"/>
      <point x="280" y="443"/>
      <point x="282" y="431"/>
      <point x="282" y="421" type="curve" smooth="yes"/>
      <point x="283" y="391"/>
      <point x="285" y="359"/>
      <point x="287" y="329" type="curve"/>
      <point x="287" y="278" type="line"/>
      <point x="229" y="288"/>
      <point x="148" y="327"/>
      <point x="105" y="363" type="curve"/>
      <point x="96" y="374"/>
      <point x="81" y="387"/>
      <point x="69" y="395" type="curve"/>
      <point x="65" y="396"/>
      <point x="59" y="397"/>
      <point x="52" y="397" type="curve" smooth="yes"/>
      <point x="47" y="397"/>
      <point x="39" y="395"/>
      <point x="35" y="392" type="curve" smooth="yes"/>
      <point x="28" y="385"/>
      <point x="25" y="375"/>
      <point x="25" y="367" type="curve" smooth="yes"/>
      <point x="25" y="365"/>
      <point x="26" y="360"/>
      <point x="27" y="357" type="curve"/>
      <point x="36" y="344"/>
      <point x="49" y="327"/>
      <point x="61" y="316" type="curve" smooth="yes"/>
      <point x="125" y="257"/>
      <point x="202" y="219"/>
      <point x="290" y="196" type="curve"/>
    </contour>
  </outline>
</glyph>
<glyph name="z" format="1">
  <advance width="537"/>
  <unicode hex="007A"/>
  <outline>
    <contour>
      <point x="194" y="49" type="line"/>
      <point x="238" y="188"/>
      <point x="313" y="283"/>
      <point x="313" y="424" type="curve" smooth="yes"/>
      <point x="313" y="465"/>
      <point x="282" y="498"/>
      <point x="231" y="498" type="curve" smooth="yes"/>
      <point x="146" y="498"/>
      <point x="23" y="440"/>
      <point x="23" y="384" type="curve" smooth="yes"/>
      <point x="23" y="361"/>
      <point x="43" y="350"/>
      <point x="62" y="350" type="curve"/>
      <point x="80" y="352"/>
      <point x="101" y="360"/>
      <point x="110" y="374" type="curve" smooth="yes"/>
      <point x="137" y="416"/>
      <point x="169" y="419"/>
      <point x="215" y="423" type="curve" smooth="yes"/>
      <point x="220" y="423"/>
      <point x="227" y="424"/>
      <point x="233" y="424" type="curve" smooth="yes"/>
      <point x="246" y="424"/>
      <point x="253" y="424"/>
      <point x="253" y="413" type="curve" smooth="yes"/>
      <point x="253" y="372"/>
      <point x="181" y="213"/>
      <point x="146" y="125" type="curve" smooth="yes"/>
      <point x="133" y="92"/>
      <point x="126" y="65"/>
      <point x="126" y="43" type="curve" smooth="yes"/>
      <point x="126" y="-3"/>
      <point x="155" y="-26"/>
      <point x="213" y="-26" type="curve" smooth="yes"/>
      <point x="227" y="-26"/>
      <point x="242" y="-25"/>
      <point x="259" y="-22" type="curve" smooth="yes"/>
      <point x="361" y="-6"/>
      <point x="348" y="-9"/>
      <point x="451" y="6" type="curve" smooth="yes"/>
      <point x="475" y="9"/>
      <point x="523" y="21"/>
      <point x="523" y="51" type="curve" smooth="yes"/>
      <point x="523" y="75"/>
      <point x="509" y="83"/>
      <point x="494" y="83" type="curve" smooth="yes"/>
      <point x="487" y="83"/>
      <point x="479" y="82"/>
      <point x="472" y="80" type="curve"/>
      <point x="361" y="63"/>
      <point x="410" y="69"/>
      <point x="192" y="38" type="curve"/>
    </contour>
  </outline>
</glyph>
<glyph name="asciitilde" format="1">
  <advance width="556"/>
  <unicode hex="007E"/>
  <outline>
    <contour>
      <point x="161" y="223" type="line"/>
      <point x="263" y="241"/>
      <point x="276" y="314"/>
      <point x="407" y="314" type="curve" smooth="yes"/>
      <point x="463" y="314"/>
      <point x="528" y="299"/>
      <point x="528" y="261" type="curve" smooth="yes"/>
      <point x="528" y="244"/>
      <point x="515" y="235"/>
      <point x="495" y="235" type="curve" smooth="yes"/>
      <point x="469" y="235"/>
      <point x="429" y="245"/>
      <point x="399" y="245" type="curve" smooth="yes"/>
      <point x="322" y="245"/>
      <point x="281" y="152"/>
      <point x="137" y="152" type="curve" smooth="yes"/>
      <point x="84" y="152"/>
      <point x="8" y="164"/>
      <point x="8" y="204" type="curve" smooth="yes"/>
      <point x="8" y="221"/>
      <point x="24" y="240"/>
      <point x="40" y="240" type="curve" smooth="yes"/>
      <point x="57" y="240"/>
      <point x="107" y="221"/>
      <point x="145" y="221" type="curve" smooth="yes"/>
      <point x="150" y="221"/>
      <point x="156" y="222"/>
      <point x="161" y="223" type="curve" smooth="yes"/>
    </contour>
  </outline>
</glyph>
<glyph name="copyright" format="1">
  <advance width="811"/>
  <unicode hex="00A9"/>
  <outline>
    <contour>
      <point x="599" y="27" type="line"/>
      <point x="573" y="9"/>
      <point x="426" y="-61"/>
      <point x="374" y="-61" type="curve" smooth="yes"/>
      <point x="213" y="-61"/>
      <point x="79" y="79"/>
      <point x="79" y="233" type="curve" smooth="yes"/>
      <point x="79" y="420"/>
      <point x="206" y="612"/>
      <point x="366" y="612" type="curve" smooth="yes"/>
      <point x="615" y="612"/>
      <point x="705" y="455"/>
      <point x="705" y="303" type="curve" smooth="yes"/>
      <point x="705" y="227"/>
      <point x="680" y="82"/>
      <point x="599" y="27" type="curve" smooth="yes"/>
    </contour>
    <contour>
      <point x="624" y="-39" type="line"/>
      <point x="730" y="23"/>
      <point x="774" y="156"/>
      <point x="774" y="297" type="curve" smooth="yes"/>
      <point x="774" y="502"/>
      <point x="627" y="672"/>
      <point x="367" y="672" type="curve" smooth="yes"/>
      <point x="181" y="672"/>
      <point x="29" y="524"/>
      <point x="29" y="250" type="curve" smooth="yes"/>
      <point x="29" y="-75"/>
      <point x="268" y="-117"/>
      <point x="375" y="-117" type="curve" smooth="yes"/>
      <point x="443" y="-117"/>
      <point x="617" y="-43"/>
      <point x="624" y="-39" type="curve" smooth="yes"/>
    </contour>
    <contour>
      <point x="416" y="56" type="line"/>
      <point x="490" y="56"/>
      <point x="611" y="120"/>
      <point x="611" y="174" type="curve" smooth="yes"/>
      <point x="611" y="190"/>
      <point x="593" y="206"/>
      <point x="580" y="206" type="curve" smooth="yes"/>
      <point x="564" y="206"/>
      <point x="550" y="189"/>
      <point x="536" y="177" type="curve" smooth="yes"/>
      <point x="496" y="142"/>
      <point x="455" y="125"/>
      <point x="414" y="125" type="curve" smooth="yes"/>
      <point x="335" y="125"/>
      <point x="236" y="202"/>
      <point x="236" y="301" type="curve" smooth="yes"/>
      <point x="236" y="379"/>
      <point x="316" y="450"/>
      <point x="389" y="464" type="curve" smooth="yes"/>
      <point x="406" y="467"/>
      <point x="429" y="477"/>
      <point x="429" y="495" type="curve"/>
      <point x="424" y="514"/>
      <point x="406" y="527"/>
      <point x="388" y="527" type="curve" smooth="yes"/>
      <point x="320" y="527"/>
      <point x="202" y="446"/>
      <point x="181" y="382" type="curve" smooth="yes"/>
      <point x="172" y="354"/>
      <point x="167" y="327"/>
      <point x="167" y="300" type="curve" smooth="yes"/>
      <point x="167" y="171"/>
      <point x="272" y="56"/>
      <point x="416" y="56" type="curve" smooth="yes"/>
    </contour>
  </outline>
</glyph>
<glyph name="registered" format="1">
  <advance width="833"/>
  <unicode hex="00AE"/>
  <outline>
    <contour>
      <point x="624" y="-39" type="line"/>
      <point x="682" y="-5"/>
      <point x="721" y="50"/>
      <point x="745" y="117" type="curve"/>
      <point x="750" y="117" type="line" smooth="yes"/>
      <point x="768" y="117"/>
      <point x="791" y="121"/>
      <point x="791" y="154" type="curve" smooth="yes"/>
      <point x="791" y="167"/>
      <point x="781" y="176"/>
      <point x="763" y="180" type="curve"/>
      <point x="770" y="217"/>
      <point x="774" y="257"/>
      <point x="774" y="297" type="curve" smooth="yes"/>
      <point x="774" y="502"/>
      <point x="627" y="672"/>
      <point x="367" y="672" type="curve" smooth="yes"/>
      <point x="181" y="672"/>
      <point x="29" y="524"/>
      <point x="29" y="250" type="curve" smooth="yes"/>
      <point x="29" y="-75"/>
      <point x="268" y="-117"/>
      <point x="375" y="-117" type="curve" smooth="yes"/>
      <point x="443" y="-117"/>
      <point x="617" y="-43"/>
      <point x="624" y="-39" type="curve" smooth="yes"/>
    </contour>
    <contour>
      <point x="303" y="129" type="line"/>
      <point x="347" y="106"/>
      <point x="388" y="101"/>
      <point x="429" y="101" type="curve" smooth="yes"/>
      <point x="453" y="101"/>
      <point x="477" y="102"/>
      <point x="501" y="104" type="curve" smooth="yes"/>
      <point x="551" y="108"/>
      <point x="610" y="109"/>
      <point x="665" y="112" type="curve"/>
      <point x="649" y="77"/>
      <point x="627" y="46"/>
      <point x="599" y="27" type="curve" smooth="yes"/>
      <point x="573" y="9"/>
      <point x="426" y="-61"/>
      <point x="374" y="-61" type="curve" smooth="yes"/>
      <point x="213" y="-61"/>
      <point x="79" y="79"/>
      <point x="79" y="233" type="curve" smooth="yes"/>
      <point x="79" y="420"/>
      <point x="206" y="612"/>
      <point x="366" y="612" type="curve" smooth="yes"/>
      <point x="615" y="612"/>
      <point x="705" y="455"/>
      <point x="705" y="303" type="curve" smooth="yes"/>
      <point x="705" y="271"/>
      <point x="700" y="227"/>
      <point x="689" y="182" type="curve"/>
      <point x="613" y="180"/>
      <point x="542" y="172"/>
      <point x="468" y="172" type="curve" smooth="yes"/>
      <point x="444" y="172"/>
      <point x="419" y="175"/>
      <point x="385" y="176" type="curve"/>
      <point x="469" y="268"/>
      <point x="548" y="343"/>
      <point x="548" y="434" type="curve" smooth="yes"/>
      <point x="548" y="498"/>
      <point x="497" y="538"/>
      <point x="418" y="538" type="curve" smooth="yes"/>
      <point x="341" y="538"/>
      <point x="269" y="513"/>
      <point x="200" y="479" type="curve"/>
      <point x="182" y="474"/>
      <point x="168" y="453"/>
      <point x="168" y="442" type="curve" smooth="yes"/>
      <point x="168" y="426"/>
      <point x="180" y="416"/>
      <point x="210" y="403" type="curve"/>
      <point x="219" y="296"/>
      <point x="229" y="192"/>
      <point x="240" y="91" type="curve" smooth="yes"/>
      <point x="245" y="45"/>
      <point x="258" y="-29"/>
      <point x="296" y="-29" type="curve" smooth="yes"/>
      <point x="321" y="-29"/>
      <point x="330" y="-12"/>
      <point x="330" y="2" type="curve" smooth="yes"/>
      <point x="330" y="27"/>
      <point x="311" y="89"/>
      <point x="303" y="129" type="curve"/>
    </contour>
    <contour>
      <point x="295" y="185" type="line"/>
      <point x="277" y="433" type="line"/>
      <point x="311" y="452"/>
      <point x="368" y="465"/>
      <point x="406" y="465" type="curve" smooth="yes"/>
      <point x="451" y="465"/>
      <point x="474" y="456"/>
      <point x="474" y="428" type="curve" smooth="yes"/>
      <point x="474" y="402"/>
      <point x="440" y="344"/>
      <point x="417" y="317" type="curve" smooth="yes"/>
      <point x="381" y="273"/>
      <point x="343" y="232"/>
      <point x="295" y="181" type="curve"/>
    </contour>
  </outline>
</glyph>
<glyph name="endash" format="1">
  <advance width="833"/>
  <unicode hex="2013"/>
  <outline>
    <contour>
      <point x="487" y="299" type="line"/>
      <point x="433" y="299"/>
      <point x="165" y="290"/>
      <point x="108" y="286" type="curve" smooth="yes"/>
      <point x="85" y="284"/>
      <point x="62" y="275"/>
      <point x="62" y="252" type="curve" smooth="yes"/>
      <point x="62" y="228"/>
      <point x="99" y="205"/>
      <point x="122" y="205" type="curve" smooth="yes"/>
      <point x="134" y="205"/>
      <point x="147" y="208"/>
      <point x="159" y="208" type="curve" smooth="yes"/>
      <point x="261" y="208"/>
      <point x="433" y="206"/>
      <point x="535" y="206" type="curve" smooth="yes"/>
      <point x="556" y="206" type="line" smooth="yes"/>
      <point x="597" y="206"/>
      <point x="642" y="209"/>
      <point x="642" y="246" type="curve" smooth="yes"/>
      <point x="642" y="298"/>
      <point x="542" y="299"/>
      <point x="487" y="299" type="curve" smooth="yes"/>
    </contour>
  </outline>
</glyph>
<glyph name="quoteleft" format="1">
  <advance width="194"/>
  <unicode hex="2018"/>
  <outline>
    <contour>
      <point x="69" y="685" type="line"/>
      <point x="30" y="680"/>
      <point x="28" y="621"/>
      <point x="28" y="589" type="curve" smooth="yes"/>
      <point x="29" y="532"/>
      <point x="68" y="428"/>
      <point x="114" y="428" type="curve" smooth="yes"/>
      <point x="130" y="428"/>
      <point x="146" y="441"/>
      <point x="146" y="472" type="curve" smooth="yes"/>
      <point x="146" y="480"/>
      <point x="145" y="488"/>
      <point x="142" y="494" type="curve" smooth="yes"/>
      <point x="122" y="534"/>
      <point x="106" y="574"/>
      <point x="106" y="619" type="curve" smooth="yes"/>
      <point x="106" y="626"/>
      <point x="107" y="634"/>
      <point x="107" y="641" type="curve" smooth="yes"/>
      <point x="107" y="657"/>
      <point x="96" y="685"/>
      <point x="69" y="685" type="curve"/>
    </contour>
  </outline>
</glyph>
<glyph name="quoteright" format="1">
  <advance width="230"/>
  <unicode hex="2019"/>
  <outline>
    <contour>
      <point x="177" y="625" type="line"/>
      <point x="167" y="641"/>
      <point x="147" y="673"/>
      <point x="128" y="673" type="curve" smooth="yes"/>
      <point x="105" y="673"/>
      <point x="91" y="652"/>
      <point x="91" y="640" type="curve" smooth="yes"/>
      <point x="91" y="615"/>
      <point x="113" y="590"/>
      <point x="113" y="561" type="curve" smooth="yes"/>
      <point x="113" y="493"/>
      <point x="20" y="488"/>
      <point x="20" y="441" type="curve" smooth="yes"/>
      <point x="20" y="427"/>
      <point x="48" y="409"/>
      <point x="61" y="409" type="curve" smooth="yes"/>
      <point x="109" y="409"/>
      <point x="162" y="444"/>
      <point x="182" y="485" type="curve" smooth="yes"/>
      <point x="193" y="508"/>
      <point x="199" y="531"/>
      <point x="199" y="553" type="curve" smooth="yes"/>
      <point x="199" y="577"/>
      <point x="192" y="601"/>
      <point x="177" y="625" type="curve" smooth="yes"/>
    </contour>
  </outline>
</glyph>
<glyph name="quotedblleft" format="1">
  <advance width="320"/>
  <unicode hex="201C"/>
  <outline>
    <contour>
      <point x="95" y="614" type="line"/>
      <point x="96" y="630"/>
      <point x="98" y="647"/>
      <point x="98" y="663" type="curve" smooth="yes"/>
      <point x="98" y="685"/>
      <point x="94" y="705"/>
      <point x="70" y="705" type="curve" smooth="yes"/>
      <point x="23" y="705"/>
      <point x="19" y="643"/>
      <point x="19" y="593" type="curve" smooth="yes"/>
      <point x="19" y="564" type="line" smooth="yes"/>
      <point x="19" y="485"/>
      <point x="39" y="424"/>
      <point x="105" y="424" type="curve" smooth="yes"/>
      <point x="125" y="424"/>
      <point x="153" y="438"/>
      <point x="153" y="459" type="curve" smooth="yes"/>
      <point x="153" y="471"/>
      <point x="148" y="487"/>
      <point x="142" y="489" type="curve" smooth="yes"/>
      <point x="100" y="508"/>
      <point x="94" y="540"/>
      <point x="94" y="574" type="curve" smooth="yes"/>
      <point x="94" y="587"/>
      <point x="95" y="601"/>
      <point x="95" y="614" type="curve" smooth="yes"/>
    </contour>
    <contour>
      <point x="209" y="685" type="line"/>
      <point x="170" y="680"/>
      <point x="168" y="621"/>
      <point x="168" y="589" type="curve" smooth="yes"/>
      <point x="169" y="532"/>
      <point x="208" y="428"/>
      <point x="254" y="428" type="curve" smooth="yes"/>
      <point x="270" y="428"/>
      <point x="286" y="441"/>
      <point x="286" y="472" type="curve" smooth="yes"/>
      <point x="286" y="480"/>
      <point x="285" y="488"/>
      <point x="282" y="494" type="curve" smooth="yes"/>
      <point x="262" y="534"/>
      <point x="246" y="574"/>
      <point x="246" y="619" type="curve" smooth="yes"/>
      <point x="246" y="626"/>
      <point x="247" y="634"/>
      <point x="247" y="641" type="curve" smooth="yes"/>
      <point x="247" y="657"/>
      <point x="236" y="685"/>
      <point x="209" y="685" type="curve"/>
    </contour>
  </outline>
</glyph>
<glyph name="quotedblright" format="1">
  <advance width="360"/>
  <unicode hex="201D"/>
  <outline>
    <contour>
      <point x="256" y="624" type="line"/>
      <point x="246" y="640"/>
      <point x="226" y="672"/>
      <point x="207" y="672" type="curve" smooth="yes"/>
      <point x="184" y="672"/>
      <point x="170" y="651"/>
      <point x="170" y="639" type="curve" smooth="yes"/>
      <point x="170" y="614"/>
      <point x="192" y="589"/>
      <point x="192" y="560" type="curve" smooth="yes"/>
      <point x="192" y="492"/>
      <point x="99" y="487"/>
      <point x="99" y="440" type="curve" smooth="yes"/>
      <point x="99" y="426"/>
      <point x="127" y="408"/>
      <point x="140" y="408" type="curve" smooth="yes"/>
      <point x="188" y="408"/>
      <point x="241" y="443"/>
      <point x="261" y="484" type="curve" smooth="yes"/>
      <point x="272" y="507"/>
      <point x="278" y="530"/>
      <point x="278" y="552" type="curve" smooth="yes"/>
      <point x="278" y="576"/>
      <point x="271" y="600"/>
      <point x="256" y="624" type="curve" smooth="yes"/>
    </contour>
    <contour>
      <point x="111" y="602" type="line"/>
      <point x="111" y="633"/>
      <point x="102" y="674"/>
      <point x="66" y="674" type="curve" smooth="yes"/>
      <point x="25" y="674"/>
      <point x="33" y="639"/>
      <point x="30" y="613" type="curve" smooth="yes"/>
      <point x="26" y="578"/>
      <point x="9" y="546"/>
      <point x="9" y="510" type="curve" smooth="yes"/>
      <point x="9" y="486"/>
      <point x="16" y="477"/>
      <point x="39" y="477" type="curve" smooth="yes"/>
      <point x="90" y="477"/>
      <point x="112" y="531"/>
      <point x="112" y="579" type="curve" smooth="yes"/>
      <point x="112" y="586"/>
      <point x="112" y="594"/>
      <point x="111" y="602" type="curve"/>
    </contour>
  </outline>
</glyph>
<glyph name="bullet" format="1">
  <advance width="231"/>
  <unicode hex="2022"/>
  <outline>
    <contour>
      <point x="201" y="329" type="line"/>
      <point x="201" y="393"/>
      <point x="132" y="419"/>
      <point x="107" y="419" type="curve" smooth="yes"/>
      <point x="62" y="419"/>
      <point x="29" y="362"/>
      <point x="29" y="320" type="curve" smooth="yes"/>
      <point x="29" y="282"/>
      <point x="65" y="242"/>
      <point x="104" y="242" type="curve" smooth="yes"/>
      <point x="123" y="242"/>
      <point x="201" y="262"/>
      <point x="201" y="329" type="curve" smooth="yes"/>
    </contour>
  </outline>
</glyph>
